<mxfile host="Electron" agent="Mozilla/5.0 (Macintosh; Intel Mac OS X 10_15_7) AppleWebKit/537.36 (KHTML, like Gecko) draw.io/24.7.17 Chrome/128.0.6613.36 Electron/32.0.1 Safari/537.36" version="24.7.17" pages="3">
  <diagram id="F__NJ1OxbIOSGsM-J6im" name="Overview">
    <mxGraphModel dx="1739" dy="1011" grid="1" gridSize="10" guides="1" tooltips="1" connect="1" arrows="1" fold="1" page="1" pageScale="1" pageWidth="850" pageHeight="1100" math="0" shadow="0">
      <root>
        <mxCell id="0" />
        <mxCell id="1" parent="0" />
        <mxCell id="zt9zdeETPPBjK3y9inhP-28" value="" style="rounded=0;whiteSpace=wrap;html=1;" parent="1" vertex="1">
          <mxGeometry x="40" y="40" width="750" height="460" as="geometry" />
        </mxCell>
        <mxCell id="zt9zdeETPPBjK3y9inhP-13" value="" style="rounded=0;whiteSpace=wrap;html=1;fillColor=#dae8fc;strokeColor=#6c8ebf;" parent="1" vertex="1">
          <mxGeometry x="200" y="300" width="360" height="120" as="geometry" />
        </mxCell>
        <mxCell id="zt9zdeETPPBjK3y9inhP-12" value="" style="rounded=0;whiteSpace=wrap;html=1;fillColor=#dae8fc;strokeColor=#6c8ebf;" parent="1" vertex="1">
          <mxGeometry x="235" y="300" width="285" height="60" as="geometry" />
        </mxCell>
        <mxCell id="zt9zdeETPPBjK3y9inhP-2" value="" style="rounded=0;whiteSpace=wrap;html=1;" parent="1" vertex="1">
          <mxGeometry x="200" y="240" width="360" height="60" as="geometry" />
        </mxCell>
        <mxCell id="zt9zdeETPPBjK3y9inhP-1" value="Linux Virtual Machine (EC2)" style="image;sketch=0;aspect=fixed;html=1;points=[];align=left;fontSize=19;image=img/lib/mscae/VM_Linux.svg;labelPosition=right;verticalLabelPosition=middle;verticalAlign=middle;" parent="1" vertex="1">
          <mxGeometry x="240" y="250" width="43.48" height="40" as="geometry" />
        </mxCell>
        <mxCell id="zt9zdeETPPBjK3y9inhP-4" value="Encryption" style="sketch=0;points=[[0,0,0],[0.25,0,0],[0.5,0,0],[0.75,0,0],[1,0,0],[0,1,0],[0.25,1,0],[0.5,1,0],[0.75,1,0],[1,1,0],[0,0.25,0],[0,0.5,0],[0,0.75,0],[1,0.25,0],[1,0.5,0],[1,0.75,0]];outlineConnect=0;fontColor=#232F3E;fillColor=#DD344C;strokeColor=#ffffff;dashed=0;verticalLabelPosition=middle;verticalAlign=middle;align=left;html=1;fontSize=20;fontStyle=0;aspect=fixed;shape=mxgraph.aws4.resourceIcon;resIcon=mxgraph.aws4.key_management_service;labelPosition=right;" parent="1" vertex="1">
          <mxGeometry x="405.77" y="370" width="40" height="40" as="geometry" />
        </mxCell>
        <mxCell id="zt9zdeETPPBjK3y9inhP-5" value="S3&lt;div&gt;Storage&lt;/div&gt;" style="sketch=0;points=[[0,0,0],[0.25,0,0],[0.5,0,0],[0.75,0,0],[1,0,0],[0,1,0],[0.25,1,0],[0.5,1,0],[0.75,1,0],[1,1,0],[0,0.25,0],[0,0.5,0],[0,0.75,0],[1,0.25,0],[1,0.5,0],[1,0.75,0]];outlineConnect=0;fontColor=#232F3E;fillColor=#7AA116;strokeColor=#ffffff;dashed=0;verticalLabelPosition=middle;verticalAlign=middle;align=left;html=1;fontSize=20;fontStyle=0;aspect=fixed;shape=mxgraph.aws4.resourceIcon;resIcon=mxgraph.aws4.s3;labelPosition=right;" parent="1" vertex="1">
          <mxGeometry x="395" y="310" width="40" height="40" as="geometry" />
        </mxCell>
        <mxCell id="zt9zdeETPPBjK3y9inhP-7" value="Postgres&lt;div&gt;Database&lt;/div&gt;" style="outlineConnect=0;dashed=0;verticalLabelPosition=middle;verticalAlign=middle;align=left;html=1;shape=mxgraph.aws3.rds;fillColor=#2E73B8;gradientColor=none;fontSize=20;labelPosition=right;" parent="1" vertex="1">
          <mxGeometry x="251.74" y="310" width="40" height="40" as="geometry" />
        </mxCell>
        <mxCell id="zt9zdeETPPBjK3y9inhP-11" value="" style="rounded=0;whiteSpace=wrap;html=1;" parent="1" vertex="1">
          <mxGeometry x="200" y="180" width="360" height="60" as="geometry" />
        </mxCell>
        <mxCell id="zt9zdeETPPBjK3y9inhP-10" value="Container Runtime (Docker)" style="image;sketch=0;aspect=fixed;html=1;points=[];align=left;fontSize=20;image=img/lib/mscae/Docker.svg;labelPosition=right;verticalLabelPosition=middle;verticalAlign=middle;" parent="1" vertex="1">
          <mxGeometry x="235.00000000000003" y="189.5" width="50" height="41" as="geometry" />
        </mxCell>
        <mxCell id="zt9zdeETPPBjK3y9inhP-14" value="Networking" style="sketch=0;points=[[0,0,0],[0.25,0,0],[0.5,0,0],[0.75,0,0],[1,0,0],[0,1,0],[0.25,1,0],[0.5,1,0],[0.75,1,0],[1,1,0],[0,0.25,0],[0,0.5,0],[0,0.75,0],[1,0.25,0],[1,0.5,0],[1,0.75,0]];outlineConnect=0;fontColor=#232F3E;fillColor=#8C4FFF;strokeColor=#ffffff;dashed=0;verticalLabelPosition=middle;verticalAlign=middle;align=left;html=1;fontSize=20;fontStyle=0;aspect=fixed;shape=mxgraph.aws4.resourceIcon;resIcon=mxgraph.aws4.vpc;labelPosition=right;" parent="1" vertex="1">
          <mxGeometry x="241.74" y="370" width="40" height="40" as="geometry" />
        </mxCell>
        <mxCell id="zt9zdeETPPBjK3y9inhP-16" value="" style="rounded=0;whiteSpace=wrap;html=1;fillColor=#dae8fc;strokeColor=#6c8ebf;" parent="1" vertex="1">
          <mxGeometry x="200" y="420" width="360" height="60" as="geometry" />
        </mxCell>
        <mxCell id="zt9zdeETPPBjK3y9inhP-15" value="Cloud Service Provider" style="outlineConnect=0;dashed=0;verticalLabelPosition=middle;verticalAlign=middle;align=left;html=1;shape=mxgraph.aws3.cloud_2;fillColor=#F58534;gradientColor=none;labelPosition=right;fontSize=20;" parent="1" vertex="1">
          <mxGeometry x="280" y="430" width="40" height="40" as="geometry" />
        </mxCell>
        <mxCell id="zt9zdeETPPBjK3y9inhP-17" value="" style="shape=curlyBracket;whiteSpace=wrap;html=1;rounded=1;flipH=1;labelPosition=right;verticalLabelPosition=middle;align=left;verticalAlign=middle;strokeWidth=3;rotation=-180;" parent="1" vertex="1">
          <mxGeometry x="130" y="60" width="20" height="360" as="geometry" />
        </mxCell>
        <mxCell id="zt9zdeETPPBjK3y9inhP-20" value="" style="rounded=0;whiteSpace=wrap;html=1;" parent="1" vertex="1">
          <mxGeometry x="200" y="60" width="190" height="120" as="geometry" />
        </mxCell>
        <mxCell id="zt9zdeETPPBjK3y9inhP-21" value="Reverse Proxy" style="rounded=0;whiteSpace=wrap;html=1;fontSize=20;verticalAlign=top;" parent="1" vertex="1">
          <mxGeometry x="390" y="60" width="170" height="120" as="geometry" />
        </mxCell>
        <mxCell id="zt9zdeETPPBjK3y9inhP-22" value="Web Service&#xa;DICOM Service" style="shape=image;verticalLabelPosition=bottom;labelBackgroundColor=default;verticalAlign=top;aspect=fixed;imageAspect=0;image=https://www.orthanc-server.com/img/Orthanc.png;fontSize=20;" parent="1" vertex="1">
          <mxGeometry x="216.62" y="70" width="110.25" height="35" as="geometry" />
        </mxCell>
        <mxCell id="zt9zdeETPPBjK3y9inhP-26" value="or" style="shape=image;verticalLabelPosition=middle;labelBackgroundColor=default;verticalAlign=middle;aspect=fixed;imageAspect=0;image=data:image/png,iVBORw0KGgoAAAANSUhEUgAAAY4AAAGCCAYAAAD3xiQHAAAMQGlDQ1BJQ0MgUHJvZmlsZQAASImVVwdYU8kWnluSkEBoAQSkhN4EESkBpITQQu9NVEISIJQYA0HFji4quHaxgA1dFVGw0iwoYmdR7H2xoKCsiwW78iYFdN1XvjffN3f++8+Z/5w5d+beOwConeCIRLmoOgB5wgJxTJAfPSk5hU7qAQRgAMjAFGhyuPkiZlRUGIBlqP17eXcDINL2qr1U65/9/7Vo8Pj5XACQKIjTefncPIgPAYBXckXiAgCIUt5saoFIimEFWmIYIMSLpDhTjiulOF2O98ls4mJYELcBoKTC4YgzAVC9DHl6ITcTaqj2Q+wo5AmEAKjRIfbOy5vMgzgNYmtoI4JYqs9I/0En82+a6cOaHE7mMJbPRVaU/AX5olzO9P8zHf+75OVKhnxYwqqSJQ6Okc4Z5u1WzuRQKVaBuE+YHhEJsSbEHwQ8mT3EKCVLEhwvt0cNuPksmDOgA7Ejj+MfCrEBxIHC3IgwBZ+eIQhkQwxXCDpNUMCOg1gX4kX8/IBYhc0W8eQYhS+0PkPMYir4cxyxzK/U1wNJTjxTof86i89W6GOqRVlxiRBTIDYvFCREQKwKsUN+TmyowmZcURYrYshGLImRxm8OcQxfGOQn18cKM8SBMQr70rz8ofliW7IE7AgFPlCQFRcszw/WxuXI4odzwS7zhcz4IR1+flLY0Fx4fP8A+dyxHr4wPlah80FU4BcjH4tTRLlRCnvclJ8bJOVNIXbOL4xVjMUTCuCClOvjGaKCqDh5nHhRNickSh4PvhyEARbwB3QggTUdTAbZQNDR19AH7+Q9gYADxCAT8IG9ghkakSjrEcJrLCgCf0LEB/nD4/xkvXxQCPmvw6z8ag8yZL2FshE54CnEeSAU5MJ7iWyUcNhbAngCGcE/vHNg5cJ4c2GV9v97foj9zjAhE6ZgJEMe6WpDlsQAoj8xmBhItMH1cW/cEw+DV19YnXAG7j40j+/2hKeETsIjwnVCF+H2JEGx+Kcow0EX1A9U5CL9x1zgllDTBffDvaA6VMZ1cH1gjztDP0zcB3p2gSxLEbc0K/SftP82gx+ehsKO7EhGySPIvmTrn0eq2qq6DKtIc/1jfuSxpg/nmzXc87N/1g/Z58E29GdLbBF2EDuLncTOY0exBkDHWrBGrB07JsXDq+uJbHUNeYuRxZMDdQT/8Df0ZKWZzHescex1/CLvK+BPk76jAWuyaLpYkJlVQGfCLwKfzhZyHUbRnRydnAGQfl/kr6830bLvBqLT/p2b/wcAXi2Dg4NHvnMhLQDsd4Pbv+k7Z82Anw5lAM41cSXiQjmHSy8E+JZQgztNDxgBM2AN5+MEXIEn8AUBIAREgjiQDCbC6LPgOheDqWAmmAdKQBlYDtaADWAz2AZ2gb3gAGgAR8FJcAZcBJfBdXAXrp5u8AL0g3fgM4IgJISK0BA9xBixQOwQJ4SBeCMBSBgSgyQjaUgmIkQkyExkPlKGrEQ2IFuRamQ/0oScRM4jncht5CHSi7xGPqEYqoJqoYaoJToaZaBMNBSNQyegmegUtAhdgC5F16FV6B60Hj2JXkSvo13oC3QAA5gypoOZYPYYA2NhkVgKloGJsdlYKVaOVWG1WDN8zlexLqwP+4gTcRpOx+3hCg7G43EuPgWfjS/BN+C78Hq8Db+KP8T78W8EKsGAYEfwILAJSYRMwlRCCaGcsINwmHAa7qVuwjsikahDtCK6wb2YTMwmziAuIW4k1hFPEDuJj4kDJBJJj2RH8iJFkjikAlIJaT1pD6mFdIXUTfqgpKxkrOSkFKiUoiRUKlYqV9qtdFzpitIzpc9kdbIF2YMcSeaRp5OXkbeTm8mXyN3kzxQNihXFixJHyabMo6yj1FJOU+5R3igrK5squytHKwuU5yqvU96nfE75ofJHFU0VWxWWSqqKRGWpyk6VEyq3Vd5QqVRLqi81hVpAXUqtpp6iPqB+UKWpOqiyVXmqc1QrVOtVr6i+VCOrWagx1SaqFamVqx1Uu6TWp05Wt1RnqXPUZ6tXqDep31Qf0KBpjNGI1MjTWKKxW+O8Ro8mSdNSM0CTp7lAc5vmKc3HNIxmRmPRuLT5tO2007RuLaKWlRZbK1urTGuvVodWv7amtrN2gvY07QrtY9pdOpiOpQ5bJ1dnmc4BnRs6n0YYjmCO4I9YPKJ2xJUR73VH6vrq8nVLdet0r+t+0qPrBejl6K3Qa9C7r4/r2+pH60/V36R/Wr9vpNZIz5HckaUjD4y8Y4Aa2BrEGMww2GbQbjBgaGQYZCgyXG94yrDPSMfI1yjbaLXRcaNeY5qxt7HAeLVxi/FzujadSc+lr6O30ftNDEyCTSQmW006TD6bWpnGmxab1pneN6OYMcwyzFabtZr1mxubh5vPNK8xv2NBtmBYZFmstThr8d7SyjLRcqFlg2WPla4V26rIqsbqnjXV2sd6inWV9TUbog3DJsdmo81lW9TWxTbLtsL2kh1q52onsNto1zmKMMp9lHBU1aib9ir2TPtC+xr7hw46DmEOxQ4NDi9Hm49OGb1i9NnR3xxdHHMdtzveHaM5JmRM8ZjmMa+dbJ24ThVO18ZSxwaOnTO2cewrZztnvvMm51suNJdwl4UurS5fXd1cxa61rr1u5m5pbpVuNxlajCjGEsY5d4K7n/sc96PuHz1cPQo8Dnj85WnvmeO527NnnNU4/rjt4x57mXpxvLZ6dXnTvdO8t3h3+Zj4cHyqfB75mvnyfHf4PmPaMLOZe5gv/Rz9xH6H/d6zPFizWCf8Mf8g/1L/jgDNgPiADQEPAk0DMwNrAvuDXIJmBJ0IJgSHBq8Ivsk2ZHPZ1ez+ELeQWSFtoSqhsaEbQh+F2YaJw5rD0fCQ8FXh9yIsIoQRDZEgkh25KvJ+lFXUlKgj0cToqOiK6KcxY2JmxpyNpcVOit0d+y7OL25Z3N1463hJfGuCWkJqQnXC+0T/xJWJXUmjk2YlXUzWTxYkN6aQUhJSdqQMjA8Yv2Z8d6pLaknqjQlWE6ZNOD9Rf2LuxGOT1CZxJh1MI6Qlpu1O+8KJ5FRxBtLZ6ZXp/VwWdy33Bc+Xt5rXy/fir+Q/y/DKWJnRk+mVuSqzN8snqzyrT8ASbBC8yg7O3pz9PicyZ2fOYG5ibl2eUl5aXpNQU5gjbJtsNHna5E6RnahE1DXFY8qaKf3iUPGOfCR/Qn5jgRb8kW+XWEt+kTws9C6sKPwwNWHqwWka04TT2qfbTl88/VlRYNFvM/AZ3BmtM01mzpv5cBZz1tbZyOz02a1zzOYsmNM9N2jurnmUeTnzfi92LF5Z/HZ+4vzmBYYL5i54/EvQLzUlqiXikpsLPRduXoQvEizqWDx28frF30p5pRfKHMvKy74s4S658OuYX9f9Org0Y2nHMtdlm5YTlwuX31jhs2LXSo2VRSsfrwpfVb+avrp09ds1k9acL3cu37yWslaytmtd2LrG9ebrl6//siFrw/UKv4q6SoPKxZXvN/I2Xtnku6l2s+Hmss2ftgi23NoatLW+yrKqfBtxW+G2p9sTtp/9jfFb9Q79HWU7vu4U7uzaFbOrrdqtunq3we5lNWiNpKZ3T+qey3v99zbW2tdurdOpK9sH9kn2Pd+ftv/GgdADrQcZB2sPWRyqPEw7XFqP1E+v72/IauhqTG7sbAppam32bD58xOHIzqMmRyuOaR9bdpxyfMHxwZailoETohN9JzNPPm6d1Hr3VNKpa23RbR2nQ0+fOxN45tRZ5tmWc17njp73ON90gXGh4aLrxfp2l/bDv7v8frjDtaP+ktulxsvul5s7x3Uev+Jz5eRV/6tnrrGvXbwecb3zRvyNWzdTb3bd4t3quZ17+9Wdwjuf7869R7hXel/9fvkDgwdVf9j8Udfl2nXsof/D9kexj+4+5j5+8ST/yZfuBU+pT8ufGT+r7nHqOdob2Hv5+fjn3S9ELz73lfyp8WflS+uXh/7y/au9P6m/+5X41eDrJW/03ux86/y2dSBq4MG7vHef35d+0Puw6yPj49lPiZ+efZ76hfRl3Vebr83fQr/dG8wbHBRxxBzZrwAGK5qRAcDrnQBQkwGgwfMZZbz8/CcriPzMKkPgP2H5GVFWXAGohf/v0X3w7+YmAPu2w+MX1FdLBSCKCkCcO0DHjh2uQ2c12blSWojwHLAl6mt6Xjr4N0V+5vwh7p9bIFV1Bj+3/wJJ3Hxq7M74JgAAAIplWElmTU0AKgAAAAgABAEaAAUAAAABAAAAPgEbAAUAAAABAAAARgEoAAMAAAABAAIAAIdpAAQAAAABAAAATgAAAAAAAACQAAAAAQAAAJAAAAABAAOShgAHAAAAEgAAAHigAgAEAAAAAQAAAY6gAwAEAAAAAQAAAYIAAAAAQVNDSUkAAABTY3JlZW5zaG90O+p7ZAAAAAlwSFlzAAAWJQAAFiUBSVIk8AAAAdZpVFh0WE1MOmNvbS5hZG9iZS54bXAAAAAAADx4OnhtcG1ldGEgeG1sbnM6eD0iYWRvYmU6bnM6bWV0YS8iIHg6eG1wdGs9IlhNUCBDb3JlIDYuMC4wIj4KICAgPHJkZjpSREYgeG1sbnM6cmRmPSJodHRwOi8vd3d3LnczLm9yZy8xOTk5LzAyLzIyLXJkZi1zeW50YXgtbnMjIj4KICAgICAgPHJkZjpEZXNjcmlwdGlvbiByZGY6YWJvdXQ9IiIKICAgICAgICAgICAgeG1sbnM6ZXhpZj0iaHR0cDovL25zLmFkb2JlLmNvbS9leGlmLzEuMC8iPgogICAgICAgICA8ZXhpZjpQaXhlbFlEaW1lbnNpb24+Mzg2PC9leGlmOlBpeGVsWURpbWVuc2lvbj4KICAgICAgICAgPGV4aWY6UGl4ZWxYRGltZW5zaW9uPjM5ODwvZXhpZjpQaXhlbFhEaW1lbnNpb24+CiAgICAgICAgIDxleGlmOlVzZXJDb21tZW50PlNjcmVlbnNob3Q8L2V4aWY6VXNlckNvbW1lbnQ+CiAgICAgIDwvcmRmOkRlc2NyaXB0aW9uPgogICA8L3JkZjpSREY+CjwveDp4bXBtZXRhPgpzcBhJAAAAHGlET1QAAAACAAAAAAAAAMEAAAAoAAAAwQAAAMEAAFIN1pRHQQAAQABJREFUeAHsnfd3HPl15b8E0GjkQBAEORySk6NGo7CyJMu2kiVZ9q7Xm+wf9uzZPbtr/23rbMuWg2ytLcnj0aziSJrAyTOMAAgiNrobDYB7P6+qmj0gupG6CtXo9z3DQepUr6r7ft+799136q5W8OUR8Ah4BDwCHoF9RuDU1tbW3Z6enn3e3G/mEfAIeAQ8At0egVOecXT7JeDH7xHwCHgEDhYBAw6qVadOnTrYPf3WHgGPgEfAI9CVEfCMoytPux+0R8Aj4BE4fARObW9vW7XKeY7DB9Hv6RHwCHgEuikCXqrqprPtx+oR8Ah4BNoQAQeONgTRH8Ij4BHwCHRTBJzj6Kaz7cfqEfAIeATaEAEHjjYE0R/CI+AR8Ah0UwQcOLrpbPuxegQ8Ah6BNkTAgaMNQfSH8Ah4BDwC3RQBB45uOtt+rB4Bj4BHoA0RcK+qNgTRH8Ij4BHwCHRTBKwB0O1GuumU+7F6BDwCHoGjRcBLVUeLn9/bI+AR8Ah0XQQMONzksOvOux+wR8Aj4BE4dAQcOA4dOr+jR8Aj4BHozgh4qao7z7sftUfAI+AROHQEHDgOHTq/o0fAI+AR6M4IuKqqO8+7H7VHwCPgETh0BDzjOHTo/I4eAY+AR6A7I2DAoWFOwQc5decF4EftEfAIeAQOGgHPOA4aMb+9R8Aj4BHo8ggYx0EMvHu8y68EP3yPgEfAI7DPCFjG4Q2A+4yW38wj4BHwCHgEgpeq/CLwCHgEPAIegQNFwOW4BwqX39gj4BHwCHgEXFXl14BHwCPgEfAIHCgCXqo6ULj8xh4Bj4BHwCNgg5xQVLmqyi8Gj4BHwCPgEdhPBDzj2E+U/DYeAY+AR8AjUI+AA0c9FP6NR8Aj4BHwCOwnAj5zfD9R8tt4BDwCHgGPQD0CnnHUQ+HfeAQ8Ah4Bj8B+ImDA4Z3j+wmV38Yj4BHwCHgEiIBnHH4deAQ8Ah4Bj8CBImCd42Qcbqt+oLj5jT0CnRuBuyHwnr+7uR22N7bsH9+HLf1Of2NJoR9Cr2T6vT3hVF9P6Cn2hp6Cvu/RH+yPdjP/X5dGwEtVXXri/bC7NwJ3twUQAomttY1Qvb0eaksV+367vGVgQmTqYDHYF/rGiqH/zKB97RWAACa+ujsCDhzdff796LsgAglQ3FV2sVWuha1SLWyu1QwwNuZLobYYAcdWefM+4OhNgGN6KBQmBR6j/favd6RfWUifQERZCVmIr66KgHMcXXW6/WC7MQLbtW0DjNqdcihfXQ2V66th48Zq4Oet9Vq4W4kyjbuaBHpXFSvWKZIKAQLZBSUqQKJ3XJnH2eEwcHEsDD8+ad/3Dhbs73Yn/1/XRMCBo2tOtR9ot0Tg7lbMXQgQyDA2VzfC5nI1VOdKoXJ1RcCxFjZuroWtlapKVkIKla72XOI1eoYKoaCS1cCDAo4nTuvrqH5WJiJA6dXfegq9Qpw9H8lvcAIi4MBxAk6iH4JHoDECgEVtsRyqt0qWYVQFEjWBxiZchjIMSlLbSVkKNnwfuMHjw3uc6u8NvcOFiPc4PxIGH5kIQw9PhMHL46EwMRB53jl4NJ6OE/m9A8eJPK1+UN0QAVNGoYSCuxAgbFcECMoyNpVJbCysh4oAgwxjQwBCWWpbt9kvSLSMH6aoKmP1TQ6EgYfGw6CAY0gAUjw3Evoasg/4D18nMwIOHCfzvPpRdUEEtiWh3RJY1BbKoXJtJVRvqAQ1q8xCILEpxRQkONkHYAK4mOS2XXGhdNUv7kMlqj5lGv0qWQ1cUgnrqTNRCUug0jvQ165n88fJWQTcqypnJ8RfjkegWQSQ0FrfRXUzKjmhjFquhI35dZWkIuCoARz6nQGFbp/FOgV5LgApqnQ1/ORUGHxI2Ye+L5weCH3DqK+Q8Cr78P6PLE5HJs/ho2MzCbM/iUfg6BGAmzDuQuBACQruYmNuvc5dwFtQrrpbU3YB4Z0NbsTqK2UgyjD6RlFeDYXiJZWwVMaihNUvKW8v0l1xJL5ORgS8VHUyzqMfxQmLgPEXktECBJSjttcFGnF2AWAYcMBdiMvgb/WW7xzEgR6PfmUcyHaN+3hA2YfKWTQS9iYZCNmHUyA5OFuHewkGHFykPgHwcAH0e3kE2h2BhPRGRlu9tWbcBRyG8Rdq1ttcrRpYACht5y7acDDWda7sA4kuIFKYHgxFSXjJQIYfPW1d6KbQ8sbBNkT7eB7CgeN44u7P6hGoR8A6uxPfKDIMlZwgtjdEeldvRg17lWtq2JM9yLZ+D1h0zFJm0atu86KyjgFxH8OPq//jgvo/lIH0jghYBDBewuqYs1l/oV6qqofCv/EIHE8EILw3BQhIZi3DUCmqqu5u1FJkHVulDcswuJ0po/bTsHc8h7Lrsxp5HvMfhdNkH6NRA6F6P4ozw6FPWYmvzoqAA0dnnS9/tSchAjjTYjJIdiFggLuo3YnUUQYccXlqSw17d8VzGNF9Ao7bfK3UXY5tyZAsSwYf1T+Vr4r6GVId9ZWvzoiAq6o64zz5qzxBESBr2JKkls7u0uu3Q/n9ZXV2Sx0lWxAjwhN1FBnGATq7cx8i+HDxGuZ7BYF+bjjqPFf5auSJKeM+XLKb+7NoL9Azjs44T/4qOzgCdQ6jGnV405xHrwW8Rem126aQoiyFnLablnEf4jvIPEafnQ6DUmGhvOqRI6+T5/m+Egw4tuWK6YOc8n2i/NV1bgSMw1BJakPktjXqib+o4k57WxyGAAQiPMuGvbxE0tRXAonClHiPC5F0d/ipKRHpo2oclGmifLF85TMCnnHk87z4q+rgCESlKE3Wg8PAVBDvKMloq0njHqCh7xmklGmjXk5jmli2F5V9jAg4BkSa00RovR8CEIwVvV0gXyfPOA5ekp+YfJ0YfzUdGgFxEiikmKxnjXofYDIod1oUUnAYdTPCeGhSVt3dOQ4nvMcpkeY9Q/G0QXEfAxgnxv9QYhmx7pYluTmLlnF4A2Buzoe/kE6KAOooSWO3N6IO7yTDYKJeZTZu3BNwmKW5QIO/+2oRATrJBQ447BbFdww+LMsSNQwOULrS75LylftetYhhRn/yUlVGgfanOXkRsIFJIryZ2Y1Cima9qghvTAfJLiDBsTLf1m3MPyoj08GOjjTKK2UfjKy1iYPwH0wclHkiA6T6ZZxIR7qNq/UM5NhOtctxjy30/sSdFgG4C4juaBCSJuupJAVPQRkK4KjEwLGpjIPswpr1Ou0gc/R6jTxX42C/mgSHmDgo23YME/tVuuobjwAEAt0ykBy97m54Ka6q6oaz7Md49AiIi4CfqHMXuNOqHLUp0KCJL+m/AFTqCil6MHwdPgLKKAAFXHfxvOob0z8BhnWei0RHvluYHLTs5PBP4vc8TAS8VHWYqPl9TnYE9HlvRoPq2rZBSHhH4U5LSSrhLpisxzjWOLs42QHJx9GZdclgwRoHk7kfAzjvkoHID8vmfmCc6CWs1E+YDXJCUeWqqtRj7U/QIRFIGvZq4ikqks7iG3WPu1DfBRlG0t3N7AvnLrI5s6iv4gwEoChMS32F667UV8OyMEHCG5WufO5H2ifEM460I+yPn/sIGFBsib+gs5vsIuYuaNirCDT4B3AwktW5i/ycTmZ7FMR/DKrvYxgO5KJcd1W6AlR6lZmQofhKJwIOHOnE1R+1gyKwrawhsTGvd3bLoRbS25xpARLnLnJ3Ro0812TB3tFo7jkNhEPyvRoSkGDdjnGiD4tK57T5zPF04uqPmscIJNwF6ihlF9syGiSDQDZL7wWcRflqVJpiaNKWBiZZGarDbMyPFPrYiBBJLAtlWNTdTvCO9Mjp3ZkSlsbSFs4Mqu9DjrsqXQ1e1tzzmaHIdde9r9oee8842h5Sf8C8RiDhLgCKDflEYQFCVzeAUbPeC/EXIsHr/IU+NG0ka14/MNsd6LgBD5KZhjtIZmJ1F2kxPE5eAbThdVv5Sr0eSHithJV4X0mV5d5X7btgDDi8c7x9AfVHyk8EIu6Czu5oZjflqE0NRSK7qMrGfAOFFHYg4jI2NQ/DOru7BSQ4TSZA0m5dvRBIXrH8oLkOh9o+TeijyY5ZIdbMKEXZ1prMGGlmFB+U5wXw9eoYkO2a99UlvK+G7/e+AnB8HSoCnnEcKmx+p06IwDZyWvVebCyI5FYJCpJ7Q016DE0yz6iyurq1m7bObmZfdJk6KvKI6gm9AglGu8IRWHf2GZV4mMqnD1Y4nsqNtVC6shAq2KcoM6MbPs8rOa6eGATJPnb1vkK66+tQEbDOcTIOt1U/VPz8TnmKgLIFrmXr7lZ2Qd9F1NW9FgGHpLWUpnCrzXXpJeWYJv0QgEPfpMo6krECGuzQByVvLeh3vSKdWTZwSqW80pU7ofzOksBjWaW99cjZV2Cb6wUuqNxm3lcm25X6SuQ54Ejvh1mXSN5r9iW5PpD8vTgvVeXvnPgrOmQEktLUhmSz628vhvK7+qBjup5KUSaxTXovuo27aIynPkx7pTYCKBjbygdp8dyIdWb3ysK8V+WqHhHjiY0HAAt40LtSkdKs9NadsP6WYqt/yJNzS5gnx6zjTbyvKL8BkjY46qMzApBRk+32uGw3ida+vzpw7DtUfsPcRaDuTstkPbq7I+8oSO/Sm9ohv7dk/RdbKxsRyZ27A0j5BcU77sTzyYwDBQwFlaIGVPdHfYQKqV8/AxR77bxpiCxfXTbgKL162xojN5W9WW9LnsnzOMxwOYBjURnH6EfPGnD2y0QRGxOcd+tzP4ibr5YRcI6jZXj8j3mOACTtlsjamna+jGG1Rj14jPnICmRTgLEtHuOuuI6uXHGnNRkGdX7LMtQkR4ZRmGJQUtEyDeu2xqZjjw/MhDOqiTOi34XSVen1BRMYwHvkPs6xbJesyrIPuA/1fAw9JAB9ZNImEe4HQLvyWtpx0A4cOwLiP+Y0AvAXdHerrm4d3iK1TSXFdD0BRSP5vbkkDqMbrUDiD0aAoK6Sorsaa/LzEfmNMSC7bHbelKQOszB0tJkjAo/S65qZLtKcLnvUV9vilmiozHUJK87EME1kZO0gwCHLEpv7AZgqZr1SZpGp+do9Ag4cu8fFf5unCAAa6iEwhdRi2eZdVG+qB0Ny2g3ZmdeWZAUSd3dv0+ENaNBzoP+6aVkpBg8nEb+WYQgs6KCmFIW7rHEYaoYzM8Denj1LU81iB++RdNsDFkiaI05pWZzSUtiUKCH38SfBEjBgTYJ0l5hhWTLE3A/Ztxflg0X5ytfuEXDg2D0u/tvjjECdu1CGoVKTcReopPQhhbQWVQ9jWZPGPTKPrmrU49xgTCpSl3ndPQw9ovyiklSfdsxwGHXg0PS8gpr5+JDci8M48CmPAR312rpECIgRyu8sSvIsu3mdK85b3WL+wA+e3R1OAaLKMOj1YO4H3A/EeRHAxfdKPS4mFqCc58si4MDhF0LuItA4WS/iLjT7QtxFTd3epo7SB5L1XyQ9GDSkdVN2AWiIzOZDrTCjEpR6MChBFfXBB3D0qdTSMxCVqxKzP3O/TuNzT3FPsg+aBc0Y0kpY6vvQV7OdVxaY60U8VeYjZmRmAG9RgMvoWuzbi+JCDDy8dFU/je5VVQ+Ff3NcETAZrQhsvKNMHaWmM9Q6jGCtXFuJSG81ofEh1JXcRQwUVoqi1KTGtt6RQlSSOqemPRr34C7k1ZTM5T6Oc2nkuTJESlfWMKgsBM8v+BC6zk191QHcE/GFFyKmw7IssdiivlJJi94P44bSAOHjOGmHfE4fHXvIwPnd2hcByO5aAhTapTIDg0Y9bECsTEWG0c3chXa6kN0069GkB1CgkIK7oInPyFz6LxijmkZJap+n2jYA8B/KBDdlENloHEkJi/LiFgS6/p7nlZSu4ISseZCMTrJl1FeD4j8Kku9SKtxLhZbnYzzqa/NS1VEj6Pc/WASoi6sBj6YyPkDIMMgukNSyUzVbc33A1OLu5K7jLhRNk4RK8QSJbbYZdHiLp2DeNsBhXd7GXQxo95sCd3GwM9r01qa+Ev9RVba4LuCgdGViBp1rZrWb75X4rNyWGeNMr0+miSivrO/lEVx3VRIUeMAtNTZLNg3ECfyDAYebHJ7AM5vHQ+IzQh8UfGhgMkgnclWlKLILrEEAEIAEQKFsBcDk9kMlxfhadgHJLc6CMgkcxoC4DLMCoVTCB1byoZXjnW+iviJbxPOqqtJjOSHR1dmP7xW9H6bASjGeR3poxbenX+or8UYmPBB40/sx/OQZI9ARHsB/dNty4Oi2M57h8da5C3ovyC4ABNXAzZ1WMlpKUnAYll0INChZddWKd7R1dVRMaFNLZ7ZEvxr1DDjowaAshTwUoOjQtWm2Javq6Ff3uTr7TfAA/6Hfc33YRiHHxwbH1KNzQE/M8FNnVLbCdZdGSnl76fdGoOc4A2xnaL1U1c5o+mN9KAIAAbVuvKOqAgqbfQFZqp/p6mYXSoZxl+wi7zvPDx1Ze34wPkLlKMpQjEClBEJXd1G7WssuJK81MlY72pPQkGYlSmUfAEhN/Th0+pfeuGN+Ykh4yURzvZIGS/gmNQ9av0wM7pSxiudk3a5zRonxpC8HjpN+hrM6PspQZgFCVqHsgg+ImLtAHQVwVNWwVxNw8PtoroPu1EXrQ9wFjWdSRll2IcUOfReWYfDho2Y0SO+TOngoKWFxXZQwTFT/RxXXXf3MRsOEEHn3vlLi16NzaF35SHfFfeC6WyQD0dxzzu1+rVw68S3gqqpOPGt5e818/ou7YEgSdWzUM3UiNOYuEt5iu6Ku7i7t7Ia76I1J7oi7kEIKoFCpwzgL/d2sQo5ZHZX65cUmQ5398FibkunWhREypUTGy/WDE0Deva/q6ivxTdb/oUzxHoku80htCE717W0emXq8U3gCzzhSCOqJf0je+HR3q7y0FXd2Y3Jn/kVkFnAXKGgEIp0gv0zlfKHWjGW0BhgitevZhcCizl3ow4aGvW6WdybqK5o9695XZB9SZHFdbW8gksh5diruqde8r7CrnwjDj2nux4URM1M0uxeVr7geTsoy4Nje3vZBTifljGZwHEZ6b961saL1Bj3UUVJKmTKKZi8BChxHdzbsCQfoRFa5KbL+oEFPMlqVo6wMRSNZrIxiYBI7127uCUhKV/Ts1L2v5Lxr81REpFvjp3mP5Rs86gOyYr+we95X41FXP+KGE7I84zghJzKLwzDAgMcQMGyoBEVJoazadEUzGqraLZJxGHeBjLabFtkFxCmqG7gLNeOhsqHW3Y8iSjVwAw6yC8hT3c7XLhGIM1m8r5Dtrqt0VX57Kfa+kvoqLl/BpeVZpm1cljKMuveVMhDjP3T+T4r3lXEcnELzstnlXPqvPAJJBPAk2tSbFxvt1Z/O2o4QdQxySjO0QxkFqZn3skJyQG36mnxQ9E3Ivhz7j7i7m4Y9gMKkmnR2k10cY2d3mw433YfR5WPeV5Q+1WVusz90vRn3ofInmxPIc7vG8pqAxBsJK1Eq60RaXTyP95VKWDJRtImLyjg7uXRlGYc3AKb7Xjgpj46MsoyEUjMYVn5w02SUnaC/b3v89cEAJ2EchsDArClU3zZVVGxLgS0Iktpu7SxuR8y3cRjA+0qZ7dprtyP1lez0aRbdlnTX+n46YJOC8MG8ry5PhNGPTBuA0P/Rp5KWEezKVjtteamq087YMb5eOr2Xf3QzrL0yHyqqQfMG7sYMI1CWUqNX74j6L5RVWP8F3d0qSdHl3S85bb2zmw+FzvtcOMar7N5TmwBDGSz9HZRGuf4qKo3SQFhRGQsvs064/iwjVXkSfqsoye7QY5Nh5NkzVsI0U8pDDtS6F6nsv3M5bvYx77hnTBq38Bta/N5Vyzhs10fJoBsWQCEC27yjkF4yIQ4CVBlFQQN/osY99WEIRKxxT7JaX+2LQNQfJCNMfK9wHAA8ZFlCJmJzP+A+EGLAfeR4UbrCtgTwMNdddZ5bsye2JVLdwZGlZn/f5ri4qqrNAT2JD5dYRay9thCWv3/ddnudMKCnXefiFIaDkN2qVUNymjstJoMCDt7wppCiB0OEqJem2hX1hsdB+k3fh2S5lEbNjYAMJOY+kH7bRka8SJ5XvQEUaTb9PJJlm3Ei5U35X5GR2G06oHTlpao8X2k5eW009a2+Oh/WfjEfSj+bsxkLOXlpqbwMI7BRSAkMAAX6L/rUpIe01tQxKkfhVxTVqJWNdLB/VCoBTPlBLQMWgJB9lN5YEPchVZ96h2qae05Zy5pM8yzfjTkyrin6eQYeGjfLdjJXekHMKl/gkue5HzbIiQvfL/6Ur/YOfniszhdfuGrAUdX3lAdO7NKbOhrkE41ftTe2QMLM7GIr7STDgOfw980xXAlkIHAfAg8UfVUBBs2D9H2sy/uKkcK5L11BfSmTtYxV9iTMPUe+OygQIfuwDETAYtdXDjkyzziO4brvtKdcl5/Q/N+/bcBho0D1hj0RK975MdOC7AJC2xRSesMadyHAsJGs2ILgP6S/+8pfBJCIV+fhPlbCuixLrHTFzA+MNKXKMtfdvEp3CadxaKdsUNeAeI/63A8ZKFLSMqNLgQxlrLwsB468nIkcv47S6wth9i+uhNVfzIW7eE2dlAY/3rDqq6AUZY16sogAKNj58Ya1koEa+gxUIC5z9MbN8eWS+Uuz0pXIcdyWN5eqZtePbXtZyius23Fiznvfh1ILlaa0gYH/oCwqG/0BTRvEvp2+oLyJLnzmeOaXeec94Zr4jVt//JplHCZ/pH7cgSsxpTMSO+Yv2M31yYzOurvj5j00970AxgnyFurA03Xglxw5G8gKR8Q5CsB1la4q7ws85Mi8tRxnH2pSDTm/fs26RNelzf14csq8r/i+oEmE5ppMIykE+jEmIJ5xHPjy7L470LdxMwaO0Kmd4XqTJTbY1nvB3As1YZFd2CAe6sx6swIYpzCkU3bh/EWHXevaz1jvhwaHUb7C1YBJk9iX0LRava6ZH7Jth//I9YpLVybflfNAQdcp2Yd1nj922mTfx63eM+DwzvFcX0bH/uIMOP4kyjgMOHK+Y7OdWNLZDW/BPzILlZ8Yx1rUGFakkAYcKgnQl9EpMshjvxg66AVsC0BqAgoAg3IrAAJxDk9HWcsk5aa+yvdBmWX7eRHnjKx9Ysrk4HBuqPq4to/DusQzjnxfM7l4dWuv3g63YuAwfiPvwBHv2EypohSfvgvqxEl2Yel+0ndh2UWsjjrG1D8XJ/qEvYjIxVm2JZoyuaXhYVWBxrq6zuE+6Dyv3ZbzAbNhyKJzvMzahtJq3HSKH9rQ46cNSHArAECyXtY5TsbR03NyvOKzDuJJfz4Djj99XVYjIsepEeftjRYDBZ23lJrMVFClJxqq+nGmBThka94/pewC7kIkpK8ui4CwoSbwwGuNzvOK+A9GGWOkaCadykDqcz9yiiPmwKxrt6AseVC2JZSuyEKKiDkEHpS2rAcJ/iPl5aWqlAN8Eh4eg7nZPxNwqAEwjx3j9TkIAgoAwoCCzm6R3PVmKtxp+/XGgrvI4I11Es77STuG7WTwmPgP879SYyvlKzIQ/tW9r/KaUQsP4N3g4Kx8xcZITYP0fmBhggOveV9pA5X2cuBIO8In4PFLAMefI8cVcOTAE8g+/Oud3cowtNsyCwf4iwQ4eBNJZutAcQIuwHYfQkyi08hKc2s090PeV+o+R85rcz9ycJ3vddhkGIwipnQ1IuCgB4RxtVz3ZN1m45/SRsk5jr3Ojv/diEWAg4yDOdHH2sdh6ijZVDMkSbutovoucKQtymzQ1FFkFpSrYtIwr523flkdcwQEHjb3Q0adTK00912BCHM/aCTEvoSxtXletinCR03Xugk/6P2wsmykwMJ0M63SrANHnq+MnLw2awD8yzcEHHM2RCcz4CAtZ8cEd5EAgnZZffLzKYivMGUUwIG0Nu69OE5te05Ol7+MA0YgaiCU95X6PUpX1Dgo/qPufSVLExuBnGcZOpSG3iuUryI/tWholFn8C0wKssqx7nNKWG2iPxw4DniRdePN2YXNGnAo48DCAYI8g2VqEnZTquUWmaon3gKQ6FcjlFmbk47r770CE5r6bHZ3Bq/Ln+KERSDxvlI2DVG+IbVV5dqK8R4lvK8EKFaizbNjAvyHGlYpT1k/ksq3xn88IgJdJPqQhkjRfd6uxkEHjhP2HkjjcAw4/urNqFTF7ANJGNNcSYc36bdlE5SiZGduJSkBR0G/P+4GqDSP3x/7eCPAGGQcoVFfce0zOArwoKRlm6a8kudJ2AARCUDMfRfDRIBD8l3KWOa5puz9qCVcB44k2P61aQSwrp6LgcOIQzVWpbkSd9pB7ZbGPz5j1tOWaiu7MN8oDN9QRrUp7U7zWPyxOy8CDISiPLUpi3ZmnJdlX7L841sGIPSD5L7znJDrvcHmyubIwAeqnwnwGPuY3k/aiB1VtuteVZ13XWf+iknX5/46yjiQMSLJTXPRuEeGMaL5zKc/92AYlN0CNVxfHoEsI2ANhCrLVqS2WvnpbFh/6040dVAja8lKLPPOac9HY5ysfKUsHdnu2CfOWQZC2SryvTpciddHxzZG2L/fNQIAx/w33wqragCkBpz2josUu6iLfOQjZ8PkZx4IgwIRXx6BzCMQy3YBCXyvmPlR0ogBMhCUV1saZQu4hJyDB9m5zf4Yh/eQAzR9HzJPxP+qiOWO7HgOurxUddCIdeHtS7Konv+bt4zjIFUnjU9z9Wk3NKC6rAHHpx+w2myaz+eP7RFoGYF4dC1lq8SypPyOOs/hPVBdCVjqMvUcg4iVpyQkgTQffkKWJRDn2pQh2+2TmSICk/0uAw43OdxvuLrzdgYcfxsNctpS0xRvkjSXkXoGHNNh8tMXzGcqzefzx/YI7BkBgQeWJJZ9LFekvBJ5LvNEpLtkIrU5Oe+uqe9Dt8ttBhLL261xMJHuQpzLvmRUGQgzQPbLGzpw7HnF+A1sAqCAg87xLb1ptlOeAGjAYaUqAcdnAI7WpSrKBdub/NtWc+JdEech9Gr3ZPM0nBrxC7jNETDrEmUZG1Je0XVO2cr6PvQzyqttNRV2gnkijgt4uUGajz8/Y75XKBn3k3l4qarNF9VJfLhodOw71gCYxehYk+FKRgg5PvlZkeNq8mu1trQTrK3qjcwMhtJm6O3vCUPTGv8qo8Ojyg5bPa//rTsjYKS5GgLJvFEZYl2ysaAMRJ3na7JvZ+qgZeYpb7COGv2kTwreY0ilK/yuRp8+Y6WrvR7bgWOvCPnfw/rbmjn+LYBjXkZwZdtRpRkW89+5OB5GAQ5UVXsAx8ZKLaxeLYXybZUQBCAGHOdkeHhaI2FHNYdjQNmHXEVNwpvmC/fH7soIMPfD5p5LfVWf+4HzLnM/pEI0TjDHJSzrOJdcF+CYUIY/+NCEZewAS7PlqqpmkfHf1yMAcNz+h3dlqz5vYznT9vAxOa7AIpLjXozkuPVXc/83pRvrYfaHC2HlvbWwqdkLAET/RH8YOj8Yxh/WbkogUhSAUL7y5RFodwQsA1GZlBIVZDlzP8x1V/wH7x18r/LcOGiZh0hz65tShm9Ou1i1y5mh2fKMo1lk/Pf1CKxLQXL7HwUc8qpi+E0mwIHjp+S4p391b+AAMK5951ZYelMlgnUN5tHurnewNwxOF8PYw3qcBzS/QN8XJUfsU9csGYmXsOqn179pZwTEjQMe9H6sy7J9XYpESlc2dZDsQ+WrzLzeDnhceL+NiOvgfTf6dEyWN3kMA47t7W0f5NQkQP7rEACOhW+/a+R4TQRg6sARk3ZcwFO/JuAQ39Fqrby/Fq5/Z1bAsaKSwZaR5JgjkmEUhvtUsoqyj5EHh8LoJU0EnNTQGy9dtQqp/+0IESC72BJAbGpsbU3NghUBB+4LZCG1WyUrXx3h4VO7q834EHiM8r77wmXr92j2ZJ5xNIuM/74egXWl3Avffi/KOAQcEIJpLlN7qOZqwPH5S/sDju82AIfI8sZFljGgjGP4gcEwdlmlq7MizuE+9HvjP/rUIEVnuiuwGsPm3x8xAoykxbod9RWSdpPuikCvzUl9JVCx7APX3Zx4XyUD0YZFkE9//VErWTXzhDOOg/jYG+eIgfK7n8wIGHD8E8AhjkNNT6kDBxpzA47pMPX51jsfIm4Zx/dmw/Jb0tOvbkYjQBtORZJ99A33hv6xQhg4IxA5P2QcyPCMfHwEIj2AB/5XvjwC7YoALR1IxaW+Mt8rCUuqN9X7IdNESPSqCHSy96zcpvc8LDrMlakPPXo6nP7Kw2HkmTPmqIv79M5lGYc3AO4Mywn+mQ2O7YS0K9fnZC8lG10srRZjNRf++f2oVJVBqp3MFYAcn/oiwDHR6uWF1Q9K4fq/RBmHAUf1wxlHcmezXhBAFAQeEObDIs/5Nzgl9ZV+Z/wH/R97xCN5PP/qEThIBChfobRCtlt6/bb1f9BIiJwXAKE/JA8NhEwSnBC3yPtvUFwjEwV3Li9V7YzISf453gFtVrZCdXnDgGNgsmjlmlaHzQ5p4Tvvm6pqQzsm/KrSXIy9LEjVYcDxpYfCkLpbWy2A48YLAIcyDklzt5oAB0BJZn2qIMtpSXQBiv5RqUlUuhp9SHJESHSBSEG/9+URaHcEktJV0vtBxoHqivdX5eqyEejc5rhLV2T7ox8/Z++/ETrKNSRt53I57s6InKCfTTpOqmxknbTmAoxNSQZra5uB3oe+oV7JVTUcSdLVVgtSb+G7H1ipakNqkbSBw6yg5Z9jJN2X9wEc6uG4+cKckeMc11Zl94xj5zGSgfQIRIrq9xi9LKC6MGQZSFFgCqneW4yyMS/j7oyc/3ykCMQbuJpMElFeVfSP9xjeV1viPrAuOU733YLee8PPThtwjD13NhTlbbVzuapqZ0RO0M+UpLZkSMiH6fqtclif04U6VzbgoPaKTHXmU2fsA7PVYXNR3/neVcs4rCtWtgppLpvHoYuXjOPMlx8OQzJja7Vo/rv54lxYVsZRXQI49mnCGGcgPZLnAhT94wXJdgfCsABkTBkIEt6IPG/eCNXqdfnfPAJNI0BiIeLcsg/JdNmMMboWPpH3W1U2Jpuy9zmO0lVBnlVDagbk/Teu+R0MU9u5vFS1MyId/HM9w5CqyDIL2W/QSV1ZqIb1WYGG/pXny5Z5wG2MPzIaHvziOfuQbHXYZV3Ed/5FwCFyvKqRmjjkprmiQU6DEXCIpBt6ZLLl061dAzjmrVRVXdSbcL/AseNRTb4r8ID/oHGQDATwMPLc5bs7ouU/tisCUQPhXbNuJwNBfYXND9k9WQmNhVkCSEGlqcEnYuDQ/I4Bla52LhvkZHVfH5SzMzYd93OSYfDhuaZu6tLN9VAWWGxoF75ZjkpVZCAsyjDjj42Gi188rya5+y+MxoMHOBZfuGbzOKoi9vDhSXMxR5yL1zKOrzwilcdewLEebn4f4JDZHMChYz3MikpXPdY8CFiMXBgMk0/LM+vBYTUPeuf5YWLq99lHBChdadfHgLRNkeQ1qa8qN8R/SMK7+vJcgFdkKmFW3EfhtIBDxoeWcXzyvE0M3HkUnnHsjEgH/Ww7FcpR2D1rl12T3QZlKTyb1q7LuVPlqcrtqjXFcWEmds+npCzqFTk8AXB8aR/AIbBY/NdrUcahOcyoQNJcBhy6eA04vrpP4HhpPipV3dHxHhI46sdECUv8B9nGxBNj1vsxOKPhUuKC+hhfS/bRWohWfyj/xiNw0AiY+kqZBpnHyo+jyYM12ZikLYNPXmcfwKHNGu+/iU8BHKPJn+pfHTjqoei8byC9AQt22aVbAgpKUeIxqPPj2cQHKAZrZCIJaHCUBhzKOCYeH9s/cLx4XcAxF6pKpbMADoY5jYigm/7aozYvoNXZASRvCThQVVVVljsycFiQImt2ZLrwHqMXxblcFIGu7vN+WZeYtNfBo9Vp8b8dMgKJ+or3GdYlpdduh2W9/5DxZrFskJrKw5iMTvzS7oPUfOZ4FmeiTc/BBWXZhcDAFFLiMKrLcBiVUJotG2jslmHsfHr6NnoMOJRxfPm8Kat23qbx54p4jUVduMzjMODQbijNxaAZZnKw45n+jX0Cx//Tm0ulKvicTflVtWtRxi1Ismt9H+I8Ri8NR5bt+p31fZB9eN9Hu8Ltj9MQgWTuBxu2+W+8GUpXFhr+mt63+xmk5hlHevFv7yMraWAnXVmsiuAWUNxSI5FKUmQbNcn3ABL6F3bLMHa+EAOO/lNhXBnHJYBDJHmrxYSzxZfIOOZDRenzZgbAgbW6ZRxYH6je2mqRccz+4HZYUud4ZR7gaO+EQkpTlPYKI31mlDh0bsB4IZoHke6ivPLlEWh3BBLSHOCY/ZPXwtqrt9v9FLs+HsBRlD+cjTX47O6D1Aw4vHN81/gd3y9jsoypdpDZ8BcQvsZfoJBCVgt/oXo+A4yaNrw1OQKAgya4iccEHF/ZB3DIpG3xpRtWqjLgUPdrmuuUurexVufCnf7Nx/YEjsRWHXK8DHAoE0tjETdEBQNqEqRhMHHdpXTVJzfePrrOPQNJI/Td+5j6LGDDdvMPX7GvWQTCBqmpe5yMf/KXd5+H4xlHFmfigM/BTgPQABTWlV2UVYaCv6jcibMLlWLIMBggs12TGkO3P8iy+rwI8vHHR8PlrzwQxh/dI+MQcCz9AOCYD2V1umIRneYy4JBD7sizZ8PZ3xJwaDpZq2XA8aMF4zjgeNICDus8F2kOeFjXufiPIs67Is5RXg1NKwNBfeUZSKvT5X87YAQ+BBwHe6sf8Jmim9s8HI1rBjhO/8ruYw2sc5yMo6fHm5wOFeU23CnhLqymGXd5MwKVMlRZDXtRhiFZ7YqkpipHmS3BUZ5Xp5rdMxnH5a/tAzhE0C394OY94JBcMM11ql8Zh4wOuXDP/tvH9waOm+UwK+CA4wA46IzPYlnjoMpXmCaOAhwqXTGyliFS2JbY3A8BjbvuZnE2Tu5zMEDt5h++qvffXCRySRk8cKcuNs7D2WWsgZeqjvt600Vg3MVSVWoodY/qHwQvJZcNfc/fKFVZhiFQseziqBdOLDedIOP42gXr52gVBjTlyz+6aeR4WdpyxsemuQw45FcFx3H23wk45JfTapUEHHM/iTMOlfCyAo4kc7MMRDLdouZ8GIku5dWYSHRG1+7HRLLVsfnfPAIGHH8EcMxHvRxHff/vEdJ7Yw1id2oHjj0ilvafdcLJ7j7EXQgUEu6iogyjCoCoJIU6iqyjLUCx87gADqmFaAC8/PUL1s+x8yaNP1fUgLT8o1u24wE4agspAwdk9JCAg4zjt5/YGzgEFnXgEIhkBRyNMeJ7vL+K4j/qcz9k2U7pqjASNQ9i3e7LI3DQCBhwQI4DHEjrD1iaPujz2UAn+VPBMTZzp3aO46BRPcLt69yFVFDGXVCGQh0FdyE+I+ItpIyioU//tjXHuLH/4ghPff9d9RlmpSqAQ5lHq2XA8ROAQxyHJIFZAAdNgHAcM/9ewCHfnFarJOCY/+kd6xxfBzg0k+M4VkKew38wKIqBUZgn4n01fHbQ/LC8bHUcZ6aznxM11a0YOGzsbMrAYSajcqc24GjiTu3AkeI1RXaR8BdWblLZybgLlaDwjDL/KAHHhizO28JdHPBYrFRlGcdYyzo89s/LP52NSlUaQFPTDIE016m+nkAvBxnHzO88uT/gePmODXIqXQc40p1QuNexWwlLHFL/hLImlazwvDIFlrKRPnEiqK9M2Qb/4csjsEcEDDj+9HWZjM5FQ5/IOlJc+zEZdeBI8QSQMUT8xUbkTmtNeuIuBBTGXQhI2spdHPBYsByJSlUxcDT5HKtqeNPyy7OWcaxrAA1zx9NcAAfKqlFxHDP/QcChUZat1rriOv+zRSPHAQ5Kf8e6FEdKgVi2J+ormzrI6FrZ2NvoWmUlSHd9eQT2isCaOsdn/0zAoYwfP6sji2P2eEKAoy/2iptuYjLqwLFHEA/yZ8suUEXFvRdkF4k7LeUUFD/GXUj1kwp3cZAXq9sacECOq1TFLrlZGQW755WfzSnjmAvrSptTBw76TKSssozjPz4VRvYADvpZlt5aCcvvrIbV90oSF2zYDJK032D7DXeivkK2i6EkY2shzqOpg3Hvh5tf7TecXXc7LEdm//yKTEYFHPpssXJVilGgTNw3GXnFTX9td684B452nQBlj2QPkNtlEdtmASJlVNWa9DajJj4Ahe7uNLmLAxwP/RsmxwU4+LBu8uFlwPHzOdvxlF7V3PG5dDOOwGvRbhyO49x/EnBo9nGrhYU84LF2bT0sXlmxr+aSq/ORh5Wor2zqoOZ+0ECI59Ww/o3qXxHvqxbxz8Mx+Gs4vggwn3z2L67Y+29b42dTBw6ViXvVPW4NuE0sf9yr6hDXQ8Jd0Hy3pdTRwECgsCFStnwnMhos0bCHMsom0uXjA2znoQIcl76qznFZjzBn27KOnTfSz1U5c+JTxb+S/uHUmepS9kO5iozj3H9+ek/gSOzkkTGvvLcWSjgDK7sDPGgGRGiQhwzPYqbEDuuSRu8rTBQZJFXQTg9pb4+OvVn2l2rc/cFzGQEDjr98wzgOZnPcVVUjzdVT1HUo5wbef9O/ubvlj4+OPcQZMO4ikdEKHPCMAiTowQA8zJlWf0cdRVNfXkomOw8Vj6qLshyBJDerjCZkbVUZBmlyBBxzoabSVaoL4BCQ1YFDXEerZY7xdNsLvBO3YHgPPKxWrHRVtXORl/OALDfxvsKuhJnnprzSACkaCAGRVqXDVrHwv528CGBuOPcNAYc2bdFI2XSBw/qoRiPgaObc4KWqfV5n1n8hIIDUhrewRj2VRwCMsna6fIWUhd+4K7uQTlhjj4yEi78OcIy1bFSrigxfVYmKC7ckroPZyKku6BaBx8hHVKr6XWUcewDHztdiggSZQTLIauVdZSA35Oulc0R/B+fGso+ddzqGnwFH+A/mfAxraBTcB8aJgyplJf5XVj5UPHx1bwQMOP7qzQg4SjVlHOlWMOoNuHr/WQPuLpY/Bhx8KDarb3fv6bp35ElpCrBgvjU7WVPv6GfKVPVylbgL29V2Bm4EA44vn4uAQ2Q0H2S7rQ2AQwQdwLH2s9mwIZVVqouXYcAxHc7/7jMHBg7OAeUpMr+qbFqM+3ht2c4b4EEmmIsVAyTZHiaJkOV4X41q7sfkU+OmvmqVCebiGPxFpB6B0ht3wlwdODZMWZXmk8Iv0svBxm2miXODA0eLM0BJKpqsR/+FJuuJ7F55P6qhM5L1uDqUW7zkA/0Jhc+DBhyjqq1L3dO7uzx0Q30bqyLo8MpZUz9HJsAhop5S1fnfOzhwJEFIGi5Rsy2+vhxWPyjZdMQNzTBJZNCpNVgmL+IAX019pTIVneen45G1ZB6Ursz3qgmwH+Ap/KYdGAEDjm/GGcdqRsBBAy7AQQPuLpY/XqpqcSEx5wIfpDWVPMgwmINBOcoIVziMDilJNTtEA44vzRg5bpbgkLK7rI3bioHqrADHKsAhC5LUl3bjEXA8a18P9XzK/MgWAX8GXq2rUx/wIAOhw5xzmRvSXAeYqK8ACpRXlK1MvvtAJN8lK/HVfREoyeZn/ptvGce4tVo1SW6aUbA+KimrUFU1a8B14NjlDFDmiDKMipGraypPUSevqnHv7iFszHd5ilz8akwzJS58ccZKVXwomZpnl1e2IW+qNaXLBhw/vpUNcOh1GDmujIMLWLXUXV7ZPn8FgIg8rwoo1m5oE6B/6wnvIdWVNWOyEUhZrbLPV2slQ0pUNvdDliVId4dmBsOATBQBlZ64rHiUkOz3tfjtjj8CBhx/85aVirdWJPQQj5rmOqXKAw24vP9owN2tj8pVVbucAabsJc1kgAYNZXy4mELKJDy73KkDf2XA8QUyjlGTgvJhtdsCOLh4TZL745thQ265WSxIcSPHdQFHKqOjgceWgIESFdwHZUYEDWvXtSlQ9pF4XJGhHPuKuQ/KU30CCshzlFdYl3DOABQrLbpp4rGfqixegAHH374tOa5UVZpDTi9Hqksl0VOFCDisj2qXBlzPOBrOQEKqsiOdl/fRyjtr1syX2mCghufO5Fs+kHRRYPWNHBQDvnOfPmMfRvzcNOOQjXrprUXb8az+8Gaoaj5HFovGv5n/IlUVwMEuqIlc+KCvheyDc035inON2IHyFUCSjOHNk/qKc1OU7xW9H1iWDOsrFu70g9BU6H0fB70COuv263rvzf/d21GpSmObUwcO5PDalJiqsUkflQHH9va2D3LStZTIOJFwzv9EpRl9mHSSvHavtwMXAztV+xBS6QPgmHxyLNCAxodPsw/mDTU1ljT5D1XVqiYBZgocdI6LpEPp0ez17XXc9/095j5o4NzU7g2uA0t7QIRzj/kkRol5UV+ZbFfHTzkRi3ayj9FLku5inigJLwDist37zvKJ+cW63nvzf/+OlYqZvkkTYKqLxD6Ww5//3d3l8J5xNJwBOAzIU3yP7vxi2bylGv7ccd/yQUv5qYdRp9qZmuHeqIhX+SQNnhuwujn+Sf36MGr1wVPTxVp6e0k7HpHjAIdGyWaxMDecMeCY1nE0lwsf9bVQgqzpzYj4AeBYkxCCpk5TX6msZeN581CijEtY/ZrxYaCBZckFDYzSBELLPmKeqm0Ae9TA+v3bEgEDjn8AOObDpsrGmQBHompEDg/HuGMZx8HvvI8jmE3Fwiu4rMosTwDCB0cnL7KLgj5kTKEjoCCzGJwSUKhfoHcgKlfV1VTsMposA453l+zCXXnpeqbAcVbkHOR4j46FclUaKyldkV1iTGm+V5SwlHGu6TqoLkl9lZfGQZ0nNgPW96GZH0Vmnkt9Na5mTgj0fv2uV+S5r5MTgfV3FsPtf3jX3n/Mwtlez+BzSdcZHOP534tVjTs+Hyzj8AbA6CKj1j37g9uWcVTUs7G5nq56oW2Xtk5qkl2QWeB3BGgYsapauFl660NlUDvT4qRmQug2B/FCqqmuuv6e+iC041n5voDj2krbXnqrB2KAE8DBjqdX/jnIBLNYgAfSXStdva/eD5WuTIat68FKlynPQ9jvMWLb3qssgw1Bo2wX8GAaIQCCvYlnIPuNaD5vt/7OUrj97Rg41IybCXAoFCZOoY8KjhEJXwN4eKmq4Vohy7jxwpwGAq1YtkFXeCcsI7wFFjSLDSWZhUDCmsc094HdKQQrHySHaSQz4HhfndcCjmWA42p2wDGtBiQ4jl41JDUj79t9jpLRvmaLr85zOA8zT0TCKwIdVVYe1inhaHTu402Czj+bBEh0JLxsFArqAOac++rcCKwr21/49ntWKmakwbaakbNYAMc9cYo2IA36b5fjNpwBusKvf3fWJsnlypqi4TXybZRd4HOkDwzjLlSS0i5zgLKFPjTYgfIBAneBgooPl6OsmiSA5Q9i4PjXa6GSEXAMqWMV4KBU1TtYsBLNUY7joPelhAX/AXHOtUFGimyXmfCASj37yIGCl2NL1Fcm3U16PyTdxbbd+nS4FnbsHA8aE7999hEw4Pi/70WlKjlTb2UEHMOoGqWq4v1nTYENqkZXVTVcBwYc3xNwiOPIM3BQiiqIp4C7AChwVDVjPOMukuwisue2MsXRcEPW8AIOgQUNgMsvCDg+yCbjMOCQVw6pcp92zhDkma5YfVX3vZI3WVmkOQACiY4FDV3peTG1TNRXXB8IIdhI1El0+V/V5340fABkGk9/skNFoPyeMo5/et+AA4PRrbWNQz3OQe9kwMEgNWX88GqNG1AvVTVEk1LVdQHH0psrkmPmxAxPH/pmw02ZKSa0kWSi4x88I2WUZRjFMDAh7kIlqcY6ZMOhHenbTYDj+opxHMvfu5odcMiVc7oOHP2WYR3pQI54ZzIMus/XNc1x+d1VfY2UV/R+bKlBlAbDPJlcorQalGoO8Bi7LPJcMt5G/qPxg+CIofG7pxiBsvjFhe/EwCG7n8yAA1WjAYfEKfr8abxebJAT6Wtj/SrFGOT6oY3j+BeAQxmHdPzHznEINMgY+oZFgKr0RAkCoBg4PRCKyi7M/M7I8MNxF/s9GZvyxylLggvHsQRwiO/IYg0JOM781mO24ymMHj9wJKUr+n02BBaUrIxEV/kKIt2mDooXy0sGksz9MJFEzH/ReY4HFtlqn3gjX/mPQFnvt4XvfGAZPz5xWzI6zGIhhz/7O4k4RcDRIE7xjKPhDETkuIDjLQGHpLiZA0cMFKSF1KtNIaUsgoY9eAt6LpBcWtcwZLFul8Xa1IVauSmJMsChCzgz4HhcwPGbAMe0SnNFk+Rmcbx7PkdcwoLnoHRlQ6Mk3S3PRcO8KHNSwsqf95Us25V5YF1iGxBlrYBKIpjwzeOeZ/5YbmDA8d2rEXDItSEz4EDVmACHTA8dOJqcfmZt3PzXOStV0cOxVclWVUUqSH2aPotBuAsyjLMxUOgNXldHxfXGrGSWm6qpVm6JHBbHsfjPAg6lzlmsIQHH1G88auRcYVzAoYs3N0vgsb0l231lGMw8j0BE3lfxvBZMFCl35s77StwH3lcDurYi76thy2Yj76tsNiK5OYcd8kLK4hTvKNPn/UfzLUaHWSzk8NO/jarxfnGKzxxvOAMGHC8KOJRxbCwCHCn3ccQZhjXqCRgoPVGWsqYuZRZkF2Qa1KWPU48PcFRFyhlwiKSj5prFGnps0oDDMo6JAWVhOQKOhgBYU7kUWBtyHsB9d+1q1DjI3POo5CkCHeUV/3KwyGbpPifroHFwBNv26UiFZySok+c5OEv3XoIBxwsAx7xJ4bMCDhOn/Pbjkapx6MPiFC9V3Ts/6hRWxvGiyjECDqtXq5ad5koyjAGR3Nb5C3+h3SDSWhq7oma+uInrGGWUm5L/fQg4pCvPYg0CHF99xDiO/kkBR45r8gADpSmyDwAE0FiVhHfxyor1fkCa3802gW16irjuAAgyWLJbxtYyOGr4QSmvuPbUPOorPxFA0bgoNSOl4urVZXPIzeLVDT0ZiVNMDj8sjrFB1WjA4Z3j0WnAYuLm9wGOFSM+Ucq0fSnLoLeC2jLqqH55R7HzY4wrrqf9Y/1WrsqT3t6AY56MYz4sqhGpnBVwPJoAx3ToPz2Ya+BovE5MfSVxRUkbkTsaWWtjhqXGqlvz56TzPGkgpOcHs0v4D1NeWd9HxKE19Hw1HqJ/n2EEDDhevBZlHCLKN9VXlcVCnNJM1egZR8MZMOB4ScAhVVX1jjT67QYOSlN6J0Jum0UEJKVKUfxsMkntAOulAt02L2tT3jhVdaxGwPFuKMsCIYs1CHD8+sNRxjEl4FB9vhNWor5CeYV1DeWrZVn0I+ONuLMUNiSHCYxdj9rI4GmmTAPQGLkUDY6C/2ATQ3bi4HGY4LbvPmVZ/Cy+eP0ecMgCKIuVqBrJOPpGxTFKkpss6xwn4+jpcWKMxq5bDcDRdq8q3qiqHzNTevqTU2Hi0VGTRRb0gdiORr3kpLb76xbAobnjAMedf8wQOB6ZDKcFHFy4/WcAjkK7Dy3Vx7OZ9er9KMumZOU9ZWy6vioqYVXVSIhtCY2FgEweuA82NAWyX12bcB4jKlvBr6Hoq3edO/eR6vXS7MEr11bDoqx+rFSlZsDNrIADVaPJ4aVqBDgaSpheqmo4WwYcMjlcVgNg5EnU5p2hsJkdnM36/vy5MC7gQEXVg+trjjKMhpDYtwAHUwC5cA04NB8gizX4yEQ4/SUyjulQnB4Kveoe76TFhiwZDsYwMKxLyDq4zuA/mCwJL2JNgzk4MLJdiHNEGmQgbHAmnxizr2TEzn0cz0ky4HjphjZuc6GiMnGWwDH19QZVo4xGk+XAkURCXykpmDuuSlWRO26bzexi4Jh4bCxc/toDBhwNT5/bb7cgfDUFkIxj4VvvhHJWwPHwRJj80kMRcJwdFi/UWcCx84RCnFcWqjaqFtNEOs+ZAQOoWN+HrNvzsMh+GfpFwynAAf9GBlKUEisqXeV4l5OHALb5NVQkwV004JgXcCwGhjllsVqpGjTTVBwAABHNSURBVJ3jaDgDdP/O/nDB+jjwIWr7yNi4VDWhGd+Xv3YhjD822vDs+f12S1PymMnBjmdBk8gYZZnFGgQ4vnA5Ao4ZAcdIfxZPm9pzRNkHM8/VeS7yHOUV/mglZSBlpLtqHMxD2Yrsl9JVItul23z6E6fNcRelX1YuxamdiA57YIBj6Qc3bePGpm1zsZzJEbRSNTpwNJwCA44fLZg7LjMYaOpq64rfkADG5a9fCBMdAhzMOK4tS15KxvG3b2cGHAMPjdeBY+DcSMcDR3ItwWsAIjZxMmkYxHVXpSxAZVP9Q+a8e9wZSLzRwesK4OB6hfeAk/OVXQQqN9bC0g9j4HjrTthU9p/FMnGKyeHvVzU6cDScgZLevHM/jjMOgIMdYLuX3oxWqgI4lHl0wtquAhxSBwk4bgMcb97J5GUDHBO/dknk+NkwcF7AIb+qE7Hgw8V/RH0fke8Vg6Ig0eklggfBvqTtGe9hgqfrlU5z5tOPPz4WptTvAXj4yi4CFflTLf/olmX8Zb33mAKYxRpEnPKVmGM0VeO9UrEDR8MZMOD4iYBDDYBlgUgqwKHns1KVZRxjuSbFk9BsM1JVRocGHN98KzvguBwBB+T44AOjJwc4ksDGX7eVfaCwqi4qxipbUboqMTRKknDjPxR/MpTjaiCkZIW6alzc3LnPnAmjsmjPU5/RjnCeuB8NOH4CcMyH8pWFDIFD4pQvN4hTGlSNDhwNl1lJO735n9yxBkAG9uA1lMYi5adURcmqE96A2xsqn8h2BI5j/q8FHG9klHEAHL9y0TiOwQsCDhkdnsRF17n1fgg8rPPcso/GuR8V6ynarh0PeZ50muNucOELM3I5GL3Xb3QST0jOjgmfuOWfzEYZB8BxO6OMA47xyw9Zxr9T1eheVQ0XiQHHywIOqaoik7p0RjQaxyFV1YRS/zz3byShMeAoARzzAo43w/qVjIDj0tg94Hhw7MQCRxLn5OuWgNrI81nN/aBxUJsYLNz5XdJ9fhwk+uhDw+HC52csYy6Yd5Fkgr5Sj0AV4HgZ4JgP668BHOupPydPYOKULyJOORuKiFMaVI0+OrbhFGCPPf/yoqmqKBXUtPNLY9G/ccmAQxmHdeaqkJzjtV0TWateDsjx+W8AHAuZvNqBi2Nh/HMP2oU7qO9xyO2GZdnHJtmHSoTi2egpWr2uBkJZ4lDGovv8OBoHmWM+o1IVGfPAaZ/nkdW1iE/cioCD99/6a7cDc8ezWIOIUxqBo0HVeCJLVVYzVl14U2ogOnTRpNuEvD3cVQ04fr5oDYCla7KHSBM4vnreyMYegKNJRy4fDkyVw1oVCaTp6/F/yBhnIHG3yrUo4/jGG6H0ejbAUQQ4PvugdY4PqmzVLcBR/1CISXTAY+1mBBqrH0Td59iZJNlHVg2EkeOB1FXKlLH7p1HQV/oRMOD42ZyVqkqvZgcckarxkm3cdqoaDThOmslhTWBRXlCN+JaQ+oNVkw/OfHw6jJwbbnmWmeZ2W8BBqaoka+zUgEM14otfOW8pf92bapdXtinwq8p7HwDpV2mgV52bx2Gvfle7X3o5SJXn/uJKdsCh8tT4Zy8YxzEEcMhaveuWwAPrEiS6AAiSXVRXKxpdS2m1upSB/X8c9CFNDkxkuRhyYtLpK/0IVOdKYfXnc5ZxlF6ZD7W5bDKOATjGz6NqnJaq8cPilI4HjkTWWFNXLgqUmizAK6hTBBprNwQcV9fCsOZaPPr1h8Lk4xMtzzINWbd/EWUczFSgJJDGohP34q8DHGPmlEu5are1ocl7q9Jw8zXc1QhZ2YoPTjGfQ5PbMmzEMuAQiNWBQ+lyFqv44GgY+/QFu3CHRNR1JXA0BHpbfR30d9B9Tuc5ZSuu2aj/Q93njK01pr3hTm38FhfnMx+fNDk542exIfGVfgQMOAQYvP9KP58PGwKSLJYBx682iFPkV5Wsji5V8SYhTa/ItmH1+pq6cFfD8rvLkjSWpImn1KSGKr3RzjxzOjzzX58M08+dSY5716+8CRdeiTKOtQ9K6QHHwyPhwS+fi4BDxmGUq3Zb6zqGhddF1r+9rMxpzcBi+qOqMT86btlTf0Y7PmIMQc6FO/tnr4dSVsAhJdXYLz1gqfKwfKsKmsnRzcswIT4XNKda9iFeDu4DIAFQUF4Z/5FCoAw4np9UiXXUjBAdOFII8i4PiTP1ah045sKGOI8s1oDEKeMCDjKOwQsfFqd0JHAkrqOoTMp3KkrZZVut8YrL7+nfOyuaAU2ZKTKQYzd/7pNnw0f/97Nh5hNnW8a7PA9wLBk5vvp+ysDxJYADk8PmFg4lHcfsyyoPvXw7zP/0tn0gnHluKkw9NRkmH5sII+flH2TzO+7ZHbc8wEP+0YBDBHkdOFRnzWIVBRyjnwI4psOwLNYZ5uTrXgTgOOj1wDBx4RdLBiAAyrZkvWksZt5PCTjIlM123TOONMJ832NuABzarK1KDl96OWPg+FyccSBOaZDDd6SqinJUSXzE0jvLYU4fqMvvys1WAAIfwN/MMA7XUW3REuB4/vc/sj/geBXgWNWbUcAh++s0Fu64F76IrFEo3qLkBHDM/fx2mP3xfLj50i2payoa+alZHhdHwtSzU+HMs7I9fmZKMz0G03iZ9cdkB0u5ClXH7J+8FiDoslhFNf2Nfup8lHEAHKcdOBrjDqDTOIhVzry4uZV31LiaYse5AcdHo4xj9MKwTQ9sfD3+fToR2JD8FuBg47YmddWGyvBZrHuqRmUcFz8sTsl1xmGpuT60KJPUJAeF9DaHUXZZ4i+W3lqy3fjatTX7PZnIhxYCJKmQZv7N2QBwkHm0WmQcTGxjAuDquyWbm9Dq9of9G6ZxdeBgeJMUU7utkkiw+Z8vhFs/mgs3XrgZVq+u2s2QQlKumhJonP3YdBh/aMxGzsKBJOqr3R7vsL8z4NjajjIOAcfaKxkCxycBDmUcjwMc6QLkYeNz3PczNeDPYhn59fRk5INkHM9N2IZnVG65jJ31lX4EDDgkgTfgUCPghvo6slitVI0GHNvb27kc5GSyWpVIKlJILb+vD3MR3asCCUpTcBik6VV5KCG5ZfdlxODOiAo8zgEcf/Dc3sChHT3AsSzLkZV316yGvPPh2vGzAQcduCpVFfiw1xyE3RYqr/lXBBw/nAvXX7gRVqUQY/X295iiZejsUBh/eDycVunq7PNnLBMpqEmnt2FS126Pe+DfwSUJwLlwb/0RwDF/4Ic4zB365U81GgPHiIbK9Msvx9f9EQA4IjXgisbVpicjx2Y9Ag5lgrIdYUKgr/QjwCyctRg4VmU9siHvqixWsYWqMVcZBx9OZvyG9FAlp6rURDiIlkQGwV+siiAGOACNmvgNOmz3XACHMo3n/4CMY6ZlDwQmc4tXlHFokNOKOnYhH9NY9zpwVTeU02hT4JjXB8Ird5RxzIbr37th0uLG19On+w5IZQV4nP3YmTCpLGR4ZkjNWVJeiTgHQNpiaYLThcAD4Lj5R6/a18bXkdb3BhyfOGcZx8gTUw4cTQKdlYwc4Dj9EUk0VWIFOIoqm/pKPwIGHDI3xPJnVWaH2QGHxCmfiVWND31Y1WgcB4duHzDpx6DlMyA1BCzIKJZEchtYqDxjCin9Hh07pSpuR1kKoNnPmgE4KFUp82j1QVqWKgXgWBbHsax6MTYPaSycRh9IrBvIEJplHADHa3fCrEpV17573VRjja8H/sbmRQskAIvRB0cs+0B2fFrk+aDGrbZqMGx8rD2/V6jXXpkLN/+PgIOMY3+h3/NhW90A4Bj52IwBx+iTAo4zQ61u3rV/MzWgZORseNKUkRtwPDtumfLYpREHjoyuOIaolQw45gUcN0NVEv0sFuKUsU/Hqkbk8A3iFMs4jESmIznjFTU2qfdCpSaTFy5VAxJU5LQQ3zTvrUlmu6Gso2kpah+vGTXVR3//Wcs8+LBtBpLIGRffJOMQcKhclSpw/FpUquq30lKTUpXJcReN47j2HQGHsq5dF1yOus/JPiYEGJOPqXz1xKQkk8PWMU9JIXoeqa+OcJot4/hDMo65bIBDDZt14HjqjAPHric/WC9HFjLywelimBRwMBZg7LKAQ3brvtKPgAGHBjjx/lvVQKfqjahknfYzt1I1HlupCrDCNqFEd7e4C5RRcBj8jL20WSrEZLjNZYYpP+Sa+cR0eO5/RcDRijyGM1nUro2dmwGHZkKnsUYvDYfzv3rWUn6b5SzOYrdF9/vClQg4rv7TtebAwZ0FCJSm6OZFolucKIbRCyNh4gkByePynHlUGYiyklYZ126vofF3ZBo3DTjIOHQ+Dn9KGh+26ff9MlYbfv6sdOT697SAQ3PHfd0fgfVYRr6s63aV/iN1k6exBgAOzeNARj7+0KgDRxpB3uUxNzR9s1QHjhuhqomAWax7qsZYDt8gTslEjgtImHRQElmIbFNICTT4YLTGPWUWlKbWlIJBhHObdq6zsht57n8+YxlHb0F1/yYNdwDH0tsAhzKONzR3XBlIGmsE4PgVgENvPmnhKTfttojPnTeXRI7PBoADcN3PIvsAIBm4YxmIwGPqyUkrZQ0o3QRcAJlmjYfNnsOA449FjmvnEyRGMPBoduM2/N6A47mzUanq2emAtbOv+yNg/UevxTLy99KTkQ+ciYADd+fxh2V0OOkZx/1no/2/YWxz6V316SjTX3kpS+BIxCln71M1ZqKqspIUVgkKAOR21OEtBcjNktmDVNWsV8O0TX5INjKTD6U2LiSrH/kfTxvHYQ13vbvv8LEqWXpboCHgWLqi3pC0gEPE4vnPTVvGURxvARzqTVmU5BhV1Qffvrpv4KjPjBYgARJkGsPnhgQi42H6+Ui+i3UJiq6DrDX1b9xCjivgoK8j7JNjOshzNN62/6wyjufkMSY57ijAoZ993R+BcqwGtP4jdZCnJeoAOCaelNW9yHFmcjhw3H8u0vhNbakS1gUc9FGtvHQ9VK9lk3G0UjWmUqqKuAu504rIBhA2NAQIcFgX2buqg4a7wKSNn7kNpag0F1LVZ/97BBx9csht1jdRkYoKUpxSlQGHVFZprBEBx7lfBjiUcUiZQhPgbgugXZTdCMDx/j8KOMT7HGZZCUuZzdjFUQGH1FcizyHSaRy0znPFJHLebf3oBhx/+rrtfO5yzlIGjoLkxsMCDCwPRpV5OHDsfn5QA94xUUe6asCBqQg4kJFPaDTAwOQ976LdX5n/th0RMOB4X1ZKAo7lFwGO/VUejvrcBhwfj1WNiFMa5PA2yIm6dzPC+MBPrmTBuAscHcVZUIIiy1hXM1vSc2GlKlkjJNnFftVRB34t8R34sHz2vz2ljGOmZd+EAYcADX5jUf0czEFIY41cHArnPqudv3ZuAyIYmwOHOBd5b9EA+P63PgjLApHDrKR0hXwX7gPSfOIREegqX02p+5xshBLeXqWrNXWvzgo42PncVX+NlasO84L2eZ+CSlPDz5xRxnE2jH00Giazz7t21c0SNSAZx4oy5tQyDgHH+BMCDQMOXbtqRPWVfgRq6lUrCzh43y2/eC1Ur2YEHOekavz47qrGo2UcVuaObA8SMDB3WrgL8RVkFhj0memgmljILtImVHc7jRgDPgNwSJZrDXJN5K9VWYwsv0fGEQPHfErAwUCczzIQR28+7dr61D2+26pIZbYkJZVlHN96Xx3thwOODz22SHSyjFFlHzQO0lV/WhnIsHb3xKbVMuD48ytRqUqlx7vqJk9zARxDIsXJOMaen7EpZGk+X6c+tqkB34jVgABHSjLy4lS/jTumVDXJpseBI5NLxoBDYAHHsfzCtVDJDDikatT7zkrFiFMa5PBHAo6kYa8sbgCQoLsbArckOxDKLMhoN9TIl/ReQJAfxwI4npY7Ln0cdVnqLi8E4FiRYRylqsVXl0M5TeD49BnTww+2mKQGcCzL8ZeM472/AziWdnnVB/8VDYc0Hg7LJPG0nIMp5Z1XcySZSKvFAKfZGDi2q+rW32nx0urOh/hbQRfq0NNTduGOAxzaAfm6PwKRjFzlVVnlwM+lBhynE+AYNaUepStf6UdgUx58ZZWnKFUt/cvVUJGhaxbLxCnK9Mn4R5X5N4pT/j8AAAD///QWZDMAAEAASURBVO29iXcc2XXm+Yg9kdhXLlXcqkgWi1XaZXmXfdSyrHa73V5k2e0zZ/aev6mnZ6Zn6ZkeT7vdlj22LMuy2lpa1rglS6qdRRb3BcS+ZCYSG+f73chIgllAIhIZEYhMvHeIAyKRiIy48eJ979773e+e2N7eftrR0eGijKdPn7qn20/d1vq221zbdOXVDbexsuEKM0W3cmfVLd9esa/ik5LbKm66nc2dKIdN/D0Tr4+7q39wxZ385JTrHexxnT2de35meXlD17Hmlt9fdQtvLbvS7Pqe72v2xfyZfjf9mXE3cmnI5cZ7XVeua89Dcj7Ld1fd4x88cbe+etstvb+05/sO+2LfWJ8bfnnYnfzUlDv/uRfdyIXhuocqvDvvZv7kPbf25qzbWd9yT7eSvb/dEzmXuzLuBl6bdMMfP+n6Tg7UPb/j+sv1hbJburGi+aFnUF/r8+VETNE71uOGLw664UuDbvTKsM3dRD7IH/Q5C2ytlF3pwao9d0vfuefW7yw/9/ukfuiezrv8a1NuUM/f4LVJ1zvVX/2oEwKDp9WfDvjPjhaKrdKWKwgYFrWILd1adqta2AAKAGRDYLJZ2HTb5W0DmKc7kQ99wCc392uA45XfvyzgmHa9Qz2uq3d/4Fi9V9ADuOIW3hRwPEkQOH4K4BjUw9fnuvr3AQ7ZdOXemoBjxt3689tm8+Ys8fxf9472uuGXBBwC1AufP+tGLh4AHO8JOL5yPQCO0qZ7mvDGoHtcwHF5TMAx5YY/IeA45YHj+TsY/GTAcVOgAXi8lyBwjPa4oYsDtuEx4Jjo3et0/GsxW2BLG/TSwwpwfOtuesAxBXAINCpfvfo5HAYcYMeJEyfC1z70HS9je3PblZfKbvWBFtZbWlivL7rlD1bc6v1Ve/3plryRjABF7QVMvDburvwewDHl+oa1w+/bGzgAvwA4Vt38G0vJAcfpnJv6dMXjmOxz3XWAY/WBgOM/P3Ef/Pktt3g9Xo/DgOPCkJsGOH7lnBsViNQbBYDjzyrAoQ1CKsDxMsAhj+OTp1zfaQ8ce92f9cWynsVV8ziW3ltx63MJeRwCjsELAo6XB93YVXkcE317nY5/LWYLABzrj9bc6ptP3BLAcTslj0MeRv7VSXv+hl5XtEYeSDgieRxbCksAGgvyMh5895FAY8mtL6y7DV3QVnHLQlLmuGTDwQivrfp9/JqA48uXDDhy2mV39e29w99Y2RQQBh6HAcdMQh4HwPGpcXP5+ydzrju/z/nIvqsPCwYcN/8M4FisXlMc/+kd6XVD5wfNE7vwBQGHwlb1RuH6vHvyZ++bx7ENcGxs13t707/rGpPH8fKoeRwjn/LAsZ9B1xcV0rxFmGrFLb6bHHD0jAAceQOO8asjLqdNjx/JW2BrTcDxeM2eu8X/eCc94Jjsd/2vTsjjmHJDH6kBjp2dHYtW1ctzABKLN5bczI9m3f1vPXRL8jR25IHgibTCGL825q586ZKbViw/N6od/j45BQMOeVTLN+Rx/HjRFRMEjslPyuPQzq1/uh5wbLq1RwIOhapu/uktt/BeAsBxbtA8jou/CnCM1L2dhesL7sn/WwEOTeZUgOMiwDHpRj4t4DgzWPf8jusvy0sBcJDjWHxnOTGPo2ek2w2ey2vDM+TGXx1x/R44UplyAEd5plAFjtKteCMP+11EN8BxdSLw+D+qMH+tx3FQqGpZoak737zvZn4oV0kAUppfD8JSrYEbmuRj7vKXXlYSeNrllBDeFzhWtVA/KFqi0YDjcUIex6mcm/zkmBLTQy4PcAzs43EoZ7T2uOBmFKq68acfuIV3YwaOYe0gz+JxTLmLXzzvRi8dDByzf37Drb71xG3LG3qqXFaSo0sg31cBjtGfOu2BYx9jG3DcXrPcnAHHbDKhqp7hEDgG3fi1UQ8c+9yPuF/ekndfflIBjr+57VIDjol+l7s6bjmOYYBjFzmlbo6DnAXMqLm35931P77pZv5h1pUVTyVBnuXR0XXCdSoBDlupO9/txq+OufNfOGsA0jukUNU+yfENgONR0Zgpcz+Sx/G4lMhl9gMcHx+z5Hj+JMDRvefnbCoMWJovmd0JVc2/veC2FR6Ky9PrEVFg8MUBA9SX/nEE4Hh/wc3+xY0gVCWmx04awHFhxEJVo5/xwLHnJNGLBhywAeUpLybIBjTgOIvHUQGOKR+q2u+exPk6YeHybNFyHIvfSBM4QlajyCkfn36O1Vg3xwE7CsotIarrf3TDzb0xH+vCFadxq8dSjp9kc065g4EXlMgTxXTsyqibUJ4jf7LfdXZ3uBMdexMBYIUVHpVs5zb3DwkCh8Bi4uOjxk7JC0R69gEOQGJDk2ZOgAEdd/Yn86JarscG3ADHwBmAY8q99GsX3NjlAzwOgOOrNwUc8jiWUwCOEXkcBhyTbvQzZ1zfCz5UVZ3nu/4T0MiVmxOryoAjITYgwDFwtl8hVoWqXpPH4YFj111I7r/bKm0AOKDBL3zjlit9kFKoClbjbjr8LlZjXeAg+b1qMfYnFmNfjDnG3rSptf7DBusQGEBp7e7vtt17bqzX5U/ltZseNIrpoAAkP0UuYe+dfXge1KYU5GVAx50FOAQiSYx+gONjoxYrHgA4Bvc+r50Kmw3K86O/n3HzClWtiZ5bnA3oz5AWjMl2yJBhj2pa8mfyFqp6+dcBjtG6l1u8EQDHqiawAYc+P8nRBXCcG7YY6+jPABxDSX5cyx7bgEM0cpLjSdLIDThe6DePY+J1gCPXsjZrpRM34FDkwYDj6wBHvCHr/WxhdPhLFTr8J5+nw9cFjuJcSYvVgrF67n/rgVu5vbrfZxzJ63gOJxSWgh00qN3okBK91CIMnM5bLqNXMXzCQOQ0CF11dNUvdDTgmAE4Vt3sDxeSAw7lNcY/iscxqB1//77AQYUNwEAxJZRLqLmLN5ctSU7YqvC46HaaCF0BWAAspIFLv37RPLN6N7J4Y9HNfg2PY9ZtLa5bEWC99zf7uy5Rp3urwPGCy73ogWMvm5Z30cgXEqSR9wxpvryQM0/ZgEPz2I/kLbCt1MDGQgAc83/1gSvdTAk4YDUacHyYDl8XOFiYZn48K+CYcY++P+PW7q8lb6U6n3Cis+Jd7MpfEG5h50OSd/j8kIWm8tP95l109tQHitqP2iyouFHAwc5t9gdamBPyOHLTfW78I0GoahDg0AMZZQQ7S1W1i6Aw9+a8gHzFqtvLyjeEtOgoxwnfA6jmT/UbHffSb0QADk3Y2a99UAGOkttJONfVCXAILKADjv6cB47wvtV+T4tG3g1wnBFwKFQ1qY0PjEA/kreAAYc2aoSIDTi0gUtjGB3+pV2sxtPPQsXRgEOSF4/+7vHRAofCUngNvVpMqH0gfzGkUBReBkABgLCD7lE4qrO3S96FvJF9chn7GR3gIAxkHsd/nneFh8mEqgw4Xh+xndvgC/nIwAFRgYQ5QFGcWzd5F/JOUKVX761a9b5rIGwFcPTLdrCqLv2zl9z4KweEqgQcc3KVmcCbcp0TBw4RGQAO6LhjP/eiy531HsdeczegkYsNqA3P/E8WXSkhGnm3nq9+A45BAceYcoYeOPa6H3G/tq2Q8OYSwDHr5v/ypsPzT2OErEYqx0dqWI0n6mlVoUH15CdzFqp69L1HKo5LyePYnbswZlTAjgI0kOhgsSNvQQ5jSJ4GRX3kORoFilrjsygXpU+Fx/Hk7xMEDiUVxww4BnUNeZNBqT2Xej+HuY+CGGAkzqnvWL65ZDUfMGzM+5A8zEGV/OR88NaoHL/8mwIOsc/qjaJiq3N/DXDMuk2FMXcUQktydAIcqt0w4PgFgGM4yY9r2WMbGxAauUKsQf1RMhue7sEuByMQjbXJj3ngSGvC7JQFHCKjkFucFzmlKJJKGsOAYx9W4wkKAPeTGyk8KbpZ7WgR2XuoinF2tWkMy10oLAVQmGexK3fRJ5BAqBCqbZgQJyRl17A3WSryKRv9VTt5HkADDj2MSYwcwPHasCXHhwAO5WIaGWHug50I8W28JKRfkCQB6FfvrpkIJayseiNkn+FxXP7tlyMAx5KbF6uDCbwplkfiwKH73CP3GOAY/8WzLqd8hx8ftkBAIw9CrEnSyKk3ygEcKlyd+rhYivq/H8lbANr75mrZNmxzqqNKDThETukVcOBx1LIa64aqWJBm31JyXMDx4NsPTNAwCTOFQEEoCvmNngHCTspdEJKq5C6GpalESKpX7vJ+6rbNnhs79ZKURaE1znxfHkeCwDF6bdgewKFzAw0DR+11birXQFHmsjRsZn80Z5X93Lt1xUU3VZti7CsxtGo9EIAXD47CyCsAhwol642iKlbnxSO3UJWAA355kqMT4BAFEJHD8c964NjP1mnRyA04lNeA1DH1CQ8c+92PuF+HAINeFVpVBhxScEhjwGp8Rk4543K7WI0GHPtVjhur6p1FA477fytW1Z2VRM7X6LTyIACKoQtBknv4XAAUPQpXkLsgrII4IcyoZkNS+10EhY2mNCqPY+b7c8rpJORxTPY6gIPK8WGAQxpAzQwLXWlywQoDLCA1LIkBt/TBsulbFfUzqsW1Mvd4bUirU8eBJMtEFOD4JsAhj0MSCIkDBxsIAw55HJ8953Lnvcex1zxJiw3Ipo78HJIj05LM8R7HXncj/tcMOAob9tzNSiuumBZwQE5ReBiPf/Rnnyen1AUOdrHzip/jcdyT5AgsnjgGYSUYUixcPQrT9IlOSwgKaiiexbCE94aUCEUeJI7cRdRz3ipta+GteBzfSw44+gAOqYuyc+NamwWO6vVB31Ucy9hXou4iFUPtzYrqQMhXoTnGImMhLL0XsUcUcgGOV35XwKEiyXqjdFseh0TWLFQlKZRtaegkOTq1WeiWlPOAegGM/7KAQ25zHCHJJM/5KI6dFhuwC+BQmJV5a8Bx+ll/hqO47uPymegCskljwwZwoFKdxqiyGq9VWI27yCl1Q1UlxA2liAtw3P3GPVuI4jhhvAZAI696C3plIOc9qApmwiZWd8GCoTAKIak0FwoaVJFchp3y+HuzKrZLxuPoUx+D0auiDuNxyMPqlVx1bEOAsC32Fd7TBuJoagYFqWH+HSXRlQNZUhKd6nPCViFLDeC4+uXLDvn5eqOkUNj8395xa2/Nug3JPKNXleTo0BzpGs1J2nnCTfyjC65f1EA2HEl5nEleS5LHNjageuIYG/AHyZE6AA7mrgHHpyV+54EjydtaPTaRgm31vzHg+Mr19IADcorCU0ZO+fnnWY11gYOwBwVnAMedrws4FPqIY3Qq5ETie0z0zxc/e0Y7XRgaoqWKHmpAEceHHOIYBhxaaJek+fP4uwBH4RBHOfhP7OG7IuDA41BHNbytJAbeBwBRUsIf0KCHCkKJAAneB4258DqmPjbprqrR1eRBwKHOY/PqB8AE3lBjmaSB44Q2Dh3aROBpQAfMXRxxXYPSGtNrHTpvvFFNmCRM11LHDGnkaFUlyQbs6u+sAIdCVQCHapD8SN4CdNqkloMcxyzA8W5KHkfIapTHPwarcRc5pS6ral09OOjyZ8DxtbvarcYDHGH9AAvWBcQHBSAsYAdVdid9i0yba3nTkuOPAI67CQGH2sWOXBFoyOMYeUnAIYmUpAbgsV3eMe8DsCD/wWbgyY8VilM4i90MSfFXf/+Km5T3V2+UBBwL375nwFFWK8ttMT0SHaYMIO+UPJfCmEiO9J1XHwjVdtANsEu1O+Z9HHPweMYGrNDIHyRDxwU4ejVX2fCc/Iwa/HjgSHT6hwc34BAllw3bk//wXnrAUYfVWN/jEHd4Wb3EZ1Q5fusv72hBjQc4QnE96gde/icHi+uFBkz6eyDquGl1HI++MysWWXLAgcIofHiojUkCx26bkdsgSb4iui60XXrE41VSSBlF5LB0V1pIVeBYcdsqRExjnIAQAeNOPcj7zlWAQyBCD2RkSciFdBDW7GxMKSCNc0/jMwI2oGjk8jiSZAN25WqAQ7pVfiRvgafbO6ZETW7RgOOdueQ/VJ9QZTUqx2Gsxl3kFAMO1XK4vRo5ER9fVu3GjEJVt/7idmw9r01cT/kN6gdMXE/qtVkYpkYr+iqx4kfffpIYcLBrC4BjUD0wtHtO0OPYbVfCVtY3XrTjdd3boii1a+owSL5p6iMTRnfe/f7a/wMci9+9by5z+V56wEE4ynIbAgdAwsJV9OoQ4OWl3tknD6RHSp6duWjSLbXX1eo/k88KaOQBG7CQEBuwE+BQPo4Nz6mflsfhgSOVqUMbBRLkeBwz//5dV0gLOMRq7FYPDuo4xn/peVZjXY/DxNMS6HmNdAEMKpO6+KcHaySlcnf0IdsbhHTkcaiO4+G3BBx3kvE4esd6FKZSqEoPIMCRU+jqKIbx/8W2Yphsi3JM9UZJYLH4vQeawE9cWWGrLXmkRzHwQEic92hS918Zc/1q9oQcSY8az5j30b13T/mjONc0PrPKBhSpY+bvkmMDWm5SwMGm59TPTEq94VkP6jSu87h+Bhu+pwop89wBHGtvp+RxABzq+mcFuGI19itMHA7LcfDDXklpk1Wn57U8Dut5LWpnHMNyHOqNcfKT0w5xvYM0kuL4zCjHADgI5eBxPPzWTLLAoaQ4D+DoleEjAw7zPsQkY4Q1MvXstE51+t8BHLPqe7zktqSfcySj4oGQIMedRpYk/8q461d/ciZ3twqXjtOA1AGNfFnz1tiASXkckFrUPjYAjimTyzlOdj6qazXgULjKPI5/9056wCHv/hlwnHf9IqmEwzyO/QoA2ZHSuvSxWpfe/Ipal8YJHA2I64Unm/R3ExGsAMeDv00QOLRrGxJwkGQ04BDFsRXG+kPVhvxA0jMCjtL7C25LUs9ZGIEYm3pgv6zeAYSulDgHUDoFLIS42p15lRaNvLOvQ3VX3UGo6mc9cKQ292FHKlwFcDwGOESHT2PAaKTvOOrU45/bAzj2Owm6z1E4BnDc+JObsfW8pgo8J3E900iKIK633/nF/boBh+L/1HEYcNxOKFRlwDFgrKqxV+RxtAhw0Pd49Q2RBuQyFzR5N6VlloUBbdeKBTXJ+14cVr3HiMtfHleP5HwAHgpttfMIaeR4HI/+U3I08s7eADjwOE7/3LT3ONKaVCheCzzYsD3+w7fTAw4a4+mZIlQ18TnVUYkOH466dFzCNgVpHhGqel89xxdURBbHMOkCyYsQqrr8WwerssbxmVGOYcChRCN8+AffnFGlfDJqwCQYB8+rra0ewDFVkOcmWiO0somciRRy2fms/H8PHZTcLI0OJrqS5CTLLWlO3kM/Q+ft1O86yH20YdlHlUauDY/RyBOqPwI46MnBvDXgUP9xP1KygMCD5+7RH75l39P41PB5MuD4PMDxjMRUl1Vl/HD1XQA46DlO17k4honriVqJxxFFXC+Oz4xyjDDmbx4HwHErGeDokTbV4Pm8PYDjV0UvnWwN4AhaWFZ6H0te3XofsxvKyICOC23XmFfo7ChklVO1OQWE/QITRNvSVCJIyywhjdzYgN95klj9UQfAIWl1FA/O/II8Dg8cad1i+5wAOORxCEDwQJIeptygjRfAMfn5i6bcEH5mXVaV0fyUdHv8gxn33v/zvpuXUm4cw8T1QlXW33n5QHG9OD4zyjEMOCRhjMdx/xuPEwSObnvoYFWNX9Oi1iLAgUeG9EHh3Tl1Irtl0gc0c6JAKVOjkjwP+wnklDDHzSZ01TXUJ++DqnPqPtrD/TA2oNHI5XEkSCPvUPsCFHIJVQEcKDv7kZ4FyG08IlQVAkfC2GHAofaxBhy/UgMcNHJiF7YXqyqInQIcT9y7//d1a1cah5kMOMTDp9f1K6iySnIkC8NUZgUcyKobcHyQkMehBOOAdmu4/OPXxASScFwrjIDdIQmTO0tu8TuqIH9rLtCsSljs8FC20ZxmoevIq3eLRDR7yH+cHRb7akIV6IOum8JBJc/bYRhwKKxMjiNJNiD27Mp3at7K4/hFDxxpzx2Aw5LjyjGSLG+k2+dhzhXWIpsvA44vvGSsxfA4dT2O0AXG43jn/3rP0aY0jhGqslI5fvXLB6uyxvGZUY7BzUAgkFDVvb9+5FaSBI4X++0BHH+tdYAjtGFZhYOrmsQFAQfFSBuSWKe61YlvnsURal4RugI46CTYo6rzbgFKp4DF2FcxdJA8qmtnzlZp5AmyAa39AcBBqOqzAg7l6fxIzwJrb4fAMRsAR8LPmwHHcAU4vtgIcFDXIEouwPH2//mem5VMRRwjFDk04Pi9g8X14vjMKMewymoDjlV37+uPJOqYTPK3RwnGvAHHoNSBAY7W6qSG4NqGcl/IOy+pkpyWsjva8T5VdWsmR0Xzyh4E6Vt1y/2meBDPI6eEHyGsbokndig/0oojLTYgwEH1OJ7yC7900gNHypOFwr/HfyQ6rkJVFh5OGjh6VSclz9w8DgFH/tKzyFDdnuPhhISO+9a/ecfNShgvjoGcN3pV02JVvYoq6wHienF8ZpRjGHDI66Dn+N2/EnDcTBA4Xgh6NxtwqKtaK40QYNdVSb789w8NQMpSy92SKGYaE7opWymtQewW8OhVW1qAAxYWulfdcss7VS1rulcKdbUKA6vKBlSo6sF/TI4N2NF1ogIcQ+6FX/bA0dQ8PMQfG3BQOf6WQlXa4DrCVQkOI5qIkYjkyOQ/fvl54FDx376fHrKMDDj+93fckx/FU3hCn41uFWjBqnr1Dw5WZU3QNs8dGlMQroKdcvdrDxMDDiiN+dNBC87Jj0oyo8WAg9gqtqKdJWGqwo0Ft6LCQPp1ILX+VGKKWR5V3StRdAEKuOok0HMXVAMiIIHCa8KK8lRaYdhzqiZkVTZgQjRyAw5Vj5Mcf/GXT6lbpw9VpTk/1hQWnvljAQceh54xy3MkeAJWH6V1mtbNU78m4Li8y+MAODT2TI6HLUln5HG88b++7Z78QzzAwY6OIkAaCF0DOCSwl4nBgij3jwfwDsAhdlUSA0pjvwHHkAM48idby+MIbWKqnZrA66rnWP3RjCveXDQg2ZQUCaGrHYU606ANhudzqO/yLDrl/SJbAnjkJVvSp/9D3QVU8I4BkSyPKhtQG577f5McG/AEHocoueQ4XvycB4605wT5xBnJqpNffCoST9JsxqCwFuCYdFO/funDwLGfASwksfVUleMz7o3/5S0388OYgEOxUprx4HFc+y9eMWXW/c4h9dcFHgYcX31gMtVJfL4Bx6mc7dymPqbezS0KHIACc2Rb1fabiyVXliQJBYKlW+oyKO9jS/0/+H3WweOE5mOHlHW7tLsihIXqbr8qz/vUuKZXrWuZq1keVTagNjxJ0sjx1KjloBUAwEETMj/SswANnGb+5D3zOHbWk6fBnxBlHdkRgGMa4JCcTzischyPYy9Zdb1sDz4ex4//pzdNXj38w2a+GztDcebpT0271wCOj2bE46hcVBU4tINLYsCFzwk4eACnPi7g0P9behg2KHQlT6Mo6XWAoyTvo6z2sijobheC8FXSrnWzNrQQFvk3gUW/EoEUDtI8qlehrCxrXwVsQEJVInUkyAY04Og+oQ3PkDv7jzxwNDvfIv09zxYdANXICeCY/epNq6NKxeNgQ6VwrgHHP738PHBYoGqfUBUXBnjMiFX14//xTavniIM7TKe/TgEHHsdr/+XV7AGH6jju4HEAHLr+uIcBx3SfPYDTn2gD4MBAshM9A6guByxgXZE8Z7Kv31t2m/qZYsFMD/LhymuY6i65D+U6ek+r+pwQlnZbvWJiMW+zFroyry+kkYsNmBSNHNucEHCw4Tn7+dNuWN0r/UjQAoCGFuBt1UmVpQtHjmPpu/csl2gMxqST41qnIZKQ45j+DQGHFKjDUVcdN3wTBYABcMwEC2mTiykPHrFjchyvAxxqIZulQSe1O38JcKzEcr2119aVl8ch4OABnP6kgON0e3VSsx2SQKL8WKGr6wsqGFx2G/r/pkJXeB9WbS6QyboHYuwrgccz7SvVf+hn6zqYIe2rIKRM/VGFRp4QG9Ap1YPXQQHguV/xwFH7XDf9s0DC7qU2ATwjbMK2lSu0MLBUyosK/xZFgd+cpW6KnVqTC/EBJ8w63SFKrnkcv3nlw8BxwN9biIpQFeyqIGZ90F/U/z2TD2aVAcd//Wo2geNrD6wSN47rrbWGAcckvZuHFK5rP+Cw3Icm9rbisLCsEEekaHD9/kqQQCeEpdeI02Z5WOhK8zTQvuoz7as+Ke/S8yOn/Ad9P7KgfcUcZSFhw5MkGxB6cgAcg+7cF854jyPmyRuSTTZFa4dwwldZz8zmXNFtrWwYi3F7tWxtZC0UlCxu6F4H2m/QcacBjqvPUgp1K8dDu8z8kByHkuPyPJigtpiGvzzEdyYfeQ7UcV//b1510x/PlsdB/cYdAQc7OEP2mG8QIo99IXB8etwNtJnHUTslAIhNha/W5XWQ+8ADIYy1pfAVuyrjpNf+UZZ+RpJHYRrTvlLf5Zx0r/Lq/dGnMJaxr5RY5/dHVveh+ckzmTQb0IBD1wkdF+DAY/ajCQtU7tuOmIkW4tUma2t53W3YJqsCHAKPraVSwKLCy0hxhBsn8zh+6xU3cBjg+IlYVeZxiGXVNHBo8gEcVI5/5L+9lknguPtXD+1BDIAy3rtlwKEeHDyAJz894QbOtFeoqtZaZkPyH3ggcr2Nvqt4bUn1H2Ul04+qBW3tedb9OdS+UogqyH2IeSXq7uDrU+aJHKloIuuJvgw4CLEmRCM3YBQ+Qsc990UPHHXnS4Rf8lyQFyT/V7yrzZSeBTZUeBjkNWAr7khU1Go2jJ0Y4aBxvkUbfBiHA9em3MnfFnC82qjHofoNgAN2FVWqcQAHaEaoyoDjE1NxXm7Tx8LjuPt1AYcewKebzQNl7Ql19asFp/qM8wCe/EwLAQc7JOKwMCZYrDRsV0KVdQNjQ50DCzcWXVFdBIsCjw2Frghp7cBNZ1fF8TM8TLpEYSrouoMfmZJ44pBEE/uMzlvted6YSZq/WpmsygZMCjg4SwMOeRwAh0KtfkS3AOumgcWGAEGgsCVwoIi2rCLakloxAxr0uNmWd56J50AbfPIceBwnf+fq4YDjjX/9ttVzGHA06zJp8hlwyOP46H//mpvOGnBIo+qu2Cmo5BpwNHu9NXOrS3o/AMewXP1Tn5l0Ay+0hsfBxKfYjC8mNuEZSA6w5BoZuOY8NBtiihC2QuuqqCT6hjoMpkEzbORc93qvgaU47hQIdo1Vch/nlPdQGKs/zH3INmmHrqrAARswwYFWlQeOxg3M2klIamNe+b57lVCUpHosh8HGCS9DSXEL3WZh8wRwaIMPq+rkl2qAA1n1vWo4dpsFqREDDuU4UMw1NNz9hkb/zzOlXSqy6gAHtNwsDcQN735DWlViVe1sBLuEOM8PobjeMTwOAcdPtw5w7EgBl/u/ruRd4bHaxgpIcmrI1SuV2W7kOyS73cggbEXSvCQ3HbbI+n09ROQ9lAC03Ad9PrLsfFQeLMt9qGWtAYcaR0HbNeaViqfSDGEZG9Bo5BU2YCM3o4H3Mm+rwKFn2Y+9LRAmu8nxEXbCu9gkhyEPw4BDoAHbcHul4mEQjsrSILdnwCGPA+C49iwXXbd1bHgNAMeb/9s7luNg4WDH2fTQhAMwPvo/vJ494LglWqOAgwdxp6zdtfI6cQ4DDrWPxdVvKeDQjmlTMdfF95fcnb+5b8rJE6+Nu9FLI2743JDrE4A0ssuGtkt4aksUXQQS1/UgFRXCwm2HTQKTJA32yKHvLYsmuY9KoRRg0TNB3w+1rqXvh8QTTTgxpb4fBhwJsgFDO+Epn/vV0zZ/s8AqC88ra99pekY9E7R0C0MpJLupjRJznY0R3kW1AnxX+Dcz18H81uaIUNWp3331eeCgAPCgE30iVVyAA1YVXQFjAQ59aAAceBzTDS04B51vs7+nZey9vwlCVdvrCQCHhOLoO26hqp+ZdIMv5ps95VT+3lRYNeFnlPN6599eN69j/OqoG7sy6kZfHnGDZwbkfSh8o512pxZTYxpFOLMw9mtJwlsKW1UkS9iZWeU5CUKBVtK89QinWvctJl0izwuPg2IpPBB6gCBj0qWwFpz4JNlXxgbcRepwMezv9rpgCv/OfgHgGDxUjmuvY7b0a1pBLfenjRAEkLAGAyWFssKvKCgAHMznTeX3rBD2wFU3AxapbIwMOL68B3Bw0Xt1AAxPHeB46/941/pybJHp5yGOYcCqCkNVST5QjZ4qwHH/m48t2bi9jocV712mH0mPugDy4J362anWAQ49GGwcKAh9W/Nh/r1F1yt9p9yk2kuKmjp6aViijRNqKTroeiXH3KX8R6QRPnjkPqzgSe68HjjyH1Z5TsJQ4SvyH5keldCVJc/V36NbUu14HUiX0MuALoRJhq4sxAqpAxp5AqSO0PYGHL8iyRF5zB0wb3Tdx3mEG58thZygnAf1Fwq7AhQKTUH8wMMw70JzvOlQf5rG1q0NgOOafQ8/OlLlOA2c3vo3AMcT6zRmqqfhEZr4TlL8I//dNfM8LOGYkQm4IllqAw6FqrYlVx0XUIamQmEUaXVixad/fjoAjhZ49vA0CVUieokH+uRHQX8W6+ioMNXQ+UEDDryPgdN5l1NfeYDFFGZhXkW8Rkue62HjAQQ4rPJcQELRYFX3inhwvHge3p7Yvptku5pEUSyYRzRRqrvmfWATha/wUOIcAIeFWAUcPKNJLVAAx4ufP2WswA5JkBw34KjmLgjbk7/QZgpgQBmBcGu1cE9hqh29nvk6pQMmoQHH7+0BHAf8nXX+e1utY6njoCPgtlAzjkHh3+uq4yBkRZw4KxMQ4HigFpywVLaK8QMHvZu7JTtCHccZgONcPhMVyAfdUxYi7r2pJf/rZ/1ZAP1OsYyoiO8bVccwhaxGL49YCGtcYax+7bwb2ZnaDg6QkndL4hB3vyjvwyiLCmNtzqkgqgUkS0yyQQBh7Cs1iUK6HfFEmFd9aiKFGm9UMD3o3vB7C7Fabm5FAB9/iDU8B1RxAQ5CrRaS1P0/ToPchcmAKF9RflQIQlD6PwoJQf2FvAs8jNC7yFrSu5GbpQ1fNVSlXEc4IlWOz6rXuAEHHgduV0whgymAQ5Ij1HOw8LAAZWGs3KkAh+i4WwUBB30lYhzW10DhqkHRcCclcjh4Vq1LpZjbpdegtmbFDrWXbHRchSkDmf23Ldfx3HtwKjTRegUewxeGLGk+cU3XJ5nyPuU+ehAOVNU8wFkvNPrcMeVVEAIosZO7g/Kuen4oHEAluoUAFNriAc10Ep0QljZG3Uqc94t1RegKL8Qk29ULhNAWINPsxmn1bsE9+PaMsQE3VwW6Mc/b8L4MXRwwWXXIHTDpsjpfw/M99PcwhKpNTOhZUJCHJMjGrHIXlr8QcOg7mxlAw3pktDJQ7DIW9xVpdYBjmgLA3ZXjOzs7Tw96iGffnLdkKL3HN5ZjBA6JG772X10NgIN6AGmjZGEYcNgDqDjlmnI6cT+ALLC6KfQe71cvjgH1Hx/Ww0jv8Z4BJZbJDWQDQ5+7HQYcouRCkvgJEjR79WfRebMJwKMCQHKK6w+dHTQPZEQd9obOqte3wlo2KQlfRRi4+uzyoO+aUigUXvNAAi9kSwlHC8tk9YHlMnWt9DS38NUoPc8VwlLynCR67yl5H1B3pYvVzCg8KronP1AfeIWqSjPrCisnowVG578XPnfSQlVBHU+0+9jMtR3F31ZzF8qvlSUySHtkS3JXwqbUIu2QA5XkuRWvCmAyvYFp0Ig2X63n+JSb/GJNz/EorCoDjj+8bpXjZXZ6MlYcgz4c16SOi8dBnLzRQrI4zmGvY4Q7NwoA2blByU1iEB+Gmpub7LM2nPTl6NWN6hWgdMkDCR/KZneicZ27MUe0OAMcP/5XgXZZvWObfL7uK61xoeyOXBw2T8TyHyqcC0Ey8n2v7ABhWpXEUiF0RddBGkjBYAFYrIBQ4JblYbLt3GeFrgYEHNB3e8b6n9V+wL5it9dgzm99sezIc6zJ8yg8Urx9oSyPWZ6HIgQA69OYzAJwnFHPccgdoZecZXtHPjeRhLATHqzRZRVu2lZoHqUDY0Yp5wZwbKqAjw6XrZ67OMguYWdMCgDHfuFFlzs7XP0TC1XJ69izkVP4rrm35HH84fu2YJQ1ObeUEIpjwMChA+BJNXTqlu47eY4sDIDj4XfJccjjWNHkSQg4TuhyWSAACPIDPYPdxrbKnwRI1Mp0qs9a7DZaWJekDQEPA45/WenPUufD8GTt+mCRyZOiUDAnWfLhi2qZq3bBAEleXhZthCMPgYf1/VBCkhAWFF5ApEABobR+qMIlvpzlYaAgrwzZdmo/CGH1KucBgKC8C/uq02TbG3seCE1takHbWN50pbl1t/awpN4c8j5mBapG8pDxYhhD5wGOacvR2XPboHJADKeQyCGsHYDWNuslozoiS3ILLKwolapu2RYqLR5Gpj3cmKwDKzCvor9BAcfg65MWWg0PHSnHMffWgnv33wk4lBxfVwIISmYcg8XjVYBDyXEWDxJtWRir9wru0feeGHBsLAk4YvKwDro2gLM7Lw9EgMGujj4dfZIm6R1WbYQ8EyMQEN454siA9Wf5l2803NiL8+/Sgki9x+RHVDioBPqwwlj901o4tYCye7VFNWoIy1he6vsh2mPhPfX9UOKccIKJxCkXl3ntq0oIq1Og2j2lEN4L2izQdVD2oZAQ/SsDECryI9qEOQaAbKxuuuJMyS2rmLUoACkvSOJFr22FLMEmMGTwfN6d+aVpKwDM0obvoOer9vfmXYhkYfkLiBgCB9RprQWANiMwpDbwZtGOIgyV1VBo7YU1+bOROrSp6ZOHMfSpU0FNkrzjLlHsw2GV4/xQL88x9/aCe++PblhSdH0+XuC4+gdXLFTVA3A0GeMNL6rZ72sPiu7x92cNOMq4+2JWpTEITQQ79IB1BWjkpZyLlhVFggCILawNhjDiPncDjn+lVsL0Z6F+NOIiFF5flyYlQJE/qdyOkugUEFKBTgiL2o/ooasgtEBbTRLlG0pQrj8IWtfSQIqCq8xrX7EP0I6d4kDadMK06plW/kPS7XQe7FcehOpzC1tFBA/LRan2iMgAodb1ubJbe1DQl7rI3S+aR8J7ot632vkDC/DMZwEO0YvJzWRkw1d7ngf9TLGe9YrRPLHKboEEiW4Le8KKUl7NPAzq1hqY5wd9btZ/T5vkHnnAdL0c/vRpsQBFgqB1wK77HKmOY/4dAce/BzieyAUuaSGNx+OYeH3cXf3nAXAY3z8jwFF4XHKzP1oQcKjx0KOSPXxHcbPDFrOAx9A5kufKCyichbouIAuIHMWw/iwCDgDEXPaIwFF7rlxL/lReSdYRax88dnlU0iUqHkS65BCDuHRZoap1aV9Z6EpCchZmUEgrEI+DfXWIA6f1J4CINgWdKO8qbIX3AQurT9XnXVXvo4H7DjZowYPgQeLcgOOeiAVPVGC5y/uwe9jANQIcp3/xGXBkKZS652XIBuZdkLsg1FQJNxHqfCYJoqZJsPW0vlmoE6A4LqPi+ZIM71LhKhuXPm1coI4PCjzwfmujHJFCVQDH9f9wMwCOWS2kivXFMdhlvvL7ly3H0StaYuRK4zg+vM4x1ufL0mNaNo9jWUWAuPlHMTq6tIgofEP+A2+jn9yH4ssk0fFG2LkfxQA4fvI/V/qzWNL1cA8ZngUhuB55H/2qPp/66KS7+MVzlkg/zHVZYZYSwR/WvloOtK8Ucsj8zhHwUP6DEFWXALR7PNS+koSJaV/lrO95ZPvo1lC4uaVwKwBSXtpwRW2MVhTCYoNUXmw8FGvA8QtTVjluBAdCaRkelruQV0qBXkm5C8gUJmejpDfCg9bOmFCVPBDrfUFY6jgNIh16Fsmt9QsojDIuT7dXAAKQACi1I5LI4fy7iwYcJEWLMyp0iRM4vnzZVHL7KjHu2hM8ip/Zja09LBoffu7HYu4oVnyUO1U8C8IBfeM9KhYcMPouXQP7pLAb1kWkaSe0qgAO5gNV9Rb2aOIEaFEJQcBaCYue3WwP+pBGiS4QulfIttN5EGYMAnPEtDMPILKnaV8pRAB1l7BB/0V5HzCwpEgcJM8//EDXuw07FHAKWNkYUeS6plxeQR41G6Nq7qPeASq/o+7olICDUBVeY1ZCzM+dOoBJ8zCtVZuQKGBG7Q5JzVRyFzDOjhtQVAwVhkg7iWLg5WpjgjinaawBGqq72m9EYlUBHO9/5QPLcRhwiKIWx6A47MqXL1lynIpjKLlZGDxcgAdqo4+++0T0xqK5/EcGHmEIQzu7sHvggB7eIb4EJAgL1rqSSdoR4IizP0uY+4itsZcWDaMOKzSB9pX1P5BkO02j1t6YtQJCC89kPdlZyXkF2lc9Rt+l7zOdB63nucJXjQwL0+uaIQ1saodNyGpZxa6rdwQgCmFtiEEYZRhw/PykeRy9AMceO9Iox0nsPZX7T/6iKMo2pAm+6P8SehfGjGLTIzC1TURiJ5PdA3fmVZBLPk3FqPlX1Ar5BWjh2pSEkjh12HKRQlULErMz4NAOs6ASe2RH4hjj18bclS8JOFTHkVMC8KhCL7XXwmTa1qRiV/boP80apTEJ6ZHaz436c5j7IGFOF0FCWBTc8QCnkTxvtf4sJm9d8T5WfzRjFejEt+Hi2wLCjlPrR9YHTaNyynkQe0Y0kdyHPeSVuo9GmFdca+hZQz9f+UD94CtFg8jKBAvq3hZh03Lq5yZt7vVKrPPIgYO1H0CEIaX8RViDQTiqgLcp0EB1gKR3K3iae1u9yVfZfIYkDIW4SXZbC2SxpUyE83JjIpwnaORkfPs6jA0Djj+9pWToTAAc2o3HMcZfHXOXv/SyeRzw+6H2ZWJUJmJBIaq5nyw68hwFURo3Y7ruZq8xzH30VPIesK6g71JImAY90oBjV3+WWFx9TWw2EB/9F/H3ZwlF6ZApIVxlxYMfaDGhcdQTNdJhI2Tb8WbvTLJ/f0KECKi7PZNKXpI8V+gqf2XMYtGdgEedHeJeZ2a5D9Fzy4sbJpG/Jq8DvauSWFhWNLiPKvSANiwnDThEZIAqrjzcUQ5Aznp3CxjWlb/gvpbFrjN1WuU12CQAJuibtcIGIXZbAhpa3zsUeiLxjdQ/YSm+k9eAtdeo7H80j+P6orvxZwIOsaoKD6XNooRSHMOA47dfshxHP8ChhGCWRlmFVNR0kEhcVjFgUa59vQcq7XM3lV2FCnLTYeU5eQ9NDmKWAmEAxmjWmjhxjrA/C6wqY6nEESMGOJDZ/xfJ9WchH8MCsiHJEkIYFAyGdR9w9dmttoJ4IrRdigYBD3IfljTX8wPPvpP7ruR6I6FL6pTKkhIiWQ5wFB+LdaUmWiTTSaqb0u4u+i4SOSfVRwatKuu/kjJwWA5Lc46Qm3kX8hy3JAsS0LFRpw16d6OmnHk6dpwPZngsgIIwpzYaHfIsmBOdok13I3UjsOhVCwQDDoHGfsnv8FD7fY8IHEvu5p/jcSjef1+MBDqzxTDGr465S7/1ku00YdVkDThYaDZVwwGVceGdJYWu1CNC7jwyDlkYTA6TLdGDC5++b0LKtHqoB0TfpXgQ6ZIkQlcGHOrHMSN5dWvsJTvFMZLuzxImzQlPkTQFLDYWoO+uuDXJt5fp+wGAkDzP8IBMcEJhSRYDkposBAETRrUf2klSjd7IhiHYsQfMK8JXSJUUNc+Z93jaG2Jimdou+QANPNzpn1Hlv4AjyE2m63GY7D5SINoAUH9BhbcJXyocyX0FTKjBQBIkCLm1QBwyxvlmz7zmR9eIJIwUikLOny+8C+qE0EuzDQZeqkg3rCONDgtVHdRznFahN//itoWqVu8JOLQ7iWOMvTLqLv1mABx5lbc3JD0RxwlEPAYURipwSSJSQEVBFbUsVOiyGGXB/WWh6B6ULtTpnIEG4AFll9wHzCurPCeU0fgc+ZCVnlh/lvfEqpoxhl1cIpBp92exBUgLTflRpe/H7WUtQMrhLQZKp+xoMx3CqiTPu5TQpFgQNgyJTpMsYXEQsBDLjlygVwnRIo5YlEwJHkhBRYPr+n9ZCgqwKfFO0B6b/mmAQwsSpJakQsycj0KIYe4CQDcdKYGGFe7pXhF2NK9RhXsUgQbP4zECCryLMHeB3p82kTDuTExTXmjvGYF7BTi6da8Q0mTj0eyI5HEs3lhyH3wV4HiixVPxwxiB4+XfuCiPY9rlJTsBJzyLwzwPPUzQGNH/WbtfMBDhZ6OjVnZiR33uLBBW96ECQQAjrDzPC0wGTsm+eCDkspoED5PZ/7eV/izw4FlgYxhp92ephjy0IMHnh65pqrtQeEXfRbrEhOzYHGRxcB+JXZP7ACS0m+yWt9Gj1rV9SJdIMiKnRaMbqYio91yXGjTsor+8ah+Y97NlRwKd6nOo6eQ1pn9KVcXyOHKihCcFHNwfe/aQAUH+Q/eHgj2K9Lg3eIz0bNlZl4chQLNc2zEs3DOQmFLuQvkLqNu92oT3qP7HQpfh5oEQJhL4eBesAU0OAw5Q3RaUfQ5mwPG1OyYxsQJwiAsfx0Bq4iWAQ7HtAVUQZxU4wmuF6w5Y4MLDuMKdJ2HOw8VObId2nVlIsjI3VPthsu0CjIEzSLeLdqdQFjau6l4dwkXFFks3l92tr99VB8BZW0zKKNMKPJptsXvU/VkAD/SJivI8iu8vWOjKug6afLbyH3HkcsLJlMB3C1Egaa86jz7zQALJEvp+dJL/kOfJ7jRqaMKmsjZFbBTxtKk8L6i+ifkz9uqwQlZapLQZiYtVVQVyKrzx6AuqL5HtNwQShBEBdpQAkNGv1uMkYMfMHpLnGi+zIpBpngWFoihNa7NAr/teAUeY8DaZkBg2invZI5rHwULxV3csOb5yS65hTMAxCnD8+gUDjkHpFPVox5TlQbyU8BRhKmLBJQMRFZkRC1YhFTz4JHs9N2QbTTI8EB7yboFF76h6f6jifFiqu/QAaeaBX9f9X7694lAUoKZjSR5pyRQFmssNUPh3lP1ZAAaS/QAIBWPWuvZ60Lp2U2ERRPAyPcKFxTwQsZ3ElukRaAQ8ffX9wPvQM9ZI3w/Ag10/c54NEnMcgMoRBpX0P3MsKhAdZLswdGhJ7mruQsw3chcKT5lUCFRhvsSQsvzFQQdto9+HGwPuq6kpSwzTai/IXbAxkHdBzQ+V3kFv+3hC03uZ0CrH2SXXy3OEO0zouMsfCDgkrR7HQB314j+pAIeMgOxIKwzbGQlENjSZgySiYsHaiZH74MEyD0Q78Kf70BnTvsaw42BuUn3BRdsl/5Gb0ORT4SAFhdbFrYGdiYUPlIBcFVGCfMfidREH7sI6U3WuwgcwcQ6TlMxKfxbOnbg6ydeCPA+rA9BCtqkCMtg7xNrt+rIawqpMMEugSzICwKBhFACC92H0Sy0ysG4aCV1yzdQ3MeJoGQtQW86C3IXmkwG2mFAWMrTchbSjVOFtuQt9tuWbKtd2LL6ZdxEIYAbMKD2vhCMFFNWktxSVu0WQACziyF1EtWukUNXSB8vu9l/ftRzHsrwPWBdxDJr7XPi18/I4pt3Qi60DHCTDLWknYCBEE3ggqsRVEpHugYBI6YkWUO3QMjEqoStCCtaZT5RdvA8AhMrzvlHtQhvYOYbASQwc77PwuOiWbi27BQHInNoMr6lINKAtN8a2ykx/Fu4v8XWxrwiVmFwF9R8KYRVgX0kMj4Uu8418KgsPIYtO5T6IgfcJPPoRT1QNCAVgtouNGrKs2IU5HcTKm5jdOhbsJ0Qpsaep08rG5C+QNrfcheZXWOF97EADG+t57UR0EKBQVXef2HNWeyFareW0aMMM+SHG3EXUOxoNOLQo3P7GPctxLN0AOFSBGcMYATgkakdyfFh9qUm6teKwRUYggidG3QfxYGiMSXVga9ZGoWwJSXNEE/tVB9Ijby+sPqf+o5FBXc+q6nsWNTfm3pgTA02qwgpdmfcBE4ddqhaKg0ZW+7OE8tssboV354y+S9zdaj+0+OGB2cIW4RoPskEiv+d2yqPs0j2GZWNy7ZekeyXpbIQUuyQ9YTvWBgsII58rgKOoBkBLFX9Q3a3Ql3Jj1rdbeSVsa8KD8jiyToeOfN2NvJHNHeyoHsCAym59KfzULcacFe2JZo1SgAkPijHXNHA3cm57vDdSjmNJC8Gdb96zHMeSqLn05IhjjLw87M7/agU4JKeN0GFLjsqDAS2VXXi1A5uSiVaJG3MHtmZtxC4T7wN5dhLoVkAoqWxqP+h7DoA0MoIKZHkfqu8paW4QtqJrJDTuFeVCoDNHIQ0AHFnszxKGrsLaD3bIsK7wQNbvLTsrNCOUkuXQVWVhMu+jsiD1abOGGmpOhYS9qkZnF5vEMA9VYSkq9yEfwJAqq7ob7SjzLuTVBeyo1ijAjN1G3Bt5fR1oR9ENMqzsJtFdKeyk6LPT6LYCFgCezcARjkjAQSL0zjfvW6hqUbpVsQHHSwKOL5xV5bi0/c8LUQ/Zh+EI7bfnR6P1Q/LcOrBJA4ieHnF2YNvzQw/xIpOV/EfvSLdDf4jCrqrq7iG0rwLPa8cVpKCMMCZSNSTO11AboBIZ9pmxr/YOYWW1P0vVtGwQBA7slIt3BBr6gr7LTnlbuQ8SuIRfsi5tERYQspPtl0YRWkXQdum7UBW40+bisLTNUN7eKrvJX8jLAHStJSveBQwpAQfsKKvWzzhbrXr/4/qPPXfkLoKai8DDEDtKG+duaLUhcChEBb2ahHfWRmTguPu3DwLg0IJAM6c4xoiA49znz1rl+MiFYSsmiuO4R32McAGFvotsA0nzVTqwEcKSF4JHwnuihG8SvRZbG4Lqc8JXPRKs61PSHPruobSvKp4XyXHCV8wTQMPyH5o3ULkJYZksv95bO7Lan+W589R5kzg374Odsq6TZC7y7YBIWVXo7KKzHbrShoEdLsViJFvF+Yelk9MziIQJ4RB2t41qX5mdZB/CUWXRZummVxYbje+bIhoAuDDTyA/hYRg76hgmvU1zTHYHqMldUPmPzUlyBxTbIHdBVADqLRGCrI1owKEH/t63AuBYEAUT6mUcY0hexou/fMaS4+Oi5ubGG5OJjuMcEj1GZSEFPNag7Ao0ViXRjpw1CsNhDwRj6CR6ItEOTpKtWzpX5Dys57kS6DCvoPNC6zX2lSZxvZqf3Z9E61KS56sP1swDIfcBE8vYV3odUgFhLgNR/SHAcUX9WRA7zFJ/lt3XtPv/nDfMOSrN8UCq8t0KZbWc9pVCIkE/hnHrfY6ukclTKERi+Q8BzYc8kMr8ttxF6FlA263kLvDEqsAhINlRXUYrsNF23+Om/4/ZQokYQk3UXQDWYe6ikvSGNo3QYENkhaZP7vAHiAQcxKzvffuhPI4ZN/9WfMAx8MKAO/XTJ62OY/qjk9aD+vCXktG/ZIeqxbHagc2USIMObHRiQ8qB4sEsjDB0hdppUPvR43JqVxswsLSwUCWs30XtCR7QN8U6I+9jdS+BB0ISfVY0XuYVBZSE9hjj9Gf53VBmn8/Knov+3H0KF06d/5Z20RSllWfVv1qta037SuGYltO+UmiERQwQsS+xsIiz2+63RqoiBE7UZ9cl22L5C7Xrtb7dVHXjXQAohCehp29nnETw3M2N4QccBZESTJQSZhQV/ajSUt0tb4PQVChCGJITGqFHx3CGhz5EJK0qA47vPjRW1bySnuwY4xh98jAoAmSnefLjagxzQUZV4u6oZZrjuLa9jkFlNTH+sAMbDCzLfwhMQu9jr787iteYwJ1KniNbQr8PE06UB4J0O9XnRt9t0IUGQEpi5OF5IJS4INXlVYEHCXXAc/TKiLvyO5dMLTmnatjMyOxHvAGEsGgcRfK38O6CwlfqOijwoNo5FN2LeKijeZvuuREn9AyGCqrkP9A6MjaPqKGI4kECgGlGTgfvwsQGlbdAlXZdwBHkLlq24oYbAAApR0lEQVSArpyQlW0DJjuZdwERQZX8VtmtcKABB7U0yucSDmzVEal17Iomw/3vPrIcx7x4+kWxIeIYtJwkNDJ4dtBNvj6urwk3KRBB8PCoWQNxXF/tMUIJB4qeSBQjJId0CTpAjXRgqz1uUj9b4aDuEWEq+p5D3x27KqkJ1X9AnUYXq5FhHgjEAS04UJWRsnn4/UduQfkPakGGNA8u/86u/izKu7TSsB24dtUkfLdEBlhXf+vVt2fVeTAAkG3tzDM/AA8tekYHVeiEXTHgMfSJU1ZASJgFgAx1vYrvSZpFQElhpJEDUKXVPT52IaldN9aS3oCvAHfg1QkDC0JTVt1dCf0Fld3Zy13suoy6/40WqpIi7oPvCTjUjwOePu1j4xy9Qt8heRvIrJ/8hHoZ43noNWihhEVA8HYchG9WLe8h0UQ6sM0FO28krKkNsIcvCxdOnFb3AK2rkctD6nsuNo4UUsPKc6Tdo+Y9uBwDUO1a15T7QDgT6i7qBCitQpZg82CNvVoMOJ67VQpjwSIqvD+vr6DnOdLfYfjG8jp6T5aHxduVnGUBHPzYSVPfJYELcMCMKt2WGOT1BUt8H0cJkPDemZ20wYL9BOB2qaUvtNrcOfVLUatfiAddyIHoPe0yDDjg2Nd78EloPvi7xwKOGTerEEPcwEHYA0l1agiGlTBHbn1SOQ92oNbTuI0MvnviBPUPegjJeyh5Ts4DCRNYWHRly0ruw85Z4EGcu0fS7X0KV9F3GpE7KLy0D7WHR7vVqAPwIHRFMSlS/XMK7TDGro5KRUAMnxYMVdVeO3F9E+kTqwjhxJLamCKeSA7AGgzBKMryqGwYLEbPjlkLIkWEbGg251WDAcFBeYynqrBvBSBMxNSykfWER2iQynxyQwIK8hn078bLgG7biLhkIucZ80GjAYcolY8EGjPyOGa0Q6TveBIDeWZ2nXgfUwIOCgQHlEiCbUVXO0JbrZI8asQ+JM5RICX3AXCUJF1Nt0HAA9mSLPX9IISIuB1CiYSsABAS6NZ1UB5CwxpGWjsRTVxSrRD5HzS0+mhOxP0WULXDsLyHwIK6j6JEE8kDIGOCNlPL5D7kcZ4Q645kLi4jdGRCUsdqVHJARqfVXA89DGRBwjxGNfktijPFlu0YcueeRwpVUdCFmB1hhUcKWbFDTGJYYk7gYN3sBCCDYl2RPB9T0nTs8qjrV5LJdrZtFrqy2L9CU1SeWw2EQITiQWSs6TpofT9oGpWRHWrY89yYV/I2+k/JA5F4Yl4S7ofpCAcwblI4p+sDLACfRrSzkpiLcR7TVHcFioSptpRMNtVdwlcK9ZAf2KajJi5YlgeLJv1/Kswqk5inFukYDZMEUTiqSyyzXokLmnbUdOBZ0Au+E+kWpEL0HmNJ1bDQ2slUkYBjXfoxi4pBAxx3//qeQ/Qw0eI1XGRN1D65fyMvDblRgQb5jyEBieU+dJPoamcJJr233Yb1/ZDulfX9CHtAC0yoB7G+H2JnZWEEQN9hzKvB80HYinBjr0QT7f5QwMROtUXvUS2gB5pUgVx9oOul/Bt1LRE3MgF9dcdyHyZZIg240p0lyxEAKlZ1HiaWs3CDj/k52L2l9wW5C7xpIwvIu4Zai7YeISkK96DVEg1pY6ConQqRWFVGoxRl8vEPn7jrf3zDajkSj2lqsTHWlXIf7GL7xbQi5wFlc1gVriGItPLCVHszwp9twcL7qNQ/ELYy5pU8EPIgAEiiwB2eyEHfAXgtmhQGwroCMPoVtsqjuivxRKi8eBAdDdJ2D/rYtH5fDSEq54TdITM8VXSGCvugsl4hCu0w8Y4iDeG9qSoLHAAKa38qhiICf+Q/8D4IYcHKysT9jXRR7fsmy13Q06SSuzCgMCotFd6679x7vAvdf9s8tOoO6RC3MJLHERawzb05797/yk11fpsz5dO0krfcGPIf+ZP9Din2YUmVkEQn/4FXQl1BKy9Q+903UxRV+Ib8xypyJXRh0xehK9N9Um6EymUD8f0OkuLr0HMBj7zqPVhYrWEUlecClWrhYEa9D1vQK3U2sNqY2wAFtGEq/YuPVa8AcCg80yMq8tAFiULSEKuJynqS55uisVJdDXBA37We5+Q/FL6yvh/oOB2zkFCKU/bZRxGKI0TaGwACwBCyo6raUZXCPWRB2jV38cwg9f9nwLGzs1O3kVO4gC1LeuT+dx64mR/OuoV34tOsqn+Kwa4WtzGoaJY0tDyQnPIdIxeHlUSfsMJB8h+ER9pt2IKm/MdWUQuZmkSxkCFfYqq7tK6V90FuJAuDe2Qgj+quktsUC5p4ojwQFlmS6lkkN4Tze0NEBHqqBEARyOJvrgSd70ycUa2ByUWYNIs8YUASZWGrrJeycJ/6nFQBMsINsdAVUuMU00mOw4rp5IGUVHlufT/Un2LnOCahI9gu1rcAGpq7ptulnAXFjzkqvAlDyePoUvK7g1AV3gUhqaTk52O9qGQPFsnjCE+BCt8FJfVmVcvx6PszWrzUFU0Tm+RmmiN8cAcVZ0SKe0xeyKAaQVE4SF8JCtaCEFZGt7eHNFbQeU+Fg9oBr9xSdTI9PypdB033KUs9zxXC6tFuHLouhYOmuivA78qrmFCeCd5JVOmSQ5pr3z+zBVueHH1CAAS8i00BM/LvAAfEBDwMfuZ3e3VyBACtsl61LWh7DZxRbYvCdJbfEWiatleD8tfW9wPpcXkeAAfSJVRlW39tAYttELKeRN/X6hn6BXk33RtAAKFHk/0gb4p+1EklvVW3AjuqR5vRdqu/iOsuWI6Dg9lO8ICjhnLhJMcffv+x6Q1ZR8CYWske8PHVXxsoSA68W3Q3QgV5uZDDSqLDvJqQ3tGA2D1B6Cpi7Ll65Gz/J1zwtrTYbcnToOf5mroNwr5aU/X5hnSvyI/wviMfwuzA++hSqCrQvqJ1LfkPQll5+n7oYT0Kl98AWN4FIUCKLunWiJcBUADA5DYADKNBy5775RvCyvpO+rojzyIQGXhRISxdI0BJX/dGPCzunSnvonulKnNCWMUPpLor9tW61HerfT88eDQ1vY1OK4+xS0BhulE0SBJYoFaL0CDsKMthVLwLy1809Ynt98fmceCqRwGO8PKRxqbad+7tBTcvtVzoudbtDankI1i48DIoRht5ecSqjpFoJ5Rl8WfFI6F3tt3QekaeoyDdMFPdvaNFRosfooEsfsTpuRdZGDx4VJc/80CChTWn5HmXwld4IMZg0fviHqyxRoeVVwwYAArYjXwFHRtL8tjwMtZnlTcSGB9q/uq0eX66h1TfIsDAyxrUV6jrhfdRTaBGuUDOWScOdbdI4hzJdjWOKit0hequ1VBo82CigVGOd5zfQxgK7yL0LJQrRTYlyF/gYQT9L0h8d6vAsaH7dIzt2lCoKrQT7j3d3qjvQLBuXg17UDtdU4U5oSujLYZvTuG77Ww1IQAQigVJnI9LtsIS6WJiWWfB+NekFK6s/keEoolItJfV44MQC9pXBRpHyRshL5KJUVlYCTGyiNJ1EMaVta69oC50CvGYvEzMAG+gIe8LoAg8iyAEZeQCgYQBLIBCuAqghWhgf3QIq+kaCb3hfVBdz6aF3MfwRV0fSXRdM15w5CHw2O19WBMk9foovEcBoULECCfKM/GjjgUADW1GgtyFAELgYLkLhbS7VGTaJY/XWFHkLmBI0ftCf3MUXnCdq8jkryLRcfc7c4q28D6WPlgxKRJCWIAJMhIsZiaXneKmN9jZdhj7akx1H2MqHhyVFzJ4WpMG7SsodFqc2s31ZJdMvJ7E+Yo8j4LCV4ReNiz0wqK4K+yy381M8fUgR9UVtKwV+yrsOgig2O5cANOIBxyeuq35Fu4JwIB6GCjNSNfTQwaPLJCyV+5Cv9sh2Z3AsBCWdrhoe8Euo8Ie7wMwoWGW9TVpYIEyj0kJdEJXBVWel1T/YdRd9T0PtK/kfRCexADHeQAUSnIHIo0CBYWjaIdLb5EeuupVcxeEpNpLOyrt2x6JVbXfSe1ICZRFyWiLKhJcuauGPQpdLVxfkmhd0Js8mND7HSHm1ys7W0If5n1MIouh6nMlz2FfBdpXil82svOL+RQTORxrhhaOoAJbLCDCMPJASgpjId1eEvvK5Eu0WGZhANy2uOo+wLTC+zDZ9kqIhwXWFgAW1wZG6IGRu0C6BQ/sWe4iABHCVXjEQUiqgYM38lbmISwdro/6FrGtTKJF1zckiRb6mjS0gREg2OYA9hUdBwUY65JrJ4SFyOAz7at0SSqNmCSN9xKSOoHNxYQiZ9F7RrpRlrtQklvMKKvuVl602vsigdBoGteZhc84VKiq9sSNzqiFi3AAoEGfBaSyEUc07wPmlQCGyZ/moPYD6i6hq0kBxyjaV6cqtR/EOTXJ2tE1ZWG06nN5IACHeSBaSBFTrOY/bIea5t3Y57O0yJr2ldR2SSqb8i49P8z7qOzOtQjvNQBLrhXABBAsd6EQFJ4XngWgwdehcxd7feghXsPLIHFuobmKsjBFhEjrGIlDRI9GhmlfWcOoFVcMQ1eq/UC6hLatJgeS7qPWyOnH9t7Au1D+SM9xyIxCVNAqu2nJiochai2Kvq0uYx6b0WI6kDVyYvE8TGhg9zkAHsSJN1QRC1jQXwGZEhr2LMu1XheVl0UrzWG7PjEjbNenUFWofTV6WdpX8kLykg5oaOeX5sk38VksqLZD1YJqoRoBBmEa2FeryoEQ489S8vyZ9hV9z9mdq3WtKs/z1EZA4VXeYK/BZqRMbYvmFvRZS3JDT4YgICDZXg884qZyF3t9cIOvhd5HF/UtAkRqP4YEIFwfEi1Wf9QAdljoivCjKLpQddG+Kt5QZ06xr8r6P8WDFrZqc/AwKRA6Fuo5NnFB5TD6lOzG40DRF5HBau4C76IBGzd4i4/d22PxOGqtRm6DJDmhK8QRadhTkMJuaS6QbbBdrzT9U/NAmDMCR/M+VDQ4emnYqLuDCmP1CVBYrHqg4fUeLrZee/1Z+9mkM0z7ipa16vmt3Thxf6vBsdBNNlYYFliAnNDVUKh9Ven7QdKZEBcehnkZ2qSQR8OLstoLXVMoR8/17kehPcp7E4boeke6q4WRYX4HUDHvo4EcXLhBIFFu2lfSvVpXAn2D3IdCWmhfWfW5bNbSg42thTf1fKLQa9pRyofJu+iW4CDMKAMOaLUCkS7RafXAe6BI8KYnAhwWQqDPtjyMdeLNKmJafVAwz8NCWNB3tZBtKWab2tA86hRrgtoBqppJlg8oaQ6FlxwIHgiS3jZBmXRtNMz7IHyl+7GxKoaRvA+0r9Z0T8gDbOq1TCy0POtaIKraVzCTqMwWK4kwFq8HNFp5tQqLAhpU01PTQm3LjsCkWnuRxfvH9WluQU0mfEW4ythlYl9B4c0hENkI+0p4b2FibdS2BKJ04TP1XdF2yX8AImX1AgdEMnF/D3lPEA8kd2Eig5IYoqLbgILK7krPCxoomTKtJENMbLC9HuFDWi65P4vUc7zZjzf2lbyN5durDr2rReVBoPGWtFM6ityHgYN2t/Q8R/dq4tUxN/0x9TxXxy4AxeoK2nDHErKOSB6vKfexIvAw6RLVMQQsI+1Ms+F82JQLtK+CBl8DLyqsqLDjhs6dHEZQMU/OJjl2VLPz/qC/N3aZqLswrqwxlsAx7Kx4mNwHdR3oX5W1UaNwkJa1JYWwrPOg2GV06cvS/a1rH0A2BAx5EOQpulSb1SMqrdFqz+pZxbtADkTzwo90LZCIx1F7CSH7al300IIohSTQ6Sa4dEOy0gKUtHMfxDpt56cJh/eBXAnSJROvjrtxdR9EiZe4OwDTbgPwqPY8l+ex9MGqeR9F5T/QZTp0HUMChgpDV1RlE06kHwTSIIAc4VBCVnhTT1s0EmMbGM2zMPeBZzWo3I4xzMh9iJHVUFwe9pXyW9sCiWc9z+eC4kHVflCN3hK5Dx47PDPlKWiQ1HtK9Rfnhk1Dip8NRAgtK2RlTKo2fE4TeJxiPaQBB4tFs8nxKGdFrYHlPtQBjRa0C+8vWdV5ScJuFBSSyGXip7YrqgCI5T7UdZCQFeAxdE4T1boOinlFxaloflkcYYybc2ORjQx0lRAHiWUkS6g8xwMpVaqnQ+/D7kUGLtySywpTMTIdijqkrYwcoBxOnyRZhlQwCDFgSNIlRks+hOcbzgsk2s3zIGylxPnGTMHAg8LBp4Auz1oWRggUyu9YMltJbeovKNLrkYw5ooMWmprMW+ta3mOgi238OBILpOJxhFfGRN3RDnFLExddoDV5HxQNLry3pB4f81J9LaQfutLcs9wHfHuFqXLyNkYuir4rD2REYSyk25Ftz9zAc1AeaVNgy2ioLwR/oL/fJg+l3bvVfShfQMX5ciV5vilQIYyYiQHAV3aVtthlZL2LyzZBQeQzratBgcbgWS2WUt9taEMQnpDsU819iKQSqO6qk6REE9cknlhWDci2vA/CWpkYurcU7XWJIYWEudFoUaclFCUZEHIblsNA8lzvc2ySPGgc6a2zynEmWUdH+rtqvIzVB2sKWS1JcXc+yHsodEUMnrxI2nLhJhkh9xel04nXx8W8Uu8P1YDQB6RXk5rF2R7ktCdtZSFgt01YD9vguW0oIbqhxCfuOh4SDLFeya6YC8/DGHFDFvZbweMwyRJ5IDCVNlREyOfhKRoDrs0W7CN58nRPaGxF7QEsPjxammAhU4KWF/eRnAekAMKohwKOmgsjNLklmjzV5qjulm5LdVc90DdFm4fSawBCDDOt+8vcVP4iqL9QrQ6igqqr6qElqxXuSdZcdRgkvsNwVM0l+R+P2AKphqpqr5UYNTvmDQEIiXKS57PyPBYJYd1dlVdCTLb2r5L7mV0MDyqFg8TU89Oq9FXYiq6Dk69POOi7trNPOXRlnpp0lNbFRFuRXZbvrBjIFhV6ADi65NoPV0Jt40r0A3R4UVE779nuVJ4gtR0U0ZWVfC6I3krdB82j+NxQyyk56x+DI+M5aY4hLU9BYI5uiaIbw6wCJEI5EhLjgex8ZWcdcQOwnwWZP9R+0FnQVHclC0TLWuo+oPFuarNmRYMpha5OMDeRAlG+ok8AQXU3Ce8egIKiSAGp1WAoB8nzGHkHtJ8B/OuxW+BIgSO8GlsYBSLoXKG4S+V5WPsBbXdTu15LhKY0scPzgrrbL/Cg77mFrlQDQs8PQlrWdVAPQEPJy/DAB3w3e7CQi64cVEMHtFMTlVQzrQA4RCyQ/hKeB2A2KDHHUB0YsKNwDu/DqpN5AHE/Ii5A2BvVWOo9CvfJfUiyRN4HFdgBi0keSJo71APsldlfY3LtrgmvAAZdOX2Xh9GrTQmgYcCBAKJCUqGOWuLXoo0Y4LEu76Moz6P4/oJ5Iki2b8uD3SkrzyiQiW1gA9hRmoNWf6G5Sv2F5S+g1VLhrRwGISpUa4/Eo4/tYo/PgVLNcexrVrxkLUQUbuF9FLUDIoSF50ESfUWLJTvrtGPuQegqYF7RohatK3b0VJ7TfTCnCtVGFuR9r7/mFyGJoCjSAAKSy7dXzNMoSnsK+1Cdb8V7ilFTFc3DxsLTo3AatShWIS95FajGI+d1njr3RirkyUNha5Mhp8GRwLugeo+1B/oShZf8lFVjpwzkNWbK/I/cF+xOvQY0WyrG82GzJ+2q8WwBEhM91HvDPE7SF0ZiHGmSLT1TJNDRvSpI86p0Z9ltyoslfBXLYKOiDQvJ7O5xNVmr1F/0CSSg1ZqMOTbQF6BCnsOep1g+3B8kSQtkAzhqrpDCQMIjLJj0NycHQuIcKRPi+lb7waKVUhjLGBx6sHMSTRxT2IqGUSjvUkBouQ8YIIdhX1UAE6AglwCrjEI2QHJdO8A1VdsDHCsKTdHzBJuwG8Qj2WuwUHVqZwd4GGhQJU+CXyE2Yud4ICxWDbHE9FF4IEiWoHm1ckfFZdK9MlmPgsAF8BLQ+BF4F0Fzp8CzIPQEpZaWsjl5FsjH80VYqhEgT8q2Yd0HXQYL6uxpRYPqPrhJ5Tk5Rj2HT5VXe6rW0pGeNctdkL+pFONVJD+swltNkqjwNllzkwVRWEpz0Y/WtEAmgSOodBbbRyCxrjwHYokL6vkBfXdJX0i5hxz+VMyOu62dE+EGHnq8D8QSh5RXAEBIoFfZV+yyIg4LSZG70DWuiKIMUOBlUOtSMKCU7pJsgKgduSDIAnVDRJynHl7OkxAVIRHOlcLGiY+oP0lFYr5HIYFGRqg6a2EzPEIBBwBirWuVUE+9DqeRk0/xvUFBH/MjUMMlyY20uhEWRLdlc0FC3ECjgdBhYpcgL9/moMC/6n081AZF4GEJdOi7aiYFgGjiHQgeeAxB7YW0o8IQlHp4ox1luQsBqeUu5F1Y725tdPxoTQtkEjiqpmSuasKWtPtm543nQdU5YSzCJ7CvCNsgNWELavUPk/1PCCAm2S7gIGw1rP7nFA4G8Wol+HC7ax4MHlJAEa/CWFES48O7KAgsCMet6aElHAV48J33RNrp7XO5oXQ5IDehxlYGcgI7QI48TZUlJrCJMmyRkXeE1MeqdMjWlDgvisK7vkDojK6DFe+j3R2QCkBTf8ECSKgJQDA5G5hRAguEGvH8kFBHpDGJkGaUe9bIeygc3FzU/USyRPkPKs6NebUm6i6aZmJnmXdp3n7lJuNliCxidlDBHpTabtVeBKKDyl0AHOQueB4izrNGztm/92gskG3gwCaan9uSSgiop/SZoM92wZLn5ED4QreICZ0WePAAsGs09lXFA8krfkvdB/Ltw0pOE8Jih7l7GItMIQDavS5JcoVQ3KoAoyhSQFkAgmcBqJBbYBGGJtvUYIETeHVph4f3AbCRRIdmTLJ/6AU91HrYuZZIowLkIS0Y4CZxDvsqkC4R+0rnTv6jnUeYuwh7icCKAiwACdh4vG7eBYJ8JIXZQETD5iM1G88Q4ICHQXtawlXkOzblEdMDxNrW6rWnbBAAD12TAQYMqRFVdMu77RFTitBUJ/OK/AXaUYBGFjysI7Vue314KlpVcZkMYGBylySjjWT7ouKyC+8sKswT9P0IE+i2K4rrQyMcJ2DKqOpXgDH1Mfp+jCj/ESjv8jsesiDMIzaLqK7kaxZV+IiXYbRjeU+AhD2MET7vsG+hXoA8DR7SVKXAEcpxn0IJxhLTItfIAge4UX0O+2r5lgCQlrWLCqsha06HPYCvDTDEclzyLsyz0P0Mcxeo3PYKLAANvAsqvclpRAbiw97IlP7OgESbNsJYGyKsbC4rbEXuowoceFzytipaUoSkuuXJUnvhR3tboKnWsUdhGsAjqDdAUlsJW+3Wlyp9P6hCh6Kadsy9ugPVzosivLDrILv7vDSHSH6bd6EaDHIXAB/5G5LOYaGjeUsJL7Jh6AoJeZhWaHSNXVWiX8l+wI7XLJwQcXcchq4ACTxCKLxIl1j9hxhYVJ+ncV1Jz0PLXdCpEJBArRcqLc2m5G0aK0phKkgJabOjkr5uQJ97bDUgeMDWCkGbAV6rzNUAVMnbKByHh8X3mhBt4ufpPyB1C2Q/VFXHJCFtleS59f0g/6EkMzkCwiiws8z7SHhBrp4iEQm55OQPhkiYqwKdHT0hKtSAyc2gy2Ud6cInr/rH6f2Hc+ThZpcMtZiv8StjRuMlmU6snoUwagGhLTC6HiTO1x5J90q5j7V7Khyk+ly1H1nTvjrI0lVmVKUQj9AT3gRFe0arJemt8FSr5C4Oul7/e2+BRi1gwMGu0GKQjf71Eb/fdrwkm7Vzt9yHdvMs0DCw5nZrX6UZcxd4ULVNWIgcCO1pwQgS3dBtyQE0nbuIwe7cb0voKnHJTpocDa11LUdzQbUfou+SPI88dI1cV+h90OMc7StyH1Shb6qAkNBW1ofZRWq8fePyypD+EI3WmFGWu3jew2iV3EXWbe7Pr/Us0NLAUWtuchw0jKLqfE7aVySgkW1HuiQMCdX+jf9ZQCfvAi+DHM30J6fcpBhYFrpSPoTF0cJXDRgKAAEgCV0hmkj9B+1qrekSuQ8LeyjcQYL1KEfFQ6SxEkw5wk4kta3BknkXAXAArEEFfkQSwVFek/9sb4EULNDSoapa+wQ7Xnkfpn21LmmOSuMoMa8ooqPiuRqcrf3jY/wzwEBRICE2qs6h7p75+VMGHrZgRmVdVWyIB0uIMNS+otod4Cio/oMcCE2YSKDz+6Mcdt0CjW76gFtxnor0lMNAlRYgpU8GQGLMqDbtz3KU9vef3boWaCvgCG9DmLSlPmJOrKuFd6V/pfCVVV+r+pyQUTuwfcLrPfT3yo7bWGGqKqcjIjmZUSXLT3162oQTDwMctedj7CsBhVF3lfvAAyk+Rn1XMjIWukvJ8wg9DJhAAoRuiQ0CENTekLuwNrVUdisstVcdTu11+Z+9BY6rBVqOVRXpRmkdYtdr2lcKX1nfDzGvyHvM/OCJWD+FIEyS0noV6ZyP4E2hp4GQ4/i1MavvGH1JVGIl9S1JLpbYYUJVtZcSAjkeBvkoKs+XboosIN0r5EsgC6QxQg8D+fL+0+pjrvwFXzTyItFtXwpZWWU3xWr654e3gLfAhy3Qlh5H7WVCFQU85uV5PPp+0LJ2Q4WEGxQ5hcnqYwAiIZsqkCShB4R6IMjTGFLV+zh5DbGrKF7sU/FiYkN2hvGGZMnKHVF3BR6ErgAU6+5H3iOue8HarxxNtf5Cyf6waC9/BtBQj295GN2i1QIq1Kj54S3gLXCwBQw4diRidhSNnA4+vXjeYbkPkrX0/FDeg7oPQlfUVhQfQ49tj3qDg6xFHgOmF2wh6ML08BiBNixJkpwqfq3qWRW/hGmSHFZBL4kSK4ZU2Arq7qqAZH1e8jGiLsdVwGm0WoWkoNIiAWLhKAGFycLImzIPQ7+3vtUeNJK85f7YbWaBY+FxhPcsiLWLeSXJEgMOFQxa3Yckw1GeNeZVjAtX+LlH9T3YbROCCVRa8S6oEmenDWgMn1d/awkgUvgHhTjtwi1yTZY0h7Z7WzpdyntY/Q26V4fIfXD+hJlCD4Mq7u6hoHDPaLUCDSvc0+u8txUp6Ec1l/znegvstoDlOHjhODxEYax9U4WByIKvqxdBQR5HWHmOBAj1ICxa7TAADEt4S/59REAB3ZYuhv1q0UlS2BZWPAzRcQnVpB3TN+YVbU3V8wOqLtLtKxJPLNC6ltyHAKSRsBUJ74BKCzgKJAQUph+1u8KbHAYMKR+Xaocp7q/hiCxgHkerFgA2azMqywEKwlc0jEIwEQFFJEGgkOKhYJtGFq9mz+kwf1+bu+gSGFC8F3Say5kEysjFIUmMDFbl323hzEh4BkAHRKBLryJZAusK3auloGjQwlcq4qTBlNGpyYFQ/a6IGuE38zIq6rS99L4QYOwu3KsVmzyMjf3feAt4CzyzwLEKVT277OB/tuOV/g6aUci0IwlCz4+F9/SlRDrS5vUaJ9Ue76h+ZvFEWI4wDL1B6FRIPUa/dLJ6pVSKppJ5GAITlHJ5f9reRV3bGB4IGBQmNO9DpIUNVZpTfV6icFDJdGtbS/hK72HA9iIkheAgLCmTMKf+QjUZeFJ4HxayQplV7/XDW8BbID4LtCcd9xD2wbMIuw4uSPNqXr3PCV2RUDfV3VDt9RDHjvtPWAgJL7GTBhDIXfSOKDxzSrkLgEMhKSTTyV0QrjKgiPskEjxe2LqWIkGAA0/E+n0YcAQe4AkJ+cIOo0iP5DfAQZjKCvYARj+8BbwFErPAsWBVRbXetuLtLFB05ENld+nWssQTJV1yc8lUbVnIsjAAA2oPaF07rBDU0FmFofAwtHh2S/mW/uN8We6iBZPAFh0kfCXvAoouYpbm+SlUxe8sdEhKRteG5xGEqqi/UPiqBa83C3PKn4O3QCMWONahqv0MFdJ3yXfMvjlvDKwVUXdp6WqsH7GBCHMRm098aIFkYSTEZIAgDwNmFGGoAYEFvTUGzw4EXf3otEbS10dmEr8t/gO8BY6zBayRkyVXPcukOg8IWwEMKL2WV9BYUoc7ha0W1DhqTh4IuRAK1sJ4e/UP4/4PGCC2E6GovLwLchcGFHgXEiCk9weSIMT5AZbOrOUu4raHP563gLdAJizgPY4ItwFJdHSv6HsO+4qGUbR7JaRF8eCOwinGvopwrLpvgSmkUAtJXQCBLxLbdO0jFEXNBewo6xm+R2vausf2v/QW8BbwFojJAh44IhjSZMJFzaX2oySRxBV18pt/Z8Hou8sCESqgLXRlAfgIB9znLVQwk/ClF8aQivNIdPNlQKEEMBIh5mHgXXi20D5W9C97C3gLJG2Bluo5nrQxDjp+WG9QVI+PheuLBhwUD5ILIfcB+2qLqmdRfA+s/SB3IaCwqm6S2XgYMKRo66r8RQAaAXgAJABKR6dnCx10j/zvvQW8BZK3gPc4GrFxpd4A9hXeB8WDUHjJecxL+2rpxrKkM9T3Q6/VLRwMcxfyIKDQhrkLWFIkvslp9FDZzReV3SpuC0T4fNa7kdvl3+st4C2QjAUMOFjkjI2TzGe07VGt3kDeBYWC1H5Qeb4MdVf5D5LnW9bpTvmPCvuKxT9gSNELQrkLeRJB7kKehdhRQe6ixxLdnh3VttPGX5i3QMtbwHscTdxCUhqAAtIkhKloUYtcCfpXeCGEtPBM+D2DcBPJbhhRQy8OuPxUv3Xds9yFvAsrXlPuwpSKvXPRxJ3xf+ot4C2QpAWschyPo51l1ZM04O5jh61rS0qWrz2sAIfE+/A8GF0AhyQxAA48jZzCUpa78JXOu83o/+8t4C2QcQv4UFWMNwgANv0r0XORDMfTAExMnE+fY1XOFeYUtRchM8qHCWO8Cf5Q3gLeAolbwANH4ib2H+At4C3gLdBeFvA5jva6n/5qvAW8BbwFEreAB47ETew/wFvAW8BboL0s4IGjve6nvxpvAW8Bb4HELeCBI3ET+w/wFvAW8BZoLwt44Giv++mvxlvAW8BbIHELeK2qxE3sP8BbwFvAW6C9LOBbx7bX/fRX4y3gLeAtkLgFfKgqcRP7D/AW8BbwFmgvCxhweJHD9rqp/mq8BbwFvAWStIAHjiSt64/tLeAt4C3Qhhbwoao2vKn+krwFvAW8BZK0gAeOJK3rj+0t4C3gLdCGFvCsqja8qf6SvAW8BbwFkrSA9ziStK4/treAt4C3QBtawIBjZ2fHN3Jqw5vrL8lbwFvAWyAJC3iPIwmr+mN6C3gLeAu0sQUsx8H1+S50bXyX/aV5C3gLeAvEaAHzOHwBYIwW9YfyFvAW8BZocwv4UFWb32B/ed4C3gLeAnFbwNNx47aoP563gLeAt0CbW8Czqtr8BvvL8xbwFvAWiNsCPlQVt0X98bwFvAW8BdrcAtbICUaVZ1W1+Z32l+ct4C3gLRCTBbzHEZMh/WG8BbwFvAWOiwU8cByXO+2v01vAW8BbICYL+J7jMRnSH8ZbwFvAW+C4WMB7HMflTvvr9BbwFvAWiMkCBhy+cjwma/rDeAt4C3gLHAMLeI/jGNxkf4neAt4C3gJxWsAqx/E4Ojo64jyuP5a3gLeAt4C3QJtawIeq2vTG+svyFvAW8BZIygIeOJKyrD+ut4C3gLdAm1rA5zja9Mb6y/IW8BbwFkjKAh44krKsP663gLeAt0CbWsADR5veWH9Z3gLeAt4CSVnAA0dSlvXH9RbwFvAWaFMLeOBo0xvrL8tbwFvAWyApC3itqqQs64/rLeAt4C3QphbwrWPb9Mb6y/IW8BbwFkjKAj5UlZRl/XG9BbwFvAXa1AIGHF7ksE3vrr8sbwFvAW+BBCzggSMBo/pDegt4C3gLtLMFfKiqne+uvzZvAW8Bb4EELOCBIwGj+kN6C3gLeAu0swU8q6qd766/Nm8BbwFvgQQs4D2OBIzqD+kt4C3gLdDOFjDg2NnZ8Y2c2vku+2vzFvAW8BaI0QLe44jRmP5Q3gLeAt4Cx8ECluPgQk+cOHEcrtdfo7eAt4C3gLdAkxYwj8MXADZpRf/n3gLeAt4Cx8gCPlR1jG62v1RvAW8Bb4E4LODpuHFY0R/DW8BbwFvgGFnAs6qO0c32l+ot4C3gLRCHBXyoKg4r+mN4C3gLeAscIwtYIycYVZ5VdYzuur9UbwFvAW+BJizgPY4mjOf/1FvAW8Bb4DhawAPHcbzr/pq9BbwFvAWasIDvOd6E8fyfegt4C3gLHEcL/P/6Lc11jD3xUgAAAABJRU5ErkJggg==;fontSize=20;labelPosition=right;align=left;" parent="1" vertex="1">
          <mxGeometry x="420" y="105" width="51.55" height="50" as="geometry" />
        </mxCell>
        <mxCell id="zt9zdeETPPBjK3y9inhP-27" value="Terraform&#xa;Template" style="shape=image;verticalLabelPosition=bottom;labelBackgroundColor=default;verticalAlign=top;aspect=fixed;imageAspect=0;image=https://www.aviator.co/blog/wp-content/uploads/2023/01/terraform.png;fontSize=20;labelPosition=center;align=center;" parent="1" vertex="1">
          <mxGeometry x="50" y="208.36" width="72.82" height="54.64" as="geometry" />
        </mxCell>
        <mxCell id="9FD66DVSfg2ypDOEtQaO-1" value="Web User" style="html=1;verticalLabelPosition=middle;align=left;labelBackgroundColor=#ffffff;verticalAlign=middle;strokeWidth=2;strokeColor=#0080F0;shadow=0;dashed=0;shape=mxgraph.ios7.icons.user;fontSize=20;labelPosition=right;" parent="1" vertex="1">
          <mxGeometry x="640" y="300" width="35" height="35" as="geometry" />
        </mxCell>
        <mxCell id="QWaBRjuZFfsu1aSGCHJI-1" value="DICOM&#xa;DEVICE" style="shape=image;verticalLabelPosition=bottom;labelBackgroundColor=default;verticalAlign=top;aspect=fixed;imageAspect=0;image=data:image/png,iVBORw0KGgoAAAANSUhEUgAAAOEAAADhCAMAAAAJbSJIAAAAilBMVEX///8pKSkmJib8/PwAAAAqKioiIiIdHR0TExNmZmYWFhYaGhr09PQjIyN+fn4QEBDk5OSTk5MICAhsbGzb29uhoaHu7u4zMzPw8PCwsLDp6enV1dXg4ODExMTKyspVVVW5ubmlpaV3d3dTU1OJiYk6OjpDQ0NeXl5ycnK1tbU+Pj5HR0eXl5dpaWlTMAMsAAAT3UlEQVR4nO1dCWOquhKGhAAFMYoL7mK1de3//3tvZgKuBEHF9tzHd+85x1aBTDL7TKJh1KhRo0aNGjVq1KhRo0aNGjVq1KhRo0aNGjVq1KhRo0aNGjX+38Dp//86eCMB/+8Qm1IymS6anfl3ZPuudL0g+p53VovphJ8+94/SjMOebJvflhV6vm0zxkwEY4Ht+F5oyf1qOzH+Zf7tx83IdR0gjCFd5jVY4Eg3+owHvz3QsgCeg1UZDD98oA6IY4IIxJVzfAdgswDpMwX8ZzJH2utt/59aSRzqbCNdG5cO187xZWhZwX69+WwCNvNvGxnXc1K2daT3OfvtYZdBYxGFNowcV8h2Q7ZeDWejy4/w0Wy4WpshrrIiMowW/wC3kk7st01XDTvwZbQZThr6z3eHmyj0FM8G0mz3jT/OrSB/g7bjKeYE8tpjPXXHa2btSDrqEs9p37/gd8F7nkeKxQ7Zaky/0ds6Tm/j3+NVEAYklC7r/dk1xKFOI8WfTjiP+flbWaO++B3fLkPUTLCO0fSPMio3Rh2JEmXa8mN89RYf9q6xvaQQFvJHOqCcWCA3A+NPOnax76D6tK2f7tWycb62PNe7hPVxfjF9evxhOah/fSd+68jvgkSt0bFIIYbz8e0nutaNP2OaVuv2g+NlGCCNVqfxp5YRWSzyUBt6UWxk6PuWvHHZBHNHGTfisbqRH2VM1K8BCFrA1AuQoGYjW68cLHmNsJdxJ7i00QwZCfPiDUMvBOTRZojL4kd6z6vVvcbtCqaYRT76slbzzwRVjSXaeGZ9vmo8jc8QjaM3/yPmf7TzBXpow5IOl1aTINf7AQrjt36h3wUY5SRCS+1HXT198MZoPL7i0lbufIyFg55DlP+pNwAIDCB2N915nnbnoGlucci98wBZn9l2hkl5LyYQzAoRbvId0JHFxI09DHNYEFNzHReusdkvk9gCFhVmuLrzsYl1k8QAXXlv7M0QfDg7Gv0eo4Lt2tmoRNv3xpDhtbmXXlvW3Y1VCBNhf/+iRuVLB9eifc/BAkO+vfG84/sXAYmw8v78lWMuh09wsJi8x6KPgxtND2TR+/wdPuVGDz0Zd1PhI7ixQWfCWvwGidyYhWAHnXWFrhWq5zkmOMJfScT1KVkRFVIDPC3McH7yy3PMyxkGqK0DMfiFWOrDwRxgt+jH+9NF82P5vfv62i8/motpv9hl3BijA+d8vJtPuTGEoFZYw7sPxvcH288vS3q+HQQBpr4Dx5PWV6FsPizd1gLnpsCTXgoOMS1qmdU9ZxvebWzXVuhkFC0caa3jRo4HnqKJMbH3Xt+GG2sHAt4dvzu80cqUzokqRqt4/NmWoj26O0v8S/HpWxFLEZjybqKhv/IwoY3RIzCmdMR+OV9+R/Dag1VFVRX43uoOs4IoujArYfyisd8H6sWABcJr534K1vcgfarMMNcKNovZ6KhFW7PFRliUG4coMOzxOzXSlYf69G0hPzym7YMl3GUneo+fmu0oPQwU7NrH1T67Ztz+pvoNTMBunD94/oUR2l3393UYSViXMD81zVfSxvqg73WuzPXpKj7rqApjINv5GmeKqUqvoIV5AZrOXcnvzzGByGxrM8n9XHdj0TrKeX6ee20z06/OA77CRGryuSeMmcOECOS6qylaEEiwunOLNJHI4VRudCXE0PJdFuPTAeFq5vHo1MUStu1s1fDob/3Hhw5Gmbandz7h2g081HnTIo58EHuvlUNgjBPOvGU65YkHOhjHi8PhsIjHA+NEMvzTUulIkGz9tE1g0pjzntxb24NH5S3hNGSCCevC4RnEzcgKpet7vnRD66u5Ta0gcfGKChu5yusTLI93eIc65ZIxIXX6A0sYrqliuhNmP65SmtiSIeAP86X8mR0vMYyFhb/1xoZ2GVH6mfsyMnKwhSc5Hd273BhhjY152+RH+BN/hyfHLW2sEeCX7uOT27f14PcBG+kEllMwI+NXk5OBNZg5K0cpLG2gIdwmIwWXa2kpVxQdtzC0gFfRZUOfLZDzNI/MjRhDCHupU70cmB+mdl0BRVdo4UC+NG/C4JrgQ2JUlf7ctmyBjptviU0vHndbk/H00BGhj7IK9rLN0/gY4jGB4YqOQiNC77R6g3EAtedlFMZoFJy0jPBW6ahac0ltJzJqd89HzsftiBQuk/NjPnSFn81JWBwgioJHV61r9mCXXM1EAodByCH8dSKAxjjykT/lbqvqimcJDIMPvyTxbpTkCTAkg8mItBRgTGrvq01ncNBoEBcutR+AIMC0BVotJGdMoaG21skXFtY87CQKgxVHec1xsPcQiXmTihdxAYbXHerebaFZSwI5INBDl1OuW1qHpjV3KbboqguMOMSEhabexOHhMAFVl4bnATgrWmnfAEnOT8KirQh0DNU0NPoRXZ0VhilBpFbdMD4CCMu0GdgJckjF2rQBej7YZ7+HLIy5TUU/53sHCLR6Rn50ewDdLJxlsszIBHoxN77BK3CqZFKIakHYfU1sz8GxYkc9aqywOJbVjnB1UU+CryNXycKDIKNXr/ksinnF2eFD3iPAJQfVmISpMxRJeb8qhcNGJ081wYFHBFbSyQ51yRZpTdWL8AGCFurS3D1QBE4y/3wPjkxBDwSNBFgB9UMTpkmrTQYWE/ZPqRGXBRosrRhi0s9KXPIhVm1kkbQDrJvE5LJyZI1uKMzgW+d/f4MmMssPuzhG1mmVbjCBN+150lMZAbWh1qpcgMN0gP5KPUHwa3GesimE4Nu0qgwSZ7Ayno6Fep5AU0lDwwAkxzG4xt4mM6riKOWb6Z5RsapBkwsPyJ5fTBZZCV8u8XXxPtE4pAmhjyOf2LpCDE6x3uF4AZo+MUnm08FUChuXjSPDguHa5+ZTL8C/gzS3BUYPnAqd0QN7KRxd+PEKQBDKQjLhFz60Cu1BmFJTCVpVaLk5C70z1lz5qfG4BYc1rFSZ7gMI6tTLfhLgGv2GejGEwNCdqjfXdkmF0AqJNelGU5BhqeNEjJuLy3dp8K+A2dgZwUd7SwU9fXgxpqVEDnbJVvCGX24ccDWEDcxXbs0EhF2b/MUMwld17ScNHySE/OJPF31JbJaQDPQ8Dg3WjdmKebEluGSCegUOr4VzBhIAWkqbUe8Ad9jVUdgHF1L5nUCOTZUZTNT6JI37k02LMcqJS906hrhTpZm4Eem9e+IUr7q9NS1LJMoktjzVeTe1HIt0WwPGBZENLSJ6r/eLi2fAYJmxVNXMIer60qjLtm9WmasB7mP+gUY0W8Xqd7O2ejFgp8huhXm/cp5HCyhMGbuDkb9mncj1r5bCS3fjNNOYJk3DHmBd0y0nLA1UL5/qdRM439a4tOTU5JeznkE3BIOAZu7YFsOPr4jCZBEw1Jflbs0xz5ywAIYXtoYFiMLCLS6lAWsoXFxDnlj5sxcXFOIalvM7Gkhhuoa+qQsRq6cwCUC5MRjTJMOLZGdhHzMsJzYz3XIFW4ygThMkGMuTwwopBC71SIV2haX8lwkLVW6NdGlixdrlhaUbUmWJsAbrr+smI11aHYWTMJ3oHx+icnzx6cFo8AX/Zib7plfGEK3FtNStyVVLCqo7uJPOHq6qtRZAIVMKb+2kFt8XzCFJxDyjqYY4DnNCvGwccORJbc1m+pwhiniFFIJ/LNSzZ65U1ZexJan7k1PtW+UBeSM8cWxBfNjClMiZ3GiBC69Lt+E85rbAP4kRRgDKC+0OE2FoDZMsGSWkZ+o1pqG84gaRGw3M9Sa+OmYstbkokPayzkQZoF/KZJriVQmZYzV+Bi6dpxwe1AdUlS+M+CwPSwyry1Rg34ZbnV86wEKzpfZbn6hMHJtBSIkowhjZuQybYgYkVZHIiDqPCFMcZgnuKAuInhJ9kAVMkoEoEb0Rdr/k7BO6AnbLBDt6yQfylLO5AeZpqoyeGrTbWhd+t30VAOHYel5eheUGHXQRktpnnFM4MIbIRaK6NA1HOdcmgsYgiEnhyehjeBCOiwyFo27BEr7Ki1BDgi5NQ94S09dQnwb/Ysekbwawm8RL9FzbEyzQlfuvsbNNgb17eOORB3ZV6D65xJaAXYXVJyzCmr5ODNCjSg39AHeBOp1DuwA6PkihSO56cJVKzs5YYhGnykwURN9mDgu1vJSFsLNCYl3QLwLkvLQC0IgCWE/drkMQBJHDRC8AZglz/DEsIh2L9uvgpnldj8RLU36DLg3FKbIo6y2VA+o8M9D4jLSLxgxYym7OPbLO4CcNa8SGeg21xLp5CR1dHlj60WcYVL+UqzQ9J5HxigB7L5M0/sohz1dDITWU6YtfrwDGLnnNZei5maqrD+XQ/hi17mOEvC+paNWlXgztEsbUflRpqzDJAXP0hYOOn5RzsdbCctrfToBgC9sT6CIqHG+0iuSDGqYrLXOjHkASG7rmsxHyJm6lmWHR87vgbfeBwN5SY4XN/b52V+yAOOhYo6wEW2ITZFNde91CgqTA+wnnFQBZFjAsa6oimqG+ZDU8Pr06TGWq23UtQIlBGTrkPxaca/AGIejd4vrnbQGYo54T1daAx8kpLJY+zdQXqBqRn9yibYRg55D7PdwnJAbai7qW2vGu9ThegfScGb06w0g4oGPMMOVZVF5GdnKmmXZ9qHynNvXnTO/zGCUUMn2IBqJIcy3y9ytcoancg7zujX4yC6ZV5bFuPD0rKJcDD6HABpmJrinm9rbGhNr73bxW/IMU6mhJq9LuS5SviOSloX0OpxUp4z2SghK06tq7NrCX2ozQVpUbcimo4uUafWo3x+xyDEFKajy0n2yeQ2HPZcL5wEJz0ajzMWC5fY8ONmP6RZyFQgRRyTtTE5WuVYfzBpofOdsFeR3KrwDOoVBRkn5/5QdEALKs4zF09Y1CqoGRgRnGpulqO/cwuAj5zMIsjC4vSzuUIr1dy0aDcr06Q9BCTQRRFbjzlYYWSTfPCF1gptk3g9MtmDZZpgPHgpXItLM4Ux++YLDCo/JNHmWBwQWYgRaeORJmeqe8YQEjZ5zFdg8jF66zsuwsB48VNGnYIo+j4g7aYdIbCGIh7CjT9FKqtDwnUWlHo6IbzIZJa1NJQxTz5x8GxqBYGWx8gQflZ0VytHn+IdeRnN6v27Z3atoxA+yEwkadUvWQ8ki6H7kxxRZ7K779BLZia5Py+cAsTBbrb5F0iqYhfgKT8cCti6Mr1dYj1cbGnO6NiV46In+npB60Oe32QKEuxsUe8T1IAJPV1bgRrWNXXSMCP8vZNy62i6jyr7176N7cwJS6vD76tLF31CkxaBWdig/I4EbfPzaFYCFTeBvj3L/mRsdh+j7pe8AkiX1phOCOGDcmBS9URk6loQXnx534ELZS0uEyAT9CKTQfq37BcmFV4sqTaKPDGiY7b9ClYpWGFqqDNRWVDzww1toaZ+oPN7V4j5vk5PJjYZmrXQ1eJynHzvOqNq8APGZ31hnZQMNAfcHpkLAcb8q8jez5aGFkaR8zeWDqZWAK+yv9DTj+wWNCXhxL7CJNKcCjZYV9phsWSXfawyRSv9hJjKcSd3576fY+rO7ZVZ/eBh5pkPYr4UavQFDiV5GEXdJo7R+XFEoO77hqgiCjy5h7nEGIgqsOLdSJEUGizTinLZEmo/MeuNptbT8TvlG/d+K1cDp74uIMlb6ds2XnVcCNZmmdFy0hHojFVPkeFIHN2FNHAXFyCxOrP8St0AEegXWUClREZaOWsjhAaHQRxS3oZBLaH4PWPtC1LxcCzBmEiYwke6xufO5nJx5VtVi44rzfBFcRN45STe9KTTwAmJ2eFNgsTNVQxi4DCZzCyvcBY+3gLMmEDBQDiWFbJVMZ6z9lkLlKDlt9VDOBnTavJMCigrt95v4FQORcxC+gUW1rPqDoOP/Mk2LAVCSdYdITu6swgmK3+Mn73wOGT/JiGuk7ZfDfAIyzpd+ZXhCcNjub/LyhLMXQfcMhkePrHYg8PdcCY7eXlNg3SUn49uRI2hxY9Wn03RDMX6awYyrVXP58PImfnyXTbcXFNvaKw0M6B4d5WedUU2mRBfbzwNqEyGRG7B/XbdZ/GTRGl6tmIvwCjicBNxBCc3QC5jK9qo+KGvnZGcsupmyfJu9IJYQsGclhOieuagrRNcxqwo7xyF077ZAp1OxFX9+VBRu7qbJyPedOcWWgDVyfGRSCmntZFgyCpsxuCNwKKCqnUAQsK4CJ5QtNFcYoWZYdiwnFDi5+ArQ15rcoXL+DQvL997dR/FsoRJP7VOxSCHOQBe/66TzDX30CGgpjV1SfxKBqs8n8+bkXMkwpfPUajjfn3s4cv/BCVn88eyPA40UC2zn6IA4eIIgUvlCXEoV96Zw9xrZNbMbQtdS9DBS3XbW/Yoo4dhkL5p1s/JyhiGu6BHmTU2MbXp+RXazb8UkKgUTTDS5cECzpd+lMQJ0N1+Nsic4tPu2goXueeTq2FNVW1hSF8GfQ24szmD+owPE0Ezod0cw4nPxsmNp3mKmuVOdG4nkGxkJcYN9745dcHr+8GL+/mAifmK6Z+JRm8KCDKtT3PLKAuax1/Rh9d8vrqTMuKmppMD5Y7WCeIzq8MxIPIIpoCfHaXeYp5m/9Ci9dY48xCqj8xh8B+Z2sX/xYm1/BwKZ01GPA2EG3ifvP4KnE+79C4f/BGmq3KeeD/zMU/ufXEMzZvvkY8NCCv0+hQ4fkPwKfLg3e9wUIj4G2x2Y4bgVAbc7VZ5qeBf8KAvMxpw0dGmFXH8M/i9mX5z4MT977tpLfB7/0lkvj/rcP1ahRo0aNGjVq1KhRo0aNGjVq1KhRo0aNGjVq1KhRo0aNGjVq/F38D5ANJ4B7qsJNAAAAAElFTkSuQmCC;fontSize=20;labelPosition=center;align=center;" parent="1" vertex="1">
          <mxGeometry x="689" y="80" width="80" height="80" as="geometry" />
        </mxCell>
        <mxCell id="QWaBRjuZFfsu1aSGCHJI-2" value="" style="endArrow=classic;startArrow=classic;html=1;rounded=0;exitX=1;exitY=0.75;exitDx=0;exitDy=0;entryX=0.534;entryY=-0.009;entryDx=0;entryDy=0;entryPerimeter=0;" parent="1" source="zt9zdeETPPBjK3y9inhP-21" target="9FD66DVSfg2ypDOEtQaO-1" edge="1">
          <mxGeometry width="50" height="50" relative="1" as="geometry">
            <mxPoint x="450" y="450" as="sourcePoint" />
            <mxPoint x="940" y="150" as="targetPoint" />
            <Array as="points">
              <mxPoint x="660" y="150" />
            </Array>
          </mxGeometry>
        </mxCell>
        <mxCell id="QWaBRjuZFfsu1aSGCHJI-3" value="" style="endArrow=classic;startArrow=classic;html=1;rounded=0;entryX=0;entryY=0.5;entryDx=0;entryDy=0;exitX=1;exitY=0.5;exitDx=0;exitDy=0;" parent="1" source="zt9zdeETPPBjK3y9inhP-21" target="QWaBRjuZFfsu1aSGCHJI-1" edge="1">
          <mxGeometry width="50" height="50" relative="1" as="geometry">
            <mxPoint x="450" y="450" as="sourcePoint" />
            <mxPoint x="500" y="400" as="targetPoint" />
          </mxGeometry>
        </mxCell>
        <mxCell id="9FD66DVSfg2ypDOEtQaO-3" value="Browser" style="image;aspect=fixed;html=1;points=[];align=left;fontSize=20;image=img/lib/azure2/general/Browser.svg;labelPosition=right;verticalLabelPosition=middle;verticalAlign=middle;" parent="1" vertex="1">
          <mxGeometry x="632.5" y="230.5" width="50" height="40" as="geometry" />
        </mxCell>
        <mxCell id="9FD66DVSfg2ypDOEtQaO-4" value="Internet" style="image;aspect=fixed;perimeter=ellipsePerimeter;html=1;align=center;shadow=0;dashed=0;spacingTop=3;image=img/lib/active_directory/internet_globe.svg;fontSize=20;" parent="1" vertex="1">
          <mxGeometry x="580" y="105" width="60" height="60" as="geometry" />
        </mxCell>
        <mxCell id="QWaBRjuZFfsu1aSGCHJI-7" value="" style="sketch=0;aspect=fixed;pointerEvents=1;shadow=0;dashed=0;html=1;strokeColor=none;labelPosition=center;verticalLabelPosition=bottom;verticalAlign=top;align=center;fillColor=#00188D;shape=mxgraph.mscae.enterprise.lock" parent="1" vertex="1">
          <mxGeometry x="652.4" y="140" width="15.6" height="20" as="geometry" />
        </mxCell>
        <mxCell id="QWaBRjuZFfsu1aSGCHJI-8" value="" style="sketch=0;aspect=fixed;pointerEvents=1;shadow=0;dashed=0;html=1;strokeColor=none;labelPosition=center;verticalLabelPosition=bottom;verticalAlign=top;align=center;fillColor=#00188D;shape=mxgraph.mscae.enterprise.lock" parent="1" vertex="1">
          <mxGeometry x="652.4" y="110" width="15.6" height="20" as="geometry" />
        </mxCell>
        <mxCell id="kuSQPpQNZDagD1Rg0DpU-1" value="" style="outlineConnect=0;dashed=0;verticalLabelPosition=bottom;verticalAlign=top;align=center;html=1;shape=mxgraph.aws3.certificate;fillColor=#5294CF;gradientColor=none;" parent="1" vertex="1">
          <mxGeometry x="465.77" y="150" width="24.23" height="30" as="geometry" />
        </mxCell>
        <mxCell id="kuSQPpQNZDagD1Rg0DpU-2" value="Infrastructure&lt;div style=&quot;font-size: 20px;&quot;&gt;Layer&lt;/div&gt;" style="shape=curlyBracket;whiteSpace=wrap;html=1;rounded=1;flipH=1;labelPosition=right;verticalLabelPosition=middle;align=left;verticalAlign=middle;strokeWidth=3;rotation=0;fontSize=20;" parent="1" vertex="1">
          <mxGeometry x="570" y="300" width="20" height="180" as="geometry" />
        </mxCell>
        <mxCell id="h-PbxhSQ2XW8mEWoM5at-2" value="" style="shape=image;verticalLabelPosition=bottom;labelBackgroundColor=default;verticalAlign=top;aspect=fixed;imageAspect=0;image=https://www.svgrepo.com/show/373924/nginx.svg;fontStyle=0;labelPosition=right;align=left;fontSize=20;" vertex="1" parent="1">
          <mxGeometry x="490" y="105" width="50" height="50" as="geometry" />
        </mxCell>
        <mxCell id="h-PbxhSQ2XW8mEWoM5at-4" value="" style="endArrow=classic;startArrow=classic;html=1;rounded=0;entryX=-0.026;entryY=0.312;entryDx=0;entryDy=0;entryPerimeter=0;" edge="1" parent="1" target="zt9zdeETPPBjK3y9inhP-26">
          <mxGeometry width="50" height="50" relative="1" as="geometry">
            <mxPoint x="344.21999999999997" y="120" as="sourcePoint" />
            <mxPoint x="410" y="120" as="targetPoint" />
          </mxGeometry>
        </mxCell>
        <mxCell id="h-PbxhSQ2XW8mEWoM5at-5" value="" style="endArrow=classic;startArrow=classic;html=1;rounded=0;entryX=-0.031;entryY=0.9;entryDx=0;entryDy=0;entryPerimeter=0;" edge="1" parent="1" target="zt9zdeETPPBjK3y9inhP-26">
          <mxGeometry width="50" height="50" relative="1" as="geometry">
            <mxPoint x="344.21999999999997" y="149.5" as="sourcePoint" />
            <mxPoint x="404.21999999999997" y="149.5" as="targetPoint" />
          </mxGeometry>
        </mxCell>
        <mxCell id="h-PbxhSQ2XW8mEWoM5at-6" value="" style="sketch=0;aspect=fixed;pointerEvents=1;shadow=0;dashed=0;html=1;strokeColor=none;labelPosition=center;verticalLabelPosition=bottom;verticalAlign=top;align=center;fillColor=#00188D;shape=mxgraph.mscae.enterprise.lock" vertex="1" parent="1">
          <mxGeometry x="360" y="105" width="15.6" height="20" as="geometry" />
        </mxCell>
        <mxCell id="h-PbxhSQ2XW8mEWoM5at-7" value="" style="shape=curlyBracket;whiteSpace=wrap;html=1;rounded=1;flipH=1;labelPosition=right;verticalLabelPosition=middle;align=left;verticalAlign=middle;strokeWidth=3;rotation=-180;size=0.4999999999999886;" vertex="1" parent="1">
          <mxGeometry x="170" y="60.5" width="20" height="180.5" as="geometry" />
        </mxCell>
        <mxCell id="h-PbxhSQ2XW8mEWoM5at-8" value="cloud-init" style="text;html=1;align=center;verticalAlign=middle;whiteSpace=wrap;rounded=0;fontSize=20;horizontal=0;" vertex="1" parent="1">
          <mxGeometry x="130" y="105.75" width="60" height="90" as="geometry" />
        </mxCell>
      </root>
    </mxGraphModel>
  </diagram>
  <diagram id="QTiDfhaBVZw6TGImOVXF" name="Architecture">
    <mxGraphModel dx="2522" dy="1377" grid="1" gridSize="10" guides="1" tooltips="1" connect="1" arrows="1" fold="1" page="1" pageScale="1" pageWidth="850" pageHeight="1100" math="0" shadow="0">
      <root>
        <mxCell id="0" />
        <mxCell id="1" parent="0" />
        <mxCell id="wy8Q__5yKFntjVzz3vQ7-47" value="VPC" style="outlineConnect=0;gradientColor=none;html=1;whiteSpace=wrap;fontSize=12;fontStyle=0;shape=mxgraph.aws4.group;grIcon=mxgraph.aws4.group_vpc;strokeColor=#879196;fillColor=none;verticalAlign=top;align=left;spacingLeft=30;fontColor=#879196;dashed=0;" parent="1" vertex="1">
          <mxGeometry x="80" y="180" width="890" height="600" as="geometry" />
        </mxCell>
        <mxCell id="wy8Q__5yKFntjVzz3vQ7-43" value="Availability zone 1" style="outlineConnect=0;html=1;whiteSpace=wrap;fontSize=12;fontStyle=0;shape=mxgraph.aws4.group;grIcon=mxgraph.aws4.group_availability_zone;verticalAlign=top;align=left;spacingLeft=30;dashed=1;fillColor=#dae8fc;strokeColor=#6c8ebf;" parent="1" vertex="1">
          <mxGeometry x="100" y="210" width="370" height="550" as="geometry" />
        </mxCell>
        <mxCell id="wy8Q__5yKFntjVzz3vQ7-44" value="Public subnet" style="points=[[0,0],[0.25,0],[0.5,0],[0.75,0],[1,0],[1,0.25],[1,0.5],[1,0.75],[1,1],[0.75,1],[0.5,1],[0.25,1],[0,1],[0,0.75],[0,0.5],[0,0.25]];outlineConnect=0;gradientColor=none;html=1;whiteSpace=wrap;fontSize=12;fontStyle=0;shape=mxgraph.aws4.group;grIcon=mxgraph.aws4.group_security_group;grStroke=0;strokeColor=#248814;fillColor=#E9F3E6;verticalAlign=top;align=left;spacingLeft=30;fontColor=#248814;dashed=0;" parent="1" vertex="1">
          <mxGeometry x="110" y="240" width="340" height="350" as="geometry" />
        </mxCell>
        <mxCell id="wy8Q__5yKFntjVzz3vQ7-45" value="" style="rounded=0;whiteSpace=wrap;html=1;fillColor=#f5f5f5;strokeColor=#666666;fontColor=#333333;" parent="1" vertex="1">
          <mxGeometry x="131.56" y="270" width="288.44" height="280" as="geometry" />
        </mxCell>
        <mxCell id="wy8Q__5yKFntjVzz3vQ7-46" value="Private subnet" style="points=[[0,0],[0.25,0],[0.5,0],[0.75,0],[1,0],[1,0.25],[1,0.5],[1,0.75],[1,1],[0.75,1],[0.5,1],[0.25,1],[0,1],[0,0.75],[0,0.5],[0,0.25]];outlineConnect=0;gradientColor=none;html=1;whiteSpace=wrap;fontSize=12;fontStyle=0;shape=mxgraph.aws4.group;grIcon=mxgraph.aws4.group_security_group;grStroke=0;strokeColor=#147EBA;fillColor=#E6F2F8;verticalAlign=top;align=left;spacingLeft=30;fontColor=#147EBA;dashed=0;" parent="1" vertex="1">
          <mxGeometry x="110" y="600" width="340" height="130" as="geometry" />
        </mxCell>
        <mxCell id="wy8Q__5yKFntjVzz3vQ7-56" value="EC2" style="outlineConnect=0;dashed=0;verticalLabelPosition=middle;verticalAlign=middle;align=right;html=1;shape=mxgraph.aws3.ec2;fillColor=#F58534;gradientColor=none;labelPosition=left;" parent="1" vertex="1">
          <mxGeometry x="166.5299999999999" y="280" width="32.94" height="40" as="geometry" />
        </mxCell>
        <mxCell id="wy8Q__5yKFntjVzz3vQ7-57" value="Availability zone 2" style="outlineConnect=0;html=1;whiteSpace=wrap;fontSize=12;fontStyle=0;shape=mxgraph.aws4.group;grIcon=mxgraph.aws4.group_availability_zone;verticalAlign=top;align=left;spacingLeft=30;dashed=1;fillColor=#dae8fc;strokeColor=#6c8ebf;" parent="1" vertex="1">
          <mxGeometry x="550" y="210" width="388.5" height="550" as="geometry" />
        </mxCell>
        <mxCell id="wy8Q__5yKFntjVzz3vQ7-58" value="Public subnet" style="points=[[0,0],[0.25,0],[0.5,0],[0.75,0],[1,0],[1,0.25],[1,0.5],[1,0.75],[1,1],[0.75,1],[0.5,1],[0.25,1],[0,1],[0,0.75],[0,0.5],[0,0.25]];outlineConnect=0;gradientColor=none;html=1;whiteSpace=wrap;fontSize=12;fontStyle=0;shape=mxgraph.aws4.group;grIcon=mxgraph.aws4.group_security_group;grStroke=0;strokeColor=#248814;fillColor=#E9F3E6;verticalAlign=top;align=left;spacingLeft=30;fontColor=#248814;dashed=0;" parent="1" vertex="1">
          <mxGeometry x="570" y="240" width="338.5" height="350" as="geometry" />
        </mxCell>
        <mxCell id="wy8Q__5yKFntjVzz3vQ7-63" value="Private subnet" style="points=[[0,0],[0.25,0],[0.5,0],[0.75,0],[1,0],[1,0.25],[1,0.5],[1,0.75],[1,1],[0.75,1],[0.5,1],[0.25,1],[0,1],[0,0.75],[0,0.5],[0,0.25]];outlineConnect=0;gradientColor=none;html=1;whiteSpace=wrap;fontSize=12;fontStyle=0;shape=mxgraph.aws4.group;grIcon=mxgraph.aws4.group_security_group;grStroke=0;strokeColor=#147EBA;fillColor=#E6F2F8;verticalAlign=top;align=left;spacingLeft=30;fontColor=#147EBA;dashed=0;" parent="1" vertex="1">
          <mxGeometry x="570" y="600" width="338.5" height="130" as="geometry" />
        </mxCell>
        <mxCell id="wy8Q__5yKFntjVzz3vQ7-65" value="PostgreSQL" style="outlineConnect=0;dashed=0;verticalLabelPosition=bottom;verticalAlign=top;align=center;html=1;shape=mxgraph.aws3.rds;fillColor=#2E73B8;gradientColor=none;labelPosition=center;" parent="1" vertex="1">
          <mxGeometry x="150" y="650" width="50" height="50" as="geometry" />
        </mxCell>
        <mxCell id="wy8Q__5yKFntjVzz3vQ7-77" value="Browser" style="aspect=fixed;html=1;points=[];align=left;image;fontSize=12;image=img/lib/azure2/general/Browser.svg;labelPosition=right;verticalLabelPosition=middle;verticalAlign=middle;" parent="1" vertex="1">
          <mxGeometry x="315.00000000000006" y="60" width="43.13" height="34.5" as="geometry" />
        </mxCell>
        <mxCell id="wy8Q__5yKFntjVzz3vQ7-81" value="" style="rounded=1;whiteSpace=wrap;html=1;verticalAlign=middle;" parent="1" vertex="1">
          <mxGeometry x="160" y="340" width="230" height="180" as="geometry" />
        </mxCell>
        <mxCell id="wy8Q__5yKFntjVzz3vQ7-78" value="Envoy&lt;br&gt;Proxy" style="sketch=0;outlineConnect=0;fontColor=#232F3E;gradientColor=none;strokeColor=#232F3E;fillColor=#ffffff;dashed=0;verticalLabelPosition=middle;verticalAlign=middle;align=right;html=1;fontSize=12;fontStyle=0;aspect=fixed;shape=mxgraph.aws4.resourceIcon;resIcon=mxgraph.aws4.container_2;labelPosition=left;" parent="1" vertex="1">
          <mxGeometry x="241.5" y="362.5" width="59.5" height="59.5" as="geometry" />
        </mxCell>
        <mxCell id="wy8Q__5yKFntjVzz3vQ7-79" value="Orthanc" style="sketch=0;outlineConnect=0;fontColor=#232F3E;gradientColor=none;strokeColor=#232F3E;fillColor=#ffffff;dashed=0;verticalLabelPosition=bottom;verticalAlign=top;align=center;html=1;fontSize=12;fontStyle=0;aspect=fixed;shape=mxgraph.aws4.resourceIcon;resIcon=mxgraph.aws4.container_2;labelPosition=center;" parent="1" vertex="1">
          <mxGeometry x="181" y="446.5" width="51" height="51" as="geometry" />
        </mxCell>
        <mxCell id="wy8Q__5yKFntjVzz3vQ7-82" value="" style="endArrow=classic;html=1;rounded=0;" parent="1" source="wy8Q__5yKFntjVzz3vQ7-78" target="wy8Q__5yKFntjVzz3vQ7-79" edge="1">
          <mxGeometry width="50" height="50" relative="1" as="geometry">
            <mxPoint x="470" y="510" as="sourcePoint" />
            <mxPoint x="206" y="460" as="targetPoint" />
          </mxGeometry>
        </mxCell>
        <mxCell id="wy8Q__5yKFntjVzz3vQ7-86" value="Device" style="shape=image;html=1;verticalAlign=middle;verticalLabelPosition=middle;labelBackgroundColor=#ffffff;imageAspect=0;aspect=fixed;image=https://cdn1.iconfinder.com/data/icons/computer-hardware-hand-drawn-vol-2/52/scanner__scan__machine__media__multimedia__scanning__office-128.png;labelPosition=left;align=right;" parent="1" vertex="1">
          <mxGeometry x="160" y="41.5" width="46" height="46" as="geometry" />
        </mxCell>
        <mxCell id="wy8Q__5yKFntjVzz3vQ7-88" value="Admin" style="sketch=0;aspect=fixed;html=1;points=[];align=left;image;fontSize=12;image=img/lib/mscae/Person.svg;labelPosition=right;verticalLabelPosition=middle;verticalAlign=middle;" parent="1" vertex="1">
          <mxGeometry x="492.75" y="978.5" width="35.89" height="48.5" as="geometry" />
        </mxCell>
        <mxCell id="wy8Q__5yKFntjVzz3vQ7-98" value="Secret Manager" style="outlineConnect=0;dashed=0;verticalLabelPosition=bottom;verticalAlign=top;align=center;html=1;shape=mxgraph.aws3.endpoints;fillColor=#F58536;gradientColor=none;" parent="1" vertex="1">
          <mxGeometry x="354.99999999999994" y="840" width="40" height="42" as="geometry" />
        </mxCell>
        <mxCell id="wy8Q__5yKFntjVzz3vQ7-99" value="S3 Endpoint" style="outlineConnect=0;dashed=0;verticalLabelPosition=bottom;verticalAlign=top;align=center;html=1;shape=mxgraph.aws3.bucket;fillColor=#E05243;gradientColor=none;" parent="1" vertex="1">
          <mxGeometry x="250" y="941.5" width="40" height="40" as="geometry" />
        </mxCell>
        <mxCell id="P0doHV3i4hpOtutFLJiP-2" value="Orthanc" style="sketch=0;outlineConnect=0;fontColor=#232F3E;gradientColor=none;strokeColor=#232F3E;fillColor=#ffffff;dashed=0;verticalLabelPosition=bottom;verticalAlign=top;align=center;html=1;fontSize=12;fontStyle=0;aspect=fixed;shape=mxgraph.aws4.resourceIcon;resIcon=mxgraph.aws4.container_2;labelPosition=center;" parent="1" vertex="1">
          <mxGeometry x="250" y="446.5" width="51" height="51" as="geometry" />
        </mxCell>
        <mxCell id="P0doHV3i4hpOtutFLJiP-3" value="Orthanc" style="sketch=0;outlineConnect=0;fontColor=#232F3E;gradientColor=none;strokeColor=#232F3E;fillColor=#ffffff;dashed=0;verticalLabelPosition=bottom;verticalAlign=top;align=center;html=1;fontSize=12;fontStyle=0;aspect=fixed;shape=mxgraph.aws4.resourceIcon;resIcon=mxgraph.aws4.container_2;labelPosition=center;" parent="1" vertex="1">
          <mxGeometry x="315" y="446.5" width="51" height="51" as="geometry" />
        </mxCell>
        <mxCell id="P0doHV3i4hpOtutFLJiP-4" value="" style="endArrow=classic;html=1;rounded=0;" parent="1" source="wy8Q__5yKFntjVzz3vQ7-78" target="P0doHV3i4hpOtutFLJiP-3" edge="1">
          <mxGeometry width="50" height="50" relative="1" as="geometry">
            <mxPoint x="254.5" y="438.3976377952756" as="sourcePoint" />
            <mxPoint x="242" y="450.6023622047244" as="targetPoint" />
          </mxGeometry>
        </mxCell>
        <mxCell id="P0doHV3i4hpOtutFLJiP-5" value="" style="endArrow=classic;html=1;rounded=0;" parent="1" source="wy8Q__5yKFntjVzz3vQ7-78" target="P0doHV3i4hpOtutFLJiP-2" edge="1">
          <mxGeometry width="50" height="50" relative="1" as="geometry">
            <mxPoint x="309.17857142857156" y="431" as="sourcePoint" />
            <mxPoint x="326.82142857142844" y="450" as="targetPoint" />
          </mxGeometry>
        </mxCell>
        <mxCell id="P0doHV3i4hpOtutFLJiP-7" value="S3&lt;br&gt;Endpoint" style="sketch=0;outlineConnect=0;fontColor=#232F3E;gradientColor=none;fillColor=#4D27AA;strokeColor=none;dashed=0;verticalLabelPosition=middle;verticalAlign=middle;align=left;html=1;fontSize=12;fontStyle=0;aspect=fixed;pointerEvents=1;shape=mxgraph.aws4.endpoint;labelPosition=right;" parent="1" vertex="1">
          <mxGeometry x="241.5" y="650" width="50" height="50" as="geometry" />
        </mxCell>
        <mxCell id="P0doHV3i4hpOtutFLJiP-9" value="Secret&lt;br&gt;Manager&lt;br&gt;Endpoint" style="sketch=0;outlineConnect=0;fontColor=#232F3E;gradientColor=none;fillColor=#4D27AA;strokeColor=none;dashed=0;verticalLabelPosition=middle;verticalAlign=middle;align=left;html=1;fontSize=12;fontStyle=0;aspect=fixed;pointerEvents=1;shape=mxgraph.aws4.endpoint;labelPosition=right;" parent="1" vertex="1">
          <mxGeometry x="349.99999999999994" y="650" width="50" height="50" as="geometry" />
        </mxCell>
        <mxCell id="P0doHV3i4hpOtutFLJiP-10" value="" style="endArrow=classic;startArrow=classic;html=1;rounded=0;exitX=0.5;exitY=0;exitDx=0;exitDy=0;exitPerimeter=0;" parent="1" source="wy8Q__5yKFntjVzz3vQ7-99" target="P0doHV3i4hpOtutFLJiP-7" edge="1">
          <mxGeometry width="50" height="50" relative="1" as="geometry">
            <mxPoint x="318.56" y="610" as="sourcePoint" />
            <mxPoint x="368.56" y="560" as="targetPoint" />
          </mxGeometry>
        </mxCell>
        <mxCell id="P0doHV3i4hpOtutFLJiP-16" value="Private Link" style="edgeLabel;html=1;align=center;verticalAlign=middle;resizable=0;points=[];rotation=-90;" parent="P0doHV3i4hpOtutFLJiP-10" vertex="1" connectable="0">
          <mxGeometry x="0.6429" y="-1" relative="1" as="geometry">
            <mxPoint x="12" y="38" as="offset" />
          </mxGeometry>
        </mxCell>
        <mxCell id="P0doHV3i4hpOtutFLJiP-11" value="" style="endArrow=classic;startArrow=classic;html=1;rounded=0;" parent="1" source="wy8Q__5yKFntjVzz3vQ7-98" target="P0doHV3i4hpOtutFLJiP-9" edge="1">
          <mxGeometry width="50" height="50" relative="1" as="geometry">
            <mxPoint x="312.00000000000006" y="850" as="sourcePoint" />
            <mxPoint x="312.00000000000006" y="710" as="targetPoint" />
          </mxGeometry>
        </mxCell>
        <mxCell id="P0doHV3i4hpOtutFLJiP-17" value="Private Link" style="edgeLabel;html=1;align=center;verticalAlign=middle;resizable=0;points=[];rotation=-90;" parent="P0doHV3i4hpOtutFLJiP-11" vertex="1" connectable="0">
          <mxGeometry x="0.5108" y="1" relative="1" as="geometry">
            <mxPoint x="16" y="36" as="offset" />
          </mxGeometry>
        </mxCell>
        <mxCell id="P0doHV3i4hpOtutFLJiP-25" value="" style="endArrow=none;dashed=1;html=1;rounded=0;entryX=0.456;entryY=1;entryDx=0;entryDy=0;entryPerimeter=0;" parent="1" source="P0doHV3i4hpOtutFLJiP-7" target="wy8Q__5yKFntjVzz3vQ7-45" edge="1">
          <mxGeometry width="50" height="50" relative="1" as="geometry">
            <mxPoint x="311.5" y="590" as="sourcePoint" />
            <mxPoint x="361.5" y="540" as="targetPoint" />
          </mxGeometry>
        </mxCell>
        <mxCell id="P0doHV3i4hpOtutFLJiP-31" value="HTTPS" style="edgeLabel;html=1;align=center;verticalAlign=middle;resizable=0;points=[];rotation=90;" parent="P0doHV3i4hpOtutFLJiP-25" vertex="1" connectable="0">
          <mxGeometry x="0.7284" relative="1" as="geometry">
            <mxPoint x="15" y="13" as="offset" />
          </mxGeometry>
        </mxCell>
        <mxCell id="P0doHV3i4hpOtutFLJiP-26" value="" style="endArrow=none;dashed=1;html=1;rounded=0;entryX=0.825;entryY=0.997;entryDx=0;entryDy=0;entryPerimeter=0;" parent="1" source="P0doHV3i4hpOtutFLJiP-9" target="wy8Q__5yKFntjVzz3vQ7-45" edge="1">
          <mxGeometry width="50" height="50" relative="1" as="geometry">
            <mxPoint x="308.837708830549" y="660" as="sourcePoint" />
            <mxPoint x="288.72553699284003" y="501" as="targetPoint" />
          </mxGeometry>
        </mxCell>
        <mxCell id="P0doHV3i4hpOtutFLJiP-32" value="HTTPS" style="edgeLabel;html=1;align=center;verticalAlign=middle;resizable=0;points=[];rotation=90;" parent="P0doHV3i4hpOtutFLJiP-26" vertex="1" connectable="0">
          <mxGeometry x="0.7144" y="-2" relative="1" as="geometry">
            <mxPoint x="15" y="13" as="offset" />
          </mxGeometry>
        </mxCell>
        <mxCell id="P0doHV3i4hpOtutFLJiP-29" value="" style="endArrow=none;dashed=1;html=1;rounded=0;entryX=0.149;entryY=0.999;entryDx=0;entryDy=0;entryPerimeter=0;exitX=0.5;exitY=0;exitDx=0;exitDy=0;exitPerimeter=0;" parent="1" source="wy8Q__5yKFntjVzz3vQ7-65" target="wy8Q__5yKFntjVzz3vQ7-45" edge="1">
          <mxGeometry width="50" height="50" relative="1" as="geometry">
            <mxPoint x="311.58067200000005" y="660" as="sourcePoint" />
            <mxPoint x="309.9033599999998" y="560.0000000000002" as="targetPoint" />
          </mxGeometry>
        </mxCell>
        <mxCell id="P0doHV3i4hpOtutFLJiP-30" value="TLS" style="edgeLabel;html=1;align=center;verticalAlign=middle;resizable=0;points=[];rotation=90;" parent="P0doHV3i4hpOtutFLJiP-29" vertex="1" connectable="0">
          <mxGeometry x="0.6908" y="2" relative="1" as="geometry">
            <mxPoint x="16" y="4" as="offset" />
          </mxGeometry>
        </mxCell>
        <mxCell id="P0doHV3i4hpOtutFLJiP-33" value="Key Management" style="sketch=0;points=[[0,0,0],[0.25,0,0],[0.5,0,0],[0.75,0,0],[1,0,0],[0,1,0],[0.25,1,0],[0.5,1,0],[0.75,1,0],[1,1,0],[0,0.25,0],[0,0.5,0],[0,0.75,0],[1,0.25,0],[1,0.5,0],[1,0.75,0]];outlineConnect=0;fontColor=#232F3E;gradientColor=#F54749;gradientDirection=north;fillColor=#C7131F;strokeColor=#ffffff;dashed=0;verticalLabelPosition=bottom;verticalAlign=top;align=center;html=1;fontSize=12;fontStyle=0;aspect=fixed;shape=mxgraph.aws4.resourceIcon;resIcon=mxgraph.aws4.key_management_service;" parent="1" vertex="1">
          <mxGeometry x="113" y="941.5" width="37" height="37" as="geometry" />
        </mxCell>
        <mxCell id="P0doHV3i4hpOtutFLJiP-34" value="" style="endArrow=none;dashed=1;html=1;rounded=0;exitX=1;exitY=0.5;exitDx=0;exitDy=0;exitPerimeter=0;entryX=0.06;entryY=0.5;entryDx=0;entryDy=0;entryPerimeter=0;" parent="1" source="P0doHV3i4hpOtutFLJiP-33" target="wy8Q__5yKFntjVzz3vQ7-99" edge="1">
          <mxGeometry width="50" height="50" relative="1" as="geometry">
            <mxPoint x="271.5" y="760" as="sourcePoint" />
            <mxPoint x="321.5" y="710" as="targetPoint" />
          </mxGeometry>
        </mxCell>
        <mxCell id="P0doHV3i4hpOtutFLJiP-35" value="Encryption" style="edgeLabel;html=1;align=center;verticalAlign=middle;resizable=0;points=[];" parent="P0doHV3i4hpOtutFLJiP-34" vertex="1" connectable="0">
          <mxGeometry x="-0.3032" relative="1" as="geometry">
            <mxPoint x="10" y="-10" as="offset" />
          </mxGeometry>
        </mxCell>
        <mxCell id="P0doHV3i4hpOtutFLJiP-37" value="" style="endArrow=classic;html=1;rounded=0;" parent="1" source="P0doHV3i4hpOtutFLJiP-45" edge="1">
          <mxGeometry width="50" height="50" relative="1" as="geometry">
            <mxPoint x="244.6400000000001" y="350" as="sourcePoint" />
            <mxPoint x="266" y="370" as="targetPoint" />
          </mxGeometry>
        </mxCell>
        <mxCell id="P0doHV3i4hpOtutFLJiP-39" value="" style="endArrow=classic;html=1;rounded=0;entryX=0.145;entryY=0.145;entryDx=0;entryDy=0;entryPerimeter=0;exitX=1;exitY=0.75;exitDx=0;exitDy=0;" parent="1" source="wy8Q__5yKFntjVzz3vQ7-86" target="P0doHV3i4hpOtutFLJiP-45" edge="1">
          <mxGeometry width="50" height="50" relative="1" as="geometry">
            <mxPoint x="251.5" y="150" as="sourcePoint" />
            <mxPoint x="241.5" y="340" as="targetPoint" />
            <Array as="points">
              <mxPoint x="251.5" y="76" />
            </Array>
          </mxGeometry>
        </mxCell>
        <mxCell id="P0doHV3i4hpOtutFLJiP-40" value="DICOM-TLS" style="edgeLabel;html=1;align=center;verticalAlign=middle;resizable=0;points=[];rotation=90;" parent="P0doHV3i4hpOtutFLJiP-39" vertex="1" connectable="0">
          <mxGeometry x="-0.72" relative="1" as="geometry">
            <mxPoint x="1" y="50" as="offset" />
          </mxGeometry>
        </mxCell>
        <mxCell id="P0doHV3i4hpOtutFLJiP-41" value="" style="endArrow=classic;html=1;rounded=0;entryX=0.855;entryY=0.145;entryDx=0;entryDy=0;entryPerimeter=0;" parent="1" source="wy8Q__5yKFntjVzz3vQ7-77" target="P0doHV3i4hpOtutFLJiP-45" edge="1">
          <mxGeometry width="50" height="50" relative="1" as="geometry">
            <mxPoint x="251.5" y="150" as="sourcePoint" />
            <mxPoint x="301.5" y="100" as="targetPoint" />
            <Array as="points">
              <mxPoint x="281.5" y="77" />
            </Array>
          </mxGeometry>
        </mxCell>
        <mxCell id="P0doHV3i4hpOtutFLJiP-42" value="HTTPS" style="edgeLabel;html=1;align=center;verticalAlign=middle;resizable=0;points=[];rotation=90;" parent="P0doHV3i4hpOtutFLJiP-41" vertex="1" connectable="0">
          <mxGeometry x="-0.8248" relative="1" as="geometry">
            <mxPoint x="-20" y="51" as="offset" />
          </mxGeometry>
        </mxCell>
        <mxCell id="P0doHV3i4hpOtutFLJiP-45" value="Site IP" style="outlineConnect=0;dashed=0;verticalLabelPosition=bottom;verticalAlign=top;align=center;html=1;shape=mxgraph.aws3.elastic_network_interface;fillColor=#F58534;gradientColor=none;" parent="1" vertex="1">
          <mxGeometry x="245.99999999999997" y="248" width="40.25" height="42" as="geometry" />
        </mxCell>
        <mxCell id="P0doHV3i4hpOtutFLJiP-46" value="PostgreSQL" style="outlineConnect=0;dashed=0;verticalLabelPosition=bottom;verticalAlign=top;align=center;html=1;shape=mxgraph.aws3.rds;fillColor=#2E73B8;gradientColor=none;labelPosition=center;" parent="1" vertex="1">
          <mxGeometry x="819.25" y="650" width="50" height="50" as="geometry" />
        </mxCell>
        <mxCell id="P0doHV3i4hpOtutFLJiP-47" value="S3 &lt;br&gt;Endpoint" style="sketch=0;outlineConnect=0;fontColor=#232F3E;gradientColor=none;fillColor=#4D27AA;strokeColor=none;dashed=0;verticalLabelPosition=middle;verticalAlign=middle;align=left;html=1;fontSize=12;fontStyle=0;aspect=fixed;pointerEvents=1;shape=mxgraph.aws4.endpoint;labelPosition=right;" parent="1" vertex="1">
          <mxGeometry x="709.25" y="650" width="50" height="50" as="geometry" />
        </mxCell>
        <mxCell id="P0doHV3i4hpOtutFLJiP-48" value="Secret&lt;br&gt;Manager&lt;br&gt;Endpoint" style="sketch=0;outlineConnect=0;fontColor=#232F3E;gradientColor=none;fillColor=#4D27AA;strokeColor=none;dashed=0;verticalLabelPosition=middle;verticalAlign=middle;align=left;html=1;fontSize=12;fontStyle=0;aspect=fixed;pointerEvents=1;shape=mxgraph.aws4.endpoint;labelPosition=right;" parent="1" vertex="1">
          <mxGeometry x="600" y="650" width="50" height="50" as="geometry" />
        </mxCell>
        <mxCell id="P0doHV3i4hpOtutFLJiP-49" value="" style="endArrow=none;dashed=1;html=1;dashPattern=1 3;strokeWidth=2;rounded=0;" parent="1" source="wy8Q__5yKFntjVzz3vQ7-65" target="P0doHV3i4hpOtutFLJiP-46" edge="1">
          <mxGeometry width="50" height="50" relative="1" as="geometry">
            <mxPoint x="441.5" y="760" as="sourcePoint" />
            <mxPoint x="491.5" y="710" as="targetPoint" />
            <Array as="points">
              <mxPoint x="175" y="810" />
              <mxPoint x="850" y="810" />
            </Array>
          </mxGeometry>
        </mxCell>
        <mxCell id="P0doHV3i4hpOtutFLJiP-50" value="Replication" style="edgeLabel;html=1;align=center;verticalAlign=middle;resizable=0;points=[];" parent="P0doHV3i4hpOtutFLJiP-49" vertex="1" connectable="0">
          <mxGeometry x="0.5433" y="-2" relative="1" as="geometry">
            <mxPoint x="34" y="-2" as="offset" />
          </mxGeometry>
        </mxCell>
        <mxCell id="P0doHV3i4hpOtutFLJiP-51" value="" style="endArrow=classic;startArrow=classic;html=1;rounded=0;exitX=1;exitY=0.5;exitDx=0;exitDy=0;exitPerimeter=0;" parent="1" source="wy8Q__5yKFntjVzz3vQ7-98" target="P0doHV3i4hpOtutFLJiP-48" edge="1">
          <mxGeometry width="50" height="50" relative="1" as="geometry">
            <mxPoint x="453.55999999999995" y="846.5000000000002" as="sourcePoint" />
            <mxPoint x="453.55999999999995" y="710" as="targetPoint" />
            <Array as="points">
              <mxPoint x="625" y="861" />
            </Array>
          </mxGeometry>
        </mxCell>
        <mxCell id="P0doHV3i4hpOtutFLJiP-52" value="Private Link" style="edgeLabel;html=1;align=center;verticalAlign=middle;resizable=0;points=[];rotation=-90;" parent="P0doHV3i4hpOtutFLJiP-51" vertex="1" connectable="0">
          <mxGeometry x="0.5108" y="1" relative="1" as="geometry">
            <mxPoint x="16" y="-18" as="offset" />
          </mxGeometry>
        </mxCell>
        <mxCell id="P0doHV3i4hpOtutFLJiP-53" value="" style="endArrow=classic;startArrow=classic;html=1;rounded=0;" parent="1" source="wy8Q__5yKFntjVzz3vQ7-99" target="P0doHV3i4hpOtutFLJiP-47" edge="1">
          <mxGeometry width="50" height="50" relative="1" as="geometry">
            <mxPoint x="312" y="950" as="sourcePoint" />
            <mxPoint x="312" y="710" as="targetPoint" />
            <Array as="points">
              <mxPoint x="740" y="960" />
            </Array>
          </mxGeometry>
        </mxCell>
        <mxCell id="P0doHV3i4hpOtutFLJiP-54" value="Private Link" style="edgeLabel;html=1;align=center;verticalAlign=middle;resizable=0;points=[];rotation=-90;" parent="P0doHV3i4hpOtutFLJiP-53" vertex="1" connectable="0">
          <mxGeometry x="0.6429" y="-1" relative="1" as="geometry">
            <mxPoint x="12" y="-59" as="offset" />
          </mxGeometry>
        </mxCell>
        <mxCell id="P0doHV3i4hpOtutFLJiP-57" value="" style="rounded=0;whiteSpace=wrap;html=1;fillColor=#f5f5f5;strokeColor=#666666;fontColor=#333333;" parent="1" vertex="1">
          <mxGeometry x="591.56" y="270" width="286.94" height="287.5" as="geometry" />
        </mxCell>
        <mxCell id="P0doHV3i4hpOtutFLJiP-58" value="EC2" style="outlineConnect=0;dashed=0;verticalLabelPosition=middle;verticalAlign=middle;align=right;html=1;shape=mxgraph.aws3.ec2;fillColor=#F58534;gradientColor=none;labelPosition=left;" parent="1" vertex="1">
          <mxGeometry x="819.2499999999999" y="280" width="32.94" height="40" as="geometry" />
        </mxCell>
        <mxCell id="P0doHV3i4hpOtutFLJiP-59" value="" style="rounded=1;whiteSpace=wrap;html=1;verticalAlign=middle;" parent="1" vertex="1">
          <mxGeometry x="620" y="347.5" width="228.5" height="180" as="geometry" />
        </mxCell>
        <mxCell id="P0doHV3i4hpOtutFLJiP-60" value="Envoy&lt;br&gt;Proxy" style="sketch=0;outlineConnect=0;fontColor=#232F3E;gradientColor=none;strokeColor=#232F3E;fillColor=#ffffff;dashed=0;verticalLabelPosition=middle;verticalAlign=middle;align=right;html=1;fontSize=12;fontStyle=0;aspect=fixed;shape=mxgraph.aws4.resourceIcon;resIcon=mxgraph.aws4.container_2;labelPosition=left;" parent="1" vertex="1">
          <mxGeometry x="701.5" y="370" width="59.5" height="59.5" as="geometry" />
        </mxCell>
        <mxCell id="P0doHV3i4hpOtutFLJiP-61" value="Orthanc" style="sketch=0;outlineConnect=0;fontColor=#232F3E;gradientColor=none;strokeColor=#232F3E;fillColor=#ffffff;dashed=0;verticalLabelPosition=bottom;verticalAlign=top;align=center;html=1;fontSize=12;fontStyle=0;aspect=fixed;shape=mxgraph.aws4.resourceIcon;resIcon=mxgraph.aws4.container_2;labelPosition=center;" parent="1" vertex="1">
          <mxGeometry x="641" y="454" width="51" height="51" as="geometry" />
        </mxCell>
        <mxCell id="P0doHV3i4hpOtutFLJiP-62" value="" style="endArrow=classic;html=1;rounded=0;" parent="1" source="P0doHV3i4hpOtutFLJiP-60" target="P0doHV3i4hpOtutFLJiP-61" edge="1">
          <mxGeometry width="50" height="50" relative="1" as="geometry">
            <mxPoint x="930" y="517.5" as="sourcePoint" />
            <mxPoint x="666" y="467.5" as="targetPoint" />
          </mxGeometry>
        </mxCell>
        <mxCell id="P0doHV3i4hpOtutFLJiP-64" value="Orthanc" style="sketch=0;outlineConnect=0;fontColor=#232F3E;gradientColor=none;strokeColor=#232F3E;fillColor=#ffffff;dashed=0;verticalLabelPosition=bottom;verticalAlign=top;align=center;html=1;fontSize=12;fontStyle=0;aspect=fixed;shape=mxgraph.aws4.resourceIcon;resIcon=mxgraph.aws4.container_2;labelPosition=center;" parent="1" vertex="1">
          <mxGeometry x="710" y="454" width="51" height="51" as="geometry" />
        </mxCell>
        <mxCell id="P0doHV3i4hpOtutFLJiP-65" value="Orthanc" style="sketch=0;outlineConnect=0;fontColor=#232F3E;gradientColor=none;strokeColor=#232F3E;fillColor=#ffffff;dashed=0;verticalLabelPosition=bottom;verticalAlign=top;align=center;html=1;fontSize=12;fontStyle=0;aspect=fixed;shape=mxgraph.aws4.resourceIcon;resIcon=mxgraph.aws4.container_2;labelPosition=center;" parent="1" vertex="1">
          <mxGeometry x="775" y="454" width="51" height="51" as="geometry" />
        </mxCell>
        <mxCell id="P0doHV3i4hpOtutFLJiP-66" value="" style="endArrow=classic;html=1;rounded=0;" parent="1" source="P0doHV3i4hpOtutFLJiP-60" target="P0doHV3i4hpOtutFLJiP-65" edge="1">
          <mxGeometry width="50" height="50" relative="1" as="geometry">
            <mxPoint x="714.5" y="445.8976377952756" as="sourcePoint" />
            <mxPoint x="702" y="458.1023622047244" as="targetPoint" />
          </mxGeometry>
        </mxCell>
        <mxCell id="P0doHV3i4hpOtutFLJiP-67" value="" style="endArrow=classic;html=1;rounded=0;" parent="1" source="P0doHV3i4hpOtutFLJiP-60" target="P0doHV3i4hpOtutFLJiP-64" edge="1">
          <mxGeometry width="50" height="50" relative="1" as="geometry">
            <mxPoint x="769.1785714285716" y="438.5" as="sourcePoint" />
            <mxPoint x="786.8214285714284" y="457.5" as="targetPoint" />
          </mxGeometry>
        </mxCell>
        <mxCell id="P0doHV3i4hpOtutFLJiP-71" value="Internet&lt;br&gt;Gateway" style="outlineConnect=0;dashed=0;verticalLabelPosition=bottom;verticalAlign=top;align=center;html=1;shape=mxgraph.aws3.internet_gateway;fillColor=#F58536;gradientColor=none;" parent="1" vertex="1">
          <mxGeometry x="491.42" y="160" width="38.33" height="40" as="geometry" />
        </mxCell>
        <mxCell id="P0doHV3i4hpOtutFLJiP-73" value="" style="endArrow=none;dashed=1;html=1;rounded=0;entryX=0.878;entryY=0.999;entryDx=0;entryDy=0;entryPerimeter=0;exitX=0.5;exitY=0;exitDx=0;exitDy=0;exitPerimeter=0;" parent="1" source="P0doHV3i4hpOtutFLJiP-46" target="P0doHV3i4hpOtutFLJiP-57" edge="1">
          <mxGeometry width="50" height="50" relative="1" as="geometry">
            <mxPoint x="895.23" y="650" as="sourcePoint" />
            <mxPoint x="894.5994999999998" y="549.48" as="targetPoint" />
          </mxGeometry>
        </mxCell>
        <mxCell id="P0doHV3i4hpOtutFLJiP-74" value="TLS" style="edgeLabel;html=1;align=center;verticalAlign=middle;resizable=0;points=[];rotation=90;" parent="P0doHV3i4hpOtutFLJiP-73" vertex="1" connectable="0">
          <mxGeometry x="0.6908" y="2" relative="1" as="geometry">
            <mxPoint x="12" y="4" as="offset" />
          </mxGeometry>
        </mxCell>
        <mxCell id="P0doHV3i4hpOtutFLJiP-75" value="" style="endArrow=none;dashed=1;html=1;rounded=0;" parent="1" edge="1">
          <mxGeometry width="50" height="50" relative="1" as="geometry">
            <mxPoint x="624.4987999999998" y="650" as="sourcePoint" />
            <mxPoint x="625.5" y="560" as="targetPoint" />
          </mxGeometry>
        </mxCell>
        <mxCell id="P0doHV3i4hpOtutFLJiP-76" value="HTTPS" style="edgeLabel;html=1;align=center;verticalAlign=middle;resizable=0;points=[];rotation=90;" parent="P0doHV3i4hpOtutFLJiP-75" vertex="1" connectable="0">
          <mxGeometry x="0.7284" relative="1" as="geometry">
            <mxPoint x="15" y="13" as="offset" />
          </mxGeometry>
        </mxCell>
        <mxCell id="P0doHV3i4hpOtutFLJiP-77" value="" style="endArrow=none;dashed=1;html=1;rounded=0;" parent="1" source="P0doHV3i4hpOtutFLJiP-47" edge="1">
          <mxGeometry width="50" height="50" relative="1" as="geometry">
            <mxPoint x="744.5987999999999" y="650" as="sourcePoint" />
            <mxPoint x="734.5" y="560" as="targetPoint" />
          </mxGeometry>
        </mxCell>
        <mxCell id="P0doHV3i4hpOtutFLJiP-78" value="HTTPS" style="edgeLabel;html=1;align=center;verticalAlign=middle;resizable=0;points=[];rotation=90;" parent="P0doHV3i4hpOtutFLJiP-77" vertex="1" connectable="0">
          <mxGeometry x="0.7284" relative="1" as="geometry">
            <mxPoint x="15" y="13" as="offset" />
          </mxGeometry>
        </mxCell>
        <mxCell id="yBTEZr3UJsLN9-MA5R_W-1" value="" style="endArrow=none;dashed=1;html=1;rounded=0;exitX=0.5;exitY=0;exitDx=0;exitDy=0;exitPerimeter=0;entryX=0;entryY=0.5;entryDx=0;entryDy=0;entryPerimeter=0;" parent="1" source="P0doHV3i4hpOtutFLJiP-33" target="wy8Q__5yKFntjVzz3vQ7-65" edge="1">
          <mxGeometry width="50" height="50" relative="1" as="geometry">
            <mxPoint x="197.25" y="970" as="sourcePoint" />
            <mxPoint x="294.4000000000001" y="970" as="targetPoint" />
            <Array as="points">
              <mxPoint x="132" y="675" />
              <mxPoint x="150" y="675" />
            </Array>
          </mxGeometry>
        </mxCell>
        <mxCell id="yBTEZr3UJsLN9-MA5R_W-2" value="Encryption" style="edgeLabel;html=1;align=center;verticalAlign=middle;resizable=0;points=[];rotation=-90;" parent="yBTEZr3UJsLN9-MA5R_W-1" vertex="1" connectable="0">
          <mxGeometry x="-0.3032" relative="1" as="geometry">
            <mxPoint x="-10" y="18" as="offset" />
          </mxGeometry>
        </mxCell>
        <mxCell id="yBTEZr3UJsLN9-MA5R_W-4" value="" style="curved=1;endArrow=classic;html=1;rounded=0;strokeWidth=2;strokeColor=#0000FF;dashed=1;" parent="1" source="P0doHV3i4hpOtutFLJiP-45" target="yBTEZr3UJsLN9-MA5R_W-6" edge="1">
          <mxGeometry width="50" height="50" relative="1" as="geometry">
            <mxPoint x="463.56" y="160" as="sourcePoint" />
            <mxPoint x="513.56" y="110" as="targetPoint" />
            <Array as="points">
              <mxPoint x="410" y="130" />
              <mxPoint x="620" y="140" />
            </Array>
          </mxGeometry>
        </mxCell>
        <mxCell id="yBTEZr3UJsLN9-MA5R_W-5" value="Fail over&amp;nbsp;" style="edgeLabel;html=1;align=center;verticalAlign=middle;resizable=0;points=[];labelBackgroundColor=none;rotation=-25;" parent="yBTEZr3UJsLN9-MA5R_W-4" vertex="1" connectable="0">
          <mxGeometry x="-0.0207" y="-1" relative="1" as="geometry">
            <mxPoint x="-86" y="5" as="offset" />
          </mxGeometry>
        </mxCell>
        <mxCell id="yBTEZr3UJsLN9-MA5R_W-6" value="Site IP" style="outlineConnect=0;dashed=0;verticalLabelPosition=bottom;verticalAlign=top;align=center;html=1;shape=mxgraph.aws3.elastic_network_interface;fillColor=#F5D1A2;gradientColor=none;fillStyle=auto;opacity=50;shadow=0;sketch=0;perimeterSpacing=1;" parent="1" vertex="1">
          <mxGeometry x="715.38" y="248" width="40.25" height="42" as="geometry" />
        </mxCell>
        <mxCell id="IIfPkx78KInV2y7oZ7ON-1" value="System Manager" style="sketch=0;points=[[0,0,0],[0.25,0,0],[0.5,0,0],[0.75,0,0],[1,0,0],[0,1,0],[0.25,1,0],[0.5,1,0],[0.75,1,0],[1,1,0],[0,0.25,0],[0,0.5,0],[0,0.75,0],[1,0.25,0],[1,0.5,0],[1,0.75,0]];points=[[0,0,0],[0.25,0,0],[0.5,0,0],[0.75,0,0],[1,0,0],[0,1,0],[0.25,1,0],[0.5,1,0],[0.75,1,0],[1,1,0],[0,0.25,0],[0,0.5,0],[0,0.75,0],[1,0.25,0],[1,0.5,0],[1,0.75,0]];outlineConnect=0;fontColor=#232F3E;gradientColor=#F34482;gradientDirection=north;fillColor=#BC1356;strokeColor=#ffffff;dashed=0;verticalLabelPosition=middle;verticalAlign=middle;align=left;html=1;fontSize=12;fontStyle=0;aspect=fixed;shape=mxgraph.aws4.resourceIcon;resIcon=mxgraph.aws4.systems_manager;labelPosition=right;" parent="1" vertex="1">
          <mxGeometry x="492.33000000000004" y="882" width="36.5" height="36.5" as="geometry" />
        </mxCell>
        <mxCell id="IIfPkx78KInV2y7oZ7ON-2" value="Daemon" style="sketch=0;aspect=fixed;html=1;points=[];align=center;image;fontSize=12;image=img/lib/mscae/Docker.svg;" parent="1" vertex="1">
          <mxGeometry x="782.25" y="362.5" width="50" height="41" as="geometry" />
        </mxCell>
        <mxCell id="IIfPkx78KInV2y7oZ7ON-3" value="Daemon" style="sketch=0;aspect=fixed;html=1;points=[];align=center;image;fontSize=12;image=img/lib/mscae/Docker.svg;" parent="1" vertex="1">
          <mxGeometry x="316" y="362.5" width="50" height="41" as="geometry" />
        </mxCell>
        <mxCell id="IIfPkx78KInV2y7oZ7ON-4" value="" style="endArrow=classic;html=1;rounded=0;exitX=0.5;exitY=0;exitDx=0;exitDy=0;exitPerimeter=0;entryX=1;entryY=0.5;entryDx=0;entryDy=0;" parent="1" source="IIfPkx78KInV2y7oZ7ON-1" target="IIfPkx78KInV2y7oZ7ON-8" edge="1">
          <mxGeometry width="50" height="50" relative="1" as="geometry">
            <mxPoint x="540" y="690" as="sourcePoint" />
            <mxPoint x="510" y="830" as="targetPoint" />
            <Array as="points">
              <mxPoint x="510" y="315" />
            </Array>
          </mxGeometry>
        </mxCell>
        <mxCell id="IIfPkx78KInV2y7oZ7ON-5" value="" style="endArrow=classic;html=1;rounded=0;exitX=0.485;exitY=-0.01;exitDx=0;exitDy=0;exitPerimeter=0;entryX=0.5;entryY=1;entryDx=0;entryDy=0;entryPerimeter=0;" parent="1" source="wy8Q__5yKFntjVzz3vQ7-88" target="IIfPkx78KInV2y7oZ7ON-1" edge="1">
          <mxGeometry width="50" height="50" relative="1" as="geometry">
            <mxPoint x="540" y="690" as="sourcePoint" />
            <mxPoint x="590" y="640" as="targetPoint" />
          </mxGeometry>
        </mxCell>
        <mxCell id="IIfPkx78KInV2y7oZ7ON-8" value="SSM-Agent" style="shape=process;whiteSpace=wrap;html=1;backgroundOutline=1;fillColor=#fff2cc;strokeColor=#d6b656;" parent="1" vertex="1">
          <mxGeometry x="320" y="300" width="81" height="30" as="geometry" />
        </mxCell>
        <mxCell id="IIfPkx78KInV2y7oZ7ON-9" value="SSM-Agent" style="shape=process;whiteSpace=wrap;html=1;backgroundOutline=1;fillColor=#fff2cc;strokeColor=#d6b656;" parent="1" vertex="1">
          <mxGeometry x="609.25" y="300" width="80.75" height="30" as="geometry" />
        </mxCell>
        <mxCell id="IIfPkx78KInV2y7oZ7ON-10" value="" style="endArrow=classic;html=1;rounded=0;exitX=0.5;exitY=0;exitDx=0;exitDy=0;exitPerimeter=0;entryX=0;entryY=0.5;entryDx=0;entryDy=0;" parent="1" source="IIfPkx78KInV2y7oZ7ON-1" target="IIfPkx78KInV2y7oZ7ON-9" edge="1">
          <mxGeometry width="50" height="50" relative="1" as="geometry">
            <mxPoint x="600" y="920" as="sourcePoint" />
            <mxPoint x="650" y="870" as="targetPoint" />
            <Array as="points">
              <mxPoint x="511" y="315" />
            </Array>
          </mxGeometry>
        </mxCell>
      </root>
    </mxGraphModel>
  </diagram>
  <diagram id="UGBfyGyCxUdNwssxnfqj" name="DICOM traffic">
    <mxGraphModel dx="2522" dy="1377" grid="1" gridSize="10" guides="1" tooltips="1" connect="1" arrows="1" fold="1" page="1" pageScale="1" pageWidth="850" pageHeight="1100" math="0" shadow="0">
      <root>
        <mxCell id="0" />
        <mxCell id="1" parent="0" />
        <mxCell id="hPmIKUDMaNli_FxTcE9d-1" value="Internet" style="ellipse;shape=cloud;whiteSpace=wrap;html=1;fillColor=#fff2cc;strokeColor=#d6b656;verticalAlign=bottom;" vertex="1" parent="1">
          <mxGeometry x="220" y="60" width="150" height="200" as="geometry" />
        </mxCell>
        <mxCell id="hPmIKUDMaNli_FxTcE9d-2" value="" style="endArrow=classic;html=1;exitX=1;exitY=0.25;exitDx=0;exitDy=0;" edge="1" parent="1" source="hPmIKUDMaNli_FxTcE9d-8">
          <mxGeometry width="50" height="50" relative="1" as="geometry">
            <mxPoint x="220" y="140" as="sourcePoint" />
            <mxPoint x="400" y="140" as="targetPoint" />
          </mxGeometry>
        </mxCell>
        <mxCell id="hPmIKUDMaNli_FxTcE9d-3" value="Encrypted DICOM traffic" style="edgeLabel;html=1;align=center;verticalAlign=middle;resizable=0;points=[];" vertex="1" connectable="0" parent="hPmIKUDMaNli_FxTcE9d-2">
          <mxGeometry x="-0.3333" y="-1" relative="1" as="geometry">
            <mxPoint x="30" y="-1" as="offset" />
          </mxGeometry>
        </mxCell>
        <mxCell id="hPmIKUDMaNli_FxTcE9d-4" value="DICOM &lt;br&gt;Archive" style="rounded=1;whiteSpace=wrap;html=1;" vertex="1" parent="1">
          <mxGeometry x="610" y="110" width="80" height="120" as="geometry" />
        </mxCell>
        <mxCell id="hPmIKUDMaNli_FxTcE9d-5" value="Nginx" style="rounded=1;whiteSpace=wrap;html=1;fillColor=#d5e8d4;strokeColor=#82b366;" vertex="1" parent="1">
          <mxGeometry x="400" y="110" width="50" height="120" as="geometry" />
        </mxCell>
        <mxCell id="hPmIKUDMaNli_FxTcE9d-6" value="" style="endArrow=classic;html=1;exitX=1;exitY=0.25;exitDx=0;exitDy=0;" edge="1" parent="1" source="hPmIKUDMaNli_FxTcE9d-5">
          <mxGeometry width="50" height="50" relative="1" as="geometry">
            <mxPoint x="410" y="220" as="sourcePoint" />
            <mxPoint x="610" y="140" as="targetPoint" />
          </mxGeometry>
        </mxCell>
        <mxCell id="hPmIKUDMaNli_FxTcE9d-7" value="Unencrypted DICOM traffic" style="edgeLabel;html=1;align=center;verticalAlign=middle;resizable=0;points=[];" vertex="1" connectable="0" parent="hPmIKUDMaNli_FxTcE9d-6">
          <mxGeometry x="-0.4909" y="1" relative="1" as="geometry">
            <mxPoint x="34" y="1" as="offset" />
          </mxGeometry>
        </mxCell>
        <mxCell id="hPmIKUDMaNli_FxTcE9d-8" value="DICOM Device supporting TLS" style="rounded=1;whiteSpace=wrap;html=1;" vertex="1" parent="1">
          <mxGeometry x="70" y="140" width="120" height="50" as="geometry" />
        </mxCell>
        <mxCell id="hPmIKUDMaNli_FxTcE9d-9" value="" style="endArrow=classic;html=1;exitX=0;exitY=0.75;exitDx=0;exitDy=0;entryX=1;entryY=0.75;entryDx=0;entryDy=0;" edge="1" parent="1" source="hPmIKUDMaNli_FxTcE9d-4" target="hPmIKUDMaNli_FxTcE9d-5">
          <mxGeometry width="50" height="50" relative="1" as="geometry">
            <mxPoint x="410" y="210" as="sourcePoint" />
            <mxPoint x="300" y="270" as="targetPoint" />
          </mxGeometry>
        </mxCell>
        <mxCell id="hPmIKUDMaNli_FxTcE9d-10" value="Unencrypted DICOM traffic" style="edgeLabel;html=1;align=center;verticalAlign=middle;resizable=0;points=[];" vertex="1" connectable="0" parent="hPmIKUDMaNli_FxTcE9d-9">
          <mxGeometry x="0.7778" y="-1" relative="1" as="geometry">
            <mxPoint x="60" as="offset" />
          </mxGeometry>
        </mxCell>
        <mxCell id="hPmIKUDMaNli_FxTcE9d-11" value="" style="endArrow=classic;html=1;exitX=0;exitY=0.75;exitDx=0;exitDy=0;entryX=1;entryY=0.75;entryDx=0;entryDy=0;" edge="1" parent="1" target="hPmIKUDMaNli_FxTcE9d-8">
          <mxGeometry width="50" height="50" relative="1" as="geometry">
            <mxPoint x="400" y="200" as="sourcePoint" />
            <mxPoint x="220" y="200" as="targetPoint" />
          </mxGeometry>
        </mxCell>
        <mxCell id="hPmIKUDMaNli_FxTcE9d-12" value="Encrypted DICOM traffic" style="edgeLabel;html=1;align=center;verticalAlign=middle;resizable=0;points=[];" vertex="1" connectable="0" parent="hPmIKUDMaNli_FxTcE9d-11">
          <mxGeometry x="0.7778" y="-1" relative="1" as="geometry">
            <mxPoint x="70" as="offset" />
          </mxGeometry>
        </mxCell>
        <mxCell id="hPmIKUDMaNli_FxTcE9d-13" value="" style="shape=link;html=1;fillColor=#dae8fc;strokeColor=#6c8ebf;" edge="1" parent="1">
          <mxGeometry width="100" relative="1" as="geometry">
            <mxPoint x="380" y="60" as="sourcePoint" />
            <mxPoint x="380" y="260" as="targetPoint" />
          </mxGeometry>
        </mxCell>
        <mxCell id="hPmIKUDMaNli_FxTcE9d-14" value="corporate firewall" style="edgeLabel;html=1;align=center;verticalAlign=middle;resizable=0;points=[];" vertex="1" connectable="0" parent="hPmIKUDMaNli_FxTcE9d-13">
          <mxGeometry x="-0.71" relative="1" as="geometry">
            <mxPoint x="10" y="-29" as="offset" />
          </mxGeometry>
        </mxCell>
        <mxCell id="hPmIKUDMaNli_FxTcE9d-15" value="" style="shape=link;html=1;fillColor=#dae8fc;strokeColor=#6c8ebf;" edge="1" parent="1">
          <mxGeometry width="100" relative="1" as="geometry">
            <mxPoint x="210" y="60" as="sourcePoint" />
            <mxPoint x="210" y="260" as="targetPoint" />
          </mxGeometry>
        </mxCell>
        <mxCell id="hPmIKUDMaNli_FxTcE9d-16" value="corporate firewall" style="edgeLabel;html=1;align=center;verticalAlign=middle;resizable=0;points=[];" vertex="1" connectable="0" parent="hPmIKUDMaNli_FxTcE9d-15">
          <mxGeometry x="-0.71" relative="1" as="geometry">
            <mxPoint x="10" y="-29" as="offset" />
          </mxGeometry>
        </mxCell>
      </root>
    </mxGraphModel>
  </diagram>
</mxfile>
